<?xml version="1.0" encoding="UTF-8"?>
<svg xmlns="http://www.w3.org/2000/svg" xmlns:i="http://ns.adobe.com/AdobeIllustrator/10.0/" version="1.1" viewBox="0 0 288 288">
  <defs>
    <style>
      .cls-1 {
        fill: #d30918;
      }
    </style>
  </defs>
  <!-- Generator: Adobe Illustrator 28.6.0, SVG Export Plug-In . SVG Version: 1.2.0 Build 709)  -->
  <g>
    <g id="Layer_1">
      <g>
        <path class="cls-1" d="M174.23,237.95c-.04.91-.7,1.89-1.12,1.94.23.08,1.55-.15,1.82-.24.99-.34,1.09-1.28,1.08-1.84l.05-1.8-1.79.32s.02,1.43-.05,1.61Z"/>
        <path class="cls-1" d="M72.04,244.18c-.75.13-1.42.55-1.92,1.13-.5.57-.83,1.29-.85,2.03l-.1,3.14c0,.39.14.72.4.94.13.11.28.19.45.23-.18.11-.34.24-.47.39-.27.3-.44.7-.46,1.09l-.1,3.14c-.02.74.26,1.35.73,1.75.47.4,1.13.58,1.88.44.74-.13,1.42-.55,1.92-1.13.5-.57.82-1.29.85-2.03l.1-3.14c.01-.4-.14-.73-.4-.94-.13-.1-.28-.18-.45-.23.18-.11.34-.24.47-.39.27-.31.45-.7.46-1.1l.1-3.13c.02-.74-.26-1.35-.73-1.75-.47-.4-1.14-.58-1.88-.44ZM73.31,249.73c-.01.4-.18.79-.45,1.1-.14.16-.3.29-.47.39.17.04.32.12.45.23.25.21.4.54.39.94l-.1,3.14c0,.19-.05.39-.13.58-.12.28-.31.54-.55.73-.23.2-.51.34-.82.4-.21.03-.39.03-.56-.02-.26-.06-.48-.2-.62-.41-.15-.21-.23-.46-.22-.76l.1-3.14c.01-.39.19-.79.46-1.09.13-.15.29-.29.47-.39-.17-.04-.33-.12-.45-.22-.26-.22-.41-.55-.4-.95l.1-3.14c0-.2.06-.4.13-.58.12-.28.31-.53.55-.73.23-.2.51-.33.82-.39.2-.04.39-.04.56,0,.26.06.48.2.63.41.14.2.23.46.22.76l-.1,3.13Z"/>
        <path class="cls-1" d="M76.22,249.2l.1-3.13c.02-.6-.08-1.15-.29-1.63-.31-.72-.84-1.28-1.52-1.62-.68-.35-1.52-.46-2.42-.3-.6.11-1.18.33-1.71.65-.79.47-1.47,1.14-1.97,1.91-.49.77-.79,1.67-.82,2.56l-.1,3.13c-.01.4-.18.79-.46,1.1-.13.16-.29.29-.47.39.18.04.33.12.45.23.26.21.4.55.39.94l-.1,3.14c-.02.6.09,1.14.29,1.63.31.71.84,1.27,1.52,1.62.68.34,1.52.47,2.42.3.6-.11,1.18-.33,1.7-.65.8-.48,1.48-1.14,1.97-1.91.49-.78.79-1.67.82-2.56l.1-3.14c.01-.4.19-.79.46-1.1.14-.15.3-.29.47-.4-.17-.04-.32-.11-.45-.22-.25-.21-.41-.55-.39-.94ZM75.36,250.99c-.27.3-.45.7-.46,1.09l-.1,3.14c-.05,1.71-1.5,3.36-3.22,3.67-1.72.31-3.08-.83-3.03-2.54l.1-3.14c.01-.4-.14-.73-.4-.94-.13-.11-.28-.19-.45-.23.17-.11.33-.24.47-.39.28-.31.45-.7.46-1.1l.1-3.13c.05-1.72,1.5-3.35,3.22-3.67,1.72-.31,3.08.83,3.02,2.54l-.1,3.14c-.01.4.14.73.4.94.13.11.28.19.45.23-.18.1-.34.24-.47.39Z"/>
        <path class="cls-1" d="M223.29,210.7c-.76.18-1.78,1-2.24,1.86-.05.09-5.5,13.06-5.5,13.06l5.19-1.24-.05-2.64c-.02-.85-.71-1.39-1.54-1.19-.09.02-.19.06-.27.09l3.46-8.23c.19-.45.52-.89.9-1.25.19-.18.4-.34.6-.46-.14-.04-.32-.05-.53,0ZM219.02,221.01c.27.21.43.53.44.94h0s.03,1.47.03,1.47l-1.99.47,1.27-3.02c.09.04.17.08.25.14Z"/>
        <path class="cls-1" d="M222.46,227.14l-.12-5.87c0-.41.15-.81.4-1.14.13-.17.28-.31.46-.43-.19-.03-.38-.03-.59.02-.83.2-1.5,1.05-1.48,1.9h0s.12,5.74.12,5.74h0c.02.86.71,1.38,1.54,1.19.21-.05.41-.14.59-.26-.18-.03-.33-.1-.47-.2-.26-.21-.43-.54-.44-.95Z"/>
        <path class="cls-1" d="M214.86,226.22l5.58-13.29c.39-.96-.11-1.53-.95-1.33-.21.05-.43.15-.64.28.14.04.24.12.31.24.14.24.13.61-.05,1.06l-5.3,12.63.04,1.91,5.71-1.35.03,1.47h0c0,.4-.14.81-.4,1.14-.13.16-.28.31-.45.42.18.04.38.04.59-.02.84-.2,1.5-1.05,1.48-1.9l-.05-2.64-5.89,1.4Z"/>
        <path class="cls-1" d="M199.62,216.4c-.69-.32-1.54-.41-2.42-.23-.6.12-1.17.37-1.69.69-.78.49-1.43,1.17-1.91,1.96-.46.78-.74,1.68-.74,2.57v8.89c-.01.59.11,1.14.32,1.61.33.71.88,1.25,1.57,1.57.69.32,1.53.42,2.43.22.59-.12,1.17-.36,1.69-.69.77-.49,1.44-1.17,1.91-1.96.47-.79.74-1.68.74-2.56v-8.89c.01-.6-.11-1.14-.33-1.61-.33-.71-.88-1.24-1.56-1.56ZM200.29,228.72c0,1.7-1.39,3.38-3.11,3.74-1.72.36-3.1-.73-3.1-2.43v-8.89c.01-1.71,1.4-3.38,3.12-3.74,1.72-.36,3.11.73,3.1,2.44v8.89Z"/>
        <path class="cls-1" d="M199.08,218.21c-.48-.38-1.15-.53-1.88-.38-.74.16-1.41.59-1.89,1.17-.48.58-.78,1.31-.78,2.05v8.89c-.01.73.29,1.33.77,1.71.49.38,1.15.54,1.89.38.74-.15,1.4-.59,1.89-1.18.49-.58.79-1.31.79-2.04v-8.89c.01-.74-.29-1.34-.77-1.71ZM198.63,229.06c0,.2-.04.4-.12.58-.11.29-.3.54-.53.74-.23.21-.5.35-.8.41-.21.04-.39.04-.57,0-.25-.05-.48-.19-.63-.39-.16-.19-.24-.45-.24-.75v-8.89c.01-.2.05-.4.12-.58.11-.28.3-.54.53-.75.23-.2.5-.35.81-.41.2-.04.39-.04.56,0,.26.05.48.19.64.39.15.2.24.45.24.75v8.89Z"/>
        <path class="cls-1" d="M189.78,234.07l-5.91,1.36-.04-3.15c-.01-.81.28-1.62.77-2.29l4.2-5.84c.42-.58.67-1.28.66-1.98-.01-.75-.32-1.36-.81-1.74-.49-.38-1.16-.53-1.89-.36-.74.17-1.4.62-1.88,1.23-.46.58-.75,1.31-.75,2.03.02.84.7,1.36,1.54,1.17.21-.05.41-.13.59-.25-.17-.03-.33-.11-.46-.2-.27-.21-.43-.54-.43-.94,0-.2.04-.4.11-.59.1-.28.29-.55.51-.77.23-.21.5-.36.8-.43.2-.04.39-.05.56-.01.26.05.48.19.65.39.16.2.25.45.26.76,0,.19-.03.38-.09.56-.06.18-.16.35-.27.51l-4.19,5.84h0c-.34.47-.62.98-.81,1.53-.19.54-.28,1.11-.27,1.68l.04,2.93c0,.4-.16.81-.41,1.13-.13.16-.28.3-.45.41.19.04.38.04.59-.01.1-.03,7.49-1.72,7.49-1.72.39-.09.76,0,1.02.19.13.11.24.24.32.4.07-.2.11-.41.11-.62-.01-.85-.7-1.38-1.53-1.19Z"/>
        <path class="cls-1" d="M181.63,225.32c.19.03.39.03.6-.02.83-.19,1.5-1.04,1.49-1.89.01-1.71,1.36-3.4,3.05-3.79,1.71-.39,3.11.7,3.14,2.44.01.81-.29,1.62-.78,2.3l-4.2,5.84c-.43.59-.68,1.28-.67,1.98l.04,2.71,5.47-1.26c.84-.19,1.5-1.03,1.49-1.89,0-.21-.05-.41-.12-.57-.08.19-.18.38-.3.53-.26.33-.62.57-1.01.67l-4.32.99-.02-1.47c0-.19.03-.38.09-.56.06-.18.15-.35.27-.51h0s4.2-5.85,4.2-5.85c.34-.46.61-.97.8-1.52.19-.54.29-1.11.28-1.68,0-.6-.14-1.16-.36-1.63-.34-.71-.9-1.25-1.59-1.57-.7-.31-1.54-.4-2.43-.2-.6.14-1.17.39-1.68.74-.78.51-1.43,1.22-1.88,2.02-.46.81-.71,1.73-.7,2.63v.03c0,.4-.16.78-.41,1.1-.13.16-.28.3-.46.42Z"/>
        <path class="cls-1" d="M211.13,229.44l-5.91,1.36-.04-3.15c-.01-.81.28-1.62.77-2.29l4.2-5.84c.42-.58.67-1.28.66-1.98-.01-.75-.32-1.36-.81-1.74-.49-.38-1.16-.53-1.89-.36-.74.17-1.4.62-1.88,1.23-.46.58-.75,1.31-.75,2.03.02.84.7,1.36,1.54,1.17.21-.05.41-.13.59-.25-.17-.03-.33-.11-.46-.2-.27-.21-.43-.54-.43-.94,0-.2.04-.4.11-.59.1-.28.29-.55.51-.77.23-.21.5-.36.8-.43.2-.04.39-.05.56-.01.26.05.48.19.65.39.16.2.25.45.26.76,0,.19-.03.38-.09.56-.06.18-.16.35-.27.51l-4.19,5.84h0c-.34.47-.62.98-.81,1.53-.19.54-.28,1.11-.27,1.68l.04,2.93c0,.4-.16.81-.41,1.13-.13.16-.28.3-.45.41.19.04.38.04.59-.01.1-.03,7.49-1.72,7.49-1.72.39-.09.76,0,1.02.19.13.11.24.24.32.4.07-.2.11-.41.11-.62-.01-.85-.7-1.38-1.53-1.19Z"/>
        <path class="cls-1" d="M202.97,220.69c.19.03.39.03.6-.02.83-.19,1.5-1.04,1.49-1.89.01-1.71,1.36-3.4,3.05-3.79,1.71-.39,3.11.7,3.14,2.44.01.81-.29,1.62-.78,2.3l-4.2,5.84c-.43.59-.68,1.28-.67,1.98l.04,2.71,5.47-1.26c.84-.19,1.5-1.03,1.49-1.89,0-.21-.05-.41-.12-.57-.08.19-.18.38-.3.53-.26.33-.62.57-1.01.67l-4.32.99-.02-1.47c0-.19.03-.38.09-.56.06-.18.15-.35.27-.51h0s4.2-5.85,4.2-5.85c.34-.46.61-.97.8-1.52.19-.54.29-1.11.28-1.68,0-.6-.14-1.16-.36-1.63-.34-.71-.9-1.25-1.59-1.57-.7-.31-1.54-.4-2.43-.2-.6.14-1.17.39-1.68.74-.78.51-1.43,1.22-1.88,2.02-.46.81-.71,1.73-.7,2.63v.03c0,.4-.16.78-.41,1.1-.13.16-.28.3-.45.42Z"/>
        <path class="cls-1" d="M167.11,238.38c.74-.13,1.42-.55,1.92-1.12.5-.57.82-1.29.85-2.03l.05-1.58c.02-.74-.26-1.34-.73-1.75-.47-.39-1.13-.57-1.88-.44l-2.68.48-.13,4.25c-.02.73.25,1.35.72,1.74.48.39,1.14.57,1.88.44ZM165.83,232.94h0s1.45-.26,1.45-.26c.21-.03.39-.03.56.02.26.06.47.2.62.41.14.2.23.46.22.76l-.05,1.58c0,.2-.06.4-.14.58-.12.28-.3.54-.54.73-.24.2-.51.34-.82.39-.21.04-.39.03-.56-.01-.26-.06-.48-.21-.62-.41-.15-.2-.23-.46-.23-.76l.09-3.03Z"/>
        <path class="cls-1" d="M171.83,226.06v-.06c.02-.6-.09-1.15-.29-1.63-.31-.72-.84-1.28-1.52-1.62-.68-.34-1.52-.46-2.42-.3-.6.11-1.18.33-1.71.65-.79.47-1.47,1.14-1.96,1.91-.49.78-.79,1.67-.82,2.56l-.28,8.93c-.02.59.09,1.14.29,1.62.3.72.83,1.28,1.51,1.62.68.34,1.52.47,2.42.3.6-.1,1.18-.33,1.71-.64.79-.47,1.48-1.14,1.97-1.92.49-.77.8-1.66.82-2.55l.05-1.58c.02-.59-.09-1.14-.29-1.62-.31-.72-.84-1.28-1.52-1.62-.68-.35-1.52-.46-2.42-.3l-1.45.26.09-3.02c.01-.2.05-.4.13-.59.12-.28.31-.53.55-.73.24-.2.51-.34.82-.39.21-.04.39-.03.56,0,.26.06.47.21.62.41.14.2.23.46.22.76v.06c-.01.4-.19.79-.46,1.1-.14.15-.3.29-.47.39.18.04.38.05.59.01.84-.15,1.55-.96,1.58-1.79h0c.02-.74-.26-1.35-.73-1.74-.47-.41-1.13-.58-1.88-.44-.75.13-1.42.55-1.93,1.12-.5.57-.81,1.29-.84,2.03l-.13,4.25,2.68-.48c1.73-.31,3.08.83,3.03,2.54l-.05,1.58c-.05,1.71-1.49,3.36-3.22,3.67-1.73.31-3.08-.83-3.03-2.54l.28-8.93c.05-1.72,1.49-3.36,3.22-3.67,1.73-.31,3.08.82,3.03,2.54-.03.83.64,1.39,1.48,1.24.21-.04.41-.12.6-.23-.18-.04-.32-.12-.45-.22-.26-.21-.41-.54-.39-.95Z"/>
        <path class="cls-1" d="M152.34,226.99c.84-.18,1.52-.99,1.52-1.84,0-.21-.04-.4-.11-.57-.07.19-.18.37-.32.53-.26.31-.62.55-1.02.63,0,0-7.14,1.49-7.15,1.5-.21.04-.41.13-.59.24.18.04.33.11.46.21.26.21.42.54.41.93l-.03,8.66,4.34-.9c.2-.04.39-.04.56,0,.26.05.48.19.64.39.16.2.25.45.25.75v1.59c0,.2-.05.39-.12.58-.11.29-.3.55-.53.75-.24.2-.51.35-.81.41-.2.04-.39.04-.56,0-.26-.05-.48-.19-.64-.39-.15-.2-.24-.46-.24-.76,0-.4.17-.8.43-1.11.13-.16.28-.29.46-.4-.18-.04-.38-.04-.59,0-.83.18-1.5.98-1.53,1.81.01.72.31,1.31.78,1.69.49.38,1.16.54,1.89.39.74-.15,1.41-.59,1.89-1.18.48-.59.79-1.31.79-2.05v-1.58c0-.74-.29-1.35-.77-1.73-.48-.38-1.15-.54-1.89-.38l-3.1.65.03-7.66,5.56-1.16Z"/>
        <path class="cls-1" d="M152.28,233.73c-.69-.33-1.53-.42-2.42-.24l-1.45.3.02-4.33,3.97-.83c.4-.08.76.01,1.01.21.14.11.24.24.32.4.07-.2.12-.4.12-.62,0-.84-.67-1.37-1.51-1.2l-5.14,1.07-.02,6.79,2.68-.56c1.71-.35,3.1.75,3.1,2.46v1.58c-.01,1.71-1.41,3.39-3.12,3.75-1.69.35-3.06-.72-3.09-2.39,0-.83-.68-1.37-1.52-1.2-.21.04-.41.13-.59.24.18.04.33.11.46.21.26.21.42.54.41.93,0,.6.12,1.14.34,1.62.32.72.87,1.25,1.57,1.58.69.32,1.53.42,2.42.24.59-.13,1.17-.37,1.69-.69.78-.49,1.45-1.18,1.92-1.97.47-.79.75-1.69.75-2.58v-1.58c.01-.59-.11-1.14-.33-1.61-.33-.71-.87-1.25-1.57-1.58Z"/>
        <path class="cls-1" d="M138.4,244.54l-2.52-5.79c.66-.49,1.23-1.12,1.63-1.83.47-.8.74-1.72.74-2.63v-1.47c0-.6-.13-1.16-.35-1.64-.34-.72-.88-1.27-1.58-1.59-.69-.32-1.53-.41-2.42-.22,0,0-4.52,1-4.62,1.02-.21.05-.41.14-.59.25.17.04.33.11.46.21.26.21.42.54.43.94l.03,5.98c0,.41-.15.81-.42,1.13-.13.16-.29.3-.46.42.17.03.33.11.46.22.26.21.42.54.43.94l.03,5.98c0,.4-.15.81-.42,1.13-.13.16-.29.3-.46.42.18.04.38.04.59-.01.84-.19,1.51-1.02,1.51-1.87l-.03-5.91c0-.41-.17-.74-.43-.95-.13-.1-.28-.17-.45-.21.17-.11.33-.25.45-.41.26-.33.43-.73.43-1.14l-.03-6.2,3.1-.68c1.71-.38,3.1.72,3.11,2.47v1.47c.01,1.64-1.21,3.25-2.76,3.75l2.8,6.44h-.01s.01,0,.01,0c.33.78,1.38,1.25,2.22,1.06.21-.05.39-.13.55-.24-.2-.03-.4-.09-.58-.19-.37-.18-.67-.48-.83-.85Z"/>
        <path class="cls-1" d="M133.78,238.43l-2,.44s-.06.08-.1.12c-.26.32-.42.72-.42,1.13l.03,5.91c0,.85.69,1.4,1.52,1.21.22-.04.41-.13.59-.25-.17-.04-.33-.11-.46-.22-.26-.21-.42-.54-.43-.94l-.03-5.87.46-.1,2.33,5.36c.16.37.14.74-.01,1.04-.08.15-.19.29-.34.39.22.03.43.03.65-.02.83-.18,1.33-.99,1-1.77l-2.8-6.43Z"/>
        <path class="cls-1" d="M131.68,238.36s.07.06.1.07l2.14-.47c.74-.16,1.4-.61,1.88-1.21.48-.6.78-1.34.78-2.1v-1.47c0-.75-.31-1.36-.8-1.75-.48-.38-1.15-.54-1.89-.38l-2.67.59.02,5.76c0,.41.17.74.43.95ZM133.91,232.31c.2-.04.38-.04.56,0,.26.05.48.19.63.39.16.2.26.45.26.76v1.47c0,.21-.04.4-.11.6-.1.28-.29.56-.52.76-.23.21-.5.36-.8.43l-1.44.31-.02-4.4,1.44-.32Z"/>
        <path class="cls-1" d="M88.13,242.26c0,.21.05.4.12.57.07-.19.18-.37.31-.52.26-.32.63-.56,1.03-.64l1.43-.3-.02,4.45c0,.4-.17.79-.43,1.11-.13.16-.29.29-.46.4.18.04.33.11.46.21.26.21.42.53.42.93l-.02,6.09c0,.4-.17.8-.43,1.11-.13.16-.29.3-.47.41.18.04.38.04.59,0,.84-.18,1.52-.99,1.53-1.83l.02-6.02c0-.4-.16-.73-.42-.93-.13-.1-.29-.18-.46-.22.17-.11.33-.25.46-.41.26-.31.43-.71.43-1.11l.02-5.67-2.59.54c-.83.18-1.52,1-1.52,1.83Z"/>
        <path class="cls-1" d="M96.78,240.46c0-.84-.68-1.38-1.51-1.21l-2.59.54-.02,5.68c0,.4.17.72.42.93.13.1.29.18.46.21-.17.11-.33.25-.46.41-.25.31-.42.71-.43,1.1l-.02,6.03c0,.84.67,1.38,1.51,1.2.21-.04.41-.13.59-.25-.18-.04-.33-.11-.46-.21-.26-.21-.42-.53-.42-.93l.02-6.09c0-.4.17-.8.43-1.11.13-.16.28-.3.46-.41-.18-.04-.33-.11-.46-.21-.26-.21-.42-.53-.42-.93l.02-4.44,1.43-.3c.4-.08.76,0,1.02.21.13.1.24.24.31.39.08-.2.12-.4.12-.61Z"/>
        <path class="cls-1" d="M89.66,239.99l5.61-1.17c.84-.18,1.52-1,1.52-1.83,0-.21-.04-.4-.12-.57-.07.19-.18.36-.31.53-.26.31-.62.55-1.02.64l-5.74,1.2c-.4.08-.76,0-1.02-.21-.13-.1-.23-.24-.3-.39-.08.2-.13.41-.13.61,0,.84.68,1.38,1.52,1.21Z"/>
        <path class="cls-1" d="M110.83,242.86l1.97-.42c.73-.16,1.4-.6,1.89-1.19.48-.59.78-1.33.78-2.07v-1.46c0-.74-.29-1.35-.77-1.73-.49-.39-1.15-.55-1.89-.39l-2.49.53v5.71c0,.41.15.73.41.95.03.03.07.05.1.07ZM111.54,237.11l1.27-.27c.2-.04.39-.04.56,0,.26.06.48.19.63.4.16.2.25.45.24.76v1.46c0,.21-.04.4-.11.59-.11.28-.29.55-.53.76-.23.21-.5.35-.81.41l-1.27.27v-4.37Z"/>
        <path class="cls-1" d="M116.2,241.74c.06-.1.13-.21.19-.31.47-.8.75-1.7.75-2.6v-1.45c0-.6-.12-1.15-.33-1.63-.33-.72-.88-1.26-1.57-1.58-.69-.33-1.53-.43-2.42-.24,0,0-4.35.92-4.45.95-.21.05-.41.13-.59.24.18.04.33.12.46.22.25.21.42.54.42.93v5.94c0,.4-.17.8-.43,1.12-.13.16-.29.29-.47.41.18.04.33.11.46.21.25.21.42.54.42.94v4.48s0,1.46,0,1.46c0,.4-.16.79-.42,1.11-.13.16-.29.3-.47.41.18.04.38.04.59,0,.1-.02,4.81-1.02,4.81-1.02.59-.12,1.17-.37,1.68-.7.78-.5,1.44-1.19,1.9-1.98.47-.79.75-1.7.75-2.6v-1.46c0-.6-.12-1.14-.34-1.62-.22-.49-.55-.9-.95-1.2ZM116.25,246.29c0,1.73-1.39,3.43-3.11,3.79l-3.29.7v-2.92s0-3.24,0-3.24c0-.4-.16-.73-.42-.94-.13-.1-.28-.18-.46-.22.18-.11.33-.25.46-.41.27-.32.43-.72.43-1.12v-6.15s2.94-.62,2.94-.62c1.71-.37,3.1.74,3.1,2.46v1.46c0,1.26-.74,2.49-1.81,3.22,1.26.13,2.17,1.12,2.17,2.52v1.46Z"/>
        <path class="cls-1" d="M113.16,242.8l-.36.08-1.97.42s-.07.08-.1.12c-.26.32-.42.71-.42,1.12v3.24s0,2.48,0,2.48l2.85-.61c.74-.16,1.4-.6,1.89-1.18.48-.59.78-1.33.78-2.07v-1.46c0-.74-.29-1.35-.77-1.74-.49-.38-1.15-.54-1.89-.39ZM114.59,246.64c0,.21-.04.4-.11.59-.11.28-.29.55-.53.75-.23.21-.5.35-.81.42l-1.63.35v-4.37s1.27-.27,1.27-.27l.36-.08c.2-.04.39-.04.56,0,.26.06.48.19.64.4.15.2.25.45.24.76v1.45Z"/>
        <path class="cls-1" d="M83.7,245.74c.18.04.38.05.59.01.83-.15,1.53-.93,1.57-1.76,0-.72-.26-1.32-.73-1.71-.47-.4-1.14-.58-1.87-.44-.75.13-1.42.56-1.93,1.13-.5.57-.82,1.29-.85,2.03l-.1,3.14c-.01.39.14.73.4.94.13.11.28.19.45.23-.18.1-.33.24-.47.39-.27.3-.45.7-.46,1.1l-.1,3.14c-.02.73.26,1.35.73,1.74.48.39,1.14.57,1.88.44.74-.13,1.42-.55,1.92-1.13.5-.56.81-1.27.84-2,0-.82-.65-1.35-1.48-1.2-.21.04-.41.11-.6.23.17.04.32.12.45.22.26.21.4.54.39.94,0,.2-.05.4-.13.58-.12.28-.31.54-.55.74-.24.2-.51.33-.81.39-.21.04-.4.03-.57,0-.25-.07-.47-.21-.62-.41-.15-.21-.23-.45-.22-.76l.1-3.13c.01-.4.18-.79.46-1.1.14-.15.3-.29.47-.39-.17-.04-.32-.12-.45-.23-.26-.21-.4-.54-.39-.94l.1-3.13c0-.21.06-.4.13-.58.12-.28.31-.53.55-.73.24-.2.51-.33.82-.39.2-.04.38-.03.56,0,.26.06.48.21.62.41.15.21.23.46.22.76-.01.4-.18.79-.46,1.1-.14.15-.3.3-.47.39Z"/>
        <path class="cls-1" d="M86.31,243.89c-.03.84.64,1.39,1.48,1.24.2-.04.41-.12.6-.22-.17-.04-.33-.12-.45-.22-.25-.22-.4-.55-.39-.95.02-.6-.09-1.15-.29-1.62-.3-.72-.83-1.28-1.52-1.62-.68-.34-1.51-.47-2.41-.3-.6.11-1.18.34-1.72.65-.79.47-1.47,1.14-1.97,1.91-.49.78-.79,1.67-.82,2.56l-.1,3.13c-.01.4-.18.79-.46,1.1-.13.16-.3.29-.47.39.17.04.33.12.45.23.25.21.4.54.39.94l-.1,3.14c-.02.6.09,1.14.29,1.63.31.71.84,1.28,1.52,1.62s1.52.46,2.42.3c.59-.11,1.18-.33,1.7-.64.79-.48,1.47-1.14,1.97-1.91.49-.77.79-1.67.82-2.56.01-.4.18-.79.46-1.1.13-.15.3-.29.47-.39-.18-.05-.38-.05-.59-.01-.84.15-1.55.96-1.57,1.8h0c-.09,1.69-1.51,3.29-3.21,3.6-1.73.31-3.09-.83-3.03-2.54l.1-3.14c.01-.39-.14-.73-.4-.94-.13-.1-.28-.19-.45-.23.17-.1.33-.24.47-.39.27-.31.45-.7.46-1.1h0s.1-3.13.1-3.13c.05-1.72,1.49-3.36,3.23-3.67,1.7-.31,3.04.8,3.02,2.47h0Z"/>
        <path class="cls-1" d="M102.05,237.83c-.75.13-1.42.55-1.92,1.13-.5.57-.83,1.29-.85,2.03l-.1,3.14c0,.39.14.72.4.94.13.11.28.19.45.23-.18.11-.34.24-.47.39-.27.3-.44.7-.46,1.09l-.1,3.14c-.02.74.26,1.35.73,1.75.47.4,1.13.58,1.88.44.74-.13,1.42-.55,1.92-1.13.5-.57.82-1.29.85-2.03l.1-3.14c.01-.4-.14-.73-.4-.94-.13-.1-.28-.18-.45-.23.18-.11.34-.24.47-.39.27-.31.45-.7.46-1.1l.1-3.13c.02-.74-.26-1.35-.73-1.75-.47-.4-1.14-.58-1.88-.44ZM103.32,243.37c-.01.4-.18.79-.45,1.1-.14.16-.3.29-.47.39.17.04.32.12.45.23.25.21.4.54.39.94l-.1,3.14c0,.19-.05.39-.13.58-.12.28-.31.54-.55.73-.23.2-.51.34-.82.4-.21.03-.39.03-.56-.02-.26-.06-.48-.2-.62-.41-.15-.21-.23-.46-.22-.76l.1-3.14c.01-.39.19-.79.46-1.09.13-.15.29-.29.47-.39-.17-.04-.33-.12-.45-.22-.26-.22-.41-.55-.4-.95l.1-3.14c0-.2.06-.4.13-.58.12-.28.31-.53.55-.73.23-.2.51-.33.82-.39.2-.04.39-.04.56,0,.26.06.48.2.63.41.14.2.23.46.22.76l-.1,3.13Z"/>
        <path class="cls-1" d="M106.23,242.85l.1-3.13c.02-.6-.08-1.15-.29-1.63-.31-.72-.84-1.28-1.52-1.62-.68-.35-1.52-.46-2.42-.3-.6.11-1.18.33-1.71.65-.79.47-1.47,1.14-1.97,1.91-.49.77-.79,1.67-.82,2.56l-.1,3.13c-.01.4-.18.79-.46,1.1-.13.16-.29.29-.47.39.18.04.33.12.45.23.26.21.4.55.39.94l-.1,3.14c-.02.6.09,1.14.29,1.63.31.71.84,1.27,1.52,1.62.68.34,1.52.47,2.42.3.6-.11,1.18-.33,1.7-.65.8-.48,1.48-1.14,1.97-1.91.49-.78.79-1.67.82-2.56l.1-3.14c.01-.4.19-.79.46-1.1.14-.15.3-.29.47-.4-.17-.04-.32-.11-.45-.22-.25-.21-.41-.55-.39-.94ZM105.37,244.64c-.27.3-.45.7-.46,1.09l-.1,3.14c-.05,1.71-1.49,3.36-3.22,3.67-1.72.31-3.08-.83-3.03-2.54l.1-3.14c.01-.4-.14-.73-.4-.94-.13-.11-.28-.19-.45-.23.17-.11.33-.24.47-.39.28-.31.45-.7.46-1.1l.1-3.13c.05-1.72,1.5-3.35,3.22-3.67,1.72-.31,3.08.83,3.02,2.54l-.1,3.14c-.01.4.14.73.4.94.13.11.28.19.45.23-.18.1-.34.24-.47.39Z"/>
        <path class="cls-1" d="M125.66,247.44l-5.2,1.13-.03-6.19c0-.4-.17-.73-.43-.94-.13-.11-.28-.18-.46-.21.18-.12.33-.26.46-.42.26-.32.42-.72.42-1.13l-.03-6.19,5.2-1.14c.84-.19,1.51-1.03,1.51-1.88,0-.21-.04-.4-.12-.57-.07.19-.18.37-.31.53-.26.33-.62.57-1.02.66,0,0-6.68,1.46-6.78,1.48-.21.05-.41.14-.59.26.18.04.33.11.46.21.26.21.42.53.43.93l.02,5.97c0,.4-.16.8-.42,1.12-.13.16-.28.3-.46.41.18.04.33.11.46.22.26.2.42.54.43.94l.02,5.96c0,.4-.16.8-.42,1.13-.13.16-.28.3-.46.41.19.04.38.04.59,0,.1-.02,6.78-1.49,6.78-1.49.4-.08.76,0,1.02.2.13.11.24.24.31.4.08-.2.12-.41.12-.63,0-.85-.68-1.38-1.52-1.2Z"/>
        <path class="cls-1" d="M125.27,241.87c.13.1.24.24.31.4.08-.21.12-.42.12-.63,0-.85-.69-1.38-1.52-1.2l-2.8.61s-.07.08-.1.12c-.26.32-.41.72-.41,1.13l.02,5.74,4.76-1.04c.84-.19,1.51-1.03,1.51-1.87,0-.21-.04-.41-.12-.57-.07.19-.18.37-.31.53-.26.33-.62.57-1.02.65l-3.61.8-.02-4.39,2.16-.47c.4-.09.76,0,1.02.21Z"/>
        <path class="cls-1" d="M125.6,232.81l-4.76,1.04.02,5.75c0,.4.16.73.42.94.04.02.07.05.11.07l2.79-.62c.83-.18,1.51-1.02,1.51-1.86,0-.21-.04-.41-.12-.57-.07.19-.18.37-.31.53-.26.33-.62.56-1.02.65l-2.16.48-.02-4.39,3.61-.79c.4-.09.76,0,1.02.2.13.1.24.24.31.4.08-.21.12-.42.12-.63,0-.85-.68-1.39-1.52-1.2Z"/>
        <polygon class="cls-1" points="155.89 232.95 155.96 234.65 160.75 233.66 160.69 231.95 155.89 232.95"/>
        <path class="cls-1" d="M116.95,54.72c37.97,20.96,41.67-31.6,88.15-12.76-50.17-25.96-63.23,2.62-91.63-11.17.15,3.01,7.4,16.21,3.49,23.94Z"/>
        <path class="cls-1" d="M252.17,126.18c-.11-.02-.2-.07-.3-.14-.24-.21-.36-.54-.36-.99v-20.21c0-.66.29-1.4.79-2.02.26-.32.53-.58.78-.73.99-.61,1.52-1.75,1.33-2.9-.19-1.15-1.05-2.07-2.18-2.33-.16-.04-.27-.09-.35-.15-.31-.25-.37-.68-.37-1v-20.58c0-.66.29-1.4.81-2.06.23-.3.5-.54.78-.72.98-.61,1.5-1.76,1.3-2.9-.19-1.14-1.07-2.15-2.2-2.41-.5-.11-1.02-.17-1.55-.17s-1.09.06-1.64.18c-2.26.48-4.25,2.02-5.58,3.93-1.16-.94-2.56-1.41-4.15-1.6-.53-.07-1.05-.09-1.6.03-.02,0-.51.08-.54.09-.23.05-.34.06-.56.13-.15-.52-.09-.35-.27-.76-.45-1.04-1.48-1.69-2.61-1.69-.03,0-.06,0-.08,0-1.16.03-2.18.76-2.59,1.84-.13.34-.33.68-.59,1-.51.63-1.19,1.07-1.84,1.21l-19.39,4.15-5.21,1.05c-33.69,1.53-72.87,3.27-86.86-20.28,0,0-.02,0-.03,0,.33.76.72,1.51,1.08,2.28,6.97,15,38.71,23.15,50.16,25.29-4.45.95-10.33,2.19-14.74,3.13-17.74-7.03-31.66-14.67-36.6-30.69,0,0-.02,0-.03,0,2.25,16.87,16.56,28.05,28.98,40v19.46c0,.64-.28,1.34-.77,1.92-.27.33-.57.59-.87.78-.99.61-1.5,1.76-1.31,2.91.2,1.15,1.07,2.06,2.2,2.31.16.04.29.09.39.17.02.01.03.02.05.04.28.21.32.65.32.89v14.9l-8.09-12.64c1.68-1.54,3.12-3.31,4.23-5.21,1.89-3.15,2.93-6.77,2.93-10.21v-4.89c0-2.36-.49-4.66-1.42-6.68-1.41-2.99-3.73-5.31-6.7-6.7-1.93-.9-4.07-1.35-6.34-1.35-.25,0-.5.03-.75.04-11.27-18.57-11.82-26.55-12.87-35.74,0,0-.02,0-.03,0,.06,1.05.02,1.76-.06,2.81-.65,8.1-.51,16.7,1.1,35.18-3.45.73-6.46,1.37-6.66,1.41-.02,0-.04,0-.06.01-1.03.23-2.01.64-2.92,1.21-.98.62-1.49,1.78-1.28,2.93.21,1.15,1.1,2.05,2.24,2.28.13.03.26.08.36.16.23.18.34.49.34.91v19.91c0,.66-.27,1.34-.77,1.94-.01.01-.02.03-.04.04-.13.16-.29.32-.46.46-.2-.09-.41-.17-.63-.21-.1-.02-.25-.06-.35-.15-.29-.23-.35-.62-.35-.91v-10.61c0-2.39-.49-4.7-1.42-6.69-.42-.89-.92-1.71-1.49-2.47,5.35-17.66,9.75-30.65,12.42-48.21,0,0-.02,0-.03,0-3.71,17.05-13.93,27.23-28.34,43.21-2.05.52-4.04,1.37-5.93,2.56-2.99,1.91-5.54,4.55-7.38,7.64-1.13,1.93-1.94,3.96-2.41,6.02-.42-.53-1.02-.92-1.71-1.05-.06-.01-.18-.07-.34-.2-.42-.44-.66-1.16-.66-2,0-2.7-.45-5.24-1.31-7.59,29-21.86,39.6-27.97,47.98-48.58,0,0-.02,0-.03,0-6.28,13.51-16.14,24.61-55.23,39.72-.02-.01-.04-.02-.06-.04-2.1-1.15-4.54-1.76-7.04-1.76-1.35,0-2.72.17-4.08.51-2.55.63-5.01,1.82-7.33,3.55-3.23,2.4-5.99,5.73-7.99,9.65-2.01,4-3.07,8.36-3.07,12.61v17.8c0,1.08-.39,2.25-1.04,3.19-.34.48-.71.86-1.13,1.17-.88.66-1.31,1.77-1.09,2.85.22,1.08,1.03,1.94,2.1,2.21.16.04.34.14.54.3.4.41.63,1.11.63,1.95v15.27c0,2.95.49,5.69,1.46,8.15,1.48,3.71,3.96,6.59,7.17,8.34,2.15,1.16,4.52,1.75,7.05,1.75,1.34,0,2.72-.17,4.08-.51,2.56-.63,5.02-1.82,7.35-3.55.92-.7,1.79-1.46,2.63-2.29,1.32,1.4,3.23,2.24,5.44,2.24h0c.57,0,1.15-.06,1.73-.17,1.1-.21,2.15-.61,3.11-1.19,1.02-.61,1.56-1.79,1.35-2.96-.21-1.17-1.13-2.09-2.3-2.31-.15-.03-.36-.08-.49-.18-.02-.01-.03-.02-.05-.04-.26-.19-.39-.46-.39-.83v-13.62c.01-.31.02-.62.02-.92v-19.6c.39.42.89.72,1.47.85.17.04.31.1.43.19.28.22.32.65.32.88v10.63c0,2.36.48,4.61,1.43,6.69,1.39,2.98,3.7,5.29,6.69,6.69,1.95.91,4.1,1.37,6.37,1.37h0c1.2,0,2.43-.13,3.65-.4,2.32-.5,4.55-1.42,6.63-2.75,3-1.91,5.55-4.55,7.39-7.63,1.9-3.21,2.9-6.74,2.9-10.18v-10.62c0-.63.29-1.36.76-1.93.16-.19.33-.37.51-.52.2.09.42.17.65.22.1.02.23.08.35.18.27.21.32.59.32.87v19.94c0,.64-.28,1.35-.79,1.97-.22.27-.52.53-.91.79-.96.64-1.45,1.79-1.23,2.92.17.9.76,1.64,1.56,2.03-.57.32-1.04.83-1.28,1.47-.13.35-.32.66-.58.97-.52.62-1.17,1.04-1.86,1.18,0,0-22.62,4.83-22.95,4.9-1.08.23-2.08.64-2.98,1.23-.96.63-1.45,1.77-1.25,2.9.2,1.13,1.06,2.03,2.18,2.28.17.04.32.11.44.2.27.21.33.6.33.89v19.92c0,.63-.28,1.34-.77,1.95-.26.3-.57.57-.92.8-.97.63-1.46,1.78-1.25,2.91s1.08,2.03,2.2,2.28c.14.03.28.1.42.2.26.21.31.6.31.88v19.92c0,.64-.28,1.34-.77,1.93-.26.31-.56.58-.89.79-.98.63-1.49,1.79-1.27,2.94.22,1.15,1.11,2.05,2.26,2.27.47.09.97.14,1.47.14.55,0,1.11-.06,1.67-.17,2.31-.49,4.35-1.93,5.7-3.83,1.18.96,2.7,1.51,4.4,1.51.54,0,1.1-.06,1.66-.18.97-.21,1.94-.6,2.89-1.18,1.01-.61,1.54-1.78,1.33-2.94-.2-1.16-1.1-2.08-2.25-2.31-.12-.02-.22-.07-.29-.13-.04-.03-.07-.06-.11-.09-.19-.15-.3-.45-.3-.84v-17.23l5.08-1.08c.14-.03.28-.05.41-.05.27,0,.5.07.7.23.06.04.11.13.16.23.46,1.03,1.48,1.68,2.6,1.68.02,0,.05,0,.07,0,1.15-.03,2.17-.74,2.59-1.81.4-1.02.61-2.08.61-3.13,0-2.3-.98-4.27-2.56-5.53,1.58-1.7,2.56-3.93,2.56-6.22,0-1.12-.24-2.21-.69-3.15-.48-1-1.48-1.63-2.58-1.63-.04,0-.08,0-.11,0-1.14.05-2.15.77-2.56,1.84-.13.34-.32.68-.57.99-.53.62-1.19,1.03-1.85,1.18l-3.87.83v-8.82l9.94-2.12c.16-.03.3-.05.44-.05.26,0,.48.06.65.18.13.12.19.21.23.3.47,1.02,1.48,1.67,2.6,1.67.04,0,.07,0,.11,0,1.16-.05,2.18-.79,2.57-1.88.26-.72.43-1.41.51-2.08v11.95c0,.64-.28,1.34-.77,1.92-.27.33-.57.59-.87.78-.99.61-1.5,1.76-1.31,2.91.2,1.15,1.07,2.06,2.2,2.31.16.04.29.09.39.17.02.01.03.02.05.04.28.21.32.65.32.89v19.92c0,.63-.29,1.35-.79,1.95-.25.3-.53.56-.85.75-.99.62-1.51,1.78-1.3,2.94.21,1.15,1.1,2.06,2.25,2.29.49.1.99.15,1.5.15.54,0,1.1-.06,1.61-.16.35-.07,17.71-3.77,22.99-4.89.16-.03.31-.05.45-.05.28,0,.51.06.63.16.08.06.19.17.25.32.47,1.01,1.48,1.66,2.59,1.66.03,0,.06,0,.08,0,1.14-.03,2.16-.75,2.58-1.81.4-1.01.61-2.09.61-3.14,0-2.29-.98-4.26-2.55-5.52,1.03-1.11,1.81-2.46,2.22-3.91.16.49.34.97.54,1.44,0,.01.01.03.02.04,1.4,3.07,3.71,5.45,6.68,6.9,1.95.93,4.09,1.4,6.36,1.4,1.22,0,2.46-.14,3.68-.41,2.34-.51,4.59-1.48,6.68-2.85,3-1.97,5.54-4.69,7.35-7.86,1.89-3.31,2.89-6.93,2.89-10.47,0-2.29-.42-4.45-1.25-6.45-.82-1.92-1.99-3.59-3.45-4.96l-4.22-3.96c-.23-.21-.35-.64-.34-1.13.03-.34.11-.7.26-1.06.46-1.13.15-2.42-.76-3.22-.18-.16-.38-.3-.59-.4,1.18-.72,2.2-1.7,2.99-2.85,1.18.98,2.7,1.55,4.4,1.55h0c.56,0,1.13-.06,1.7-.19,1.04-.23,2.03-.66,2.96-1.27.96-.64,1.45-1.78,1.23-2.92-.21-1.13-1.09-2.02-2.21-2.26-.15-.03-.23-.08-.25-.09-.03-.03-.07-.06-.1-.09-.15-.12-.26-.34-.32-.61.06,0,.12.01.18.01.03,0,.06,0,.09,0,1.15-.04,2.16-.76,2.58-1.83.14-.36.33-.69.58-.99.51-.62,1.18-1.05,1.86-1.19l1.36-.29v11.53c0,.62-.28,1.32-.77,1.94-.27.31-.56.57-.9.78-.98.63-1.49,1.79-1.28,2.94s1.1,2.05,2.25,2.28c.13.03.26.08.38.17.27.22.33.61.33.9v20.83c0,.62-.29,1.34-.77,1.93-.27.32-.56.58-.88.78-1,.62-1.51,1.79-1.29,2.95.22,1.16,1.12,2.06,2.27,2.28.48.09.98.14,1.47.14.55,0,1.12-.06,1.67-.18,2.31-.49,4.33-1.93,5.68-3.83,1.18.96,2.7,1.51,4.39,1.51.55,0,1.12-.06,1.68-.18,1.05-.22,2.05-.64,2.97-1.24.97-.63,1.47-1.79,1.25-2.94-.22-1.14-1.11-2.04-2.25-2.27-.1-.02-.23-.06-.3-.11-.02-.01-.03-.03-.05-.04-.23-.18-.35-.49-.35-.89v-20.83c0-.63.29-1.34.8-1.95.26-.32.55-.58.83-.75.99-.61,1.52-1.76,1.33-2.91-.19-1.15-1.06-2.07-2.2-2.32-.25-.06-.34-.12-.36-.13-.02-.01-.03-.03-.05-.04-.29-.23-.35-.62-.35-.91v-12.73l2.53-.55c.15-.03.3-.05.44-.05.29,0,.52.07.69.2.1.08.18.19.24.31.48.99,1.48,1.62,2.58,1.62.04,0,.07,0,.11,0,1.14-.04,2.14-.76,2.55-1.82.4-1.02.6-2.06.6-3.1,0-2.3-.98-4.27-2.56-5.54,1.57-1.69,2.56-3.92,2.56-6.22,0-1.09-.22-2.14-.66-3.11-.46-1.03-1.48-1.68-2.6-1.68-.03,0-.06,0-.08,0-1.15.03-2.17.76-2.59,1.83-.13.33-.33.66-.58.98-.51.62-1.19,1.06-1.84,1.2l-19.44,4.12c-.15.03-.3.05-.44.05-.19,0-.45-.03-.63-.18-.1-.08-.18-.18-.24-.32-.47-1.01-1.48-1.64-2.59-1.64-.03,0-.07,0-.1,0-.45.02-.88.14-1.26.35.03-.28.05-.56.05-.84,0-2.29-.98-4.26-2.56-5.52,1.57-1.7,2.56-3.93,2.56-6.23,0-1.11-.24-2.19-.68-3.13-.47-1-1.48-1.63-2.58-1.63-.04,0-.07,0-.11,0-1.14.04-2.15.76-2.56,1.83-.13.34-.33.68-.57.96-.01.02-.03.03-.04.05-.48.6-1.13,1.02-1.77,1.15-.02,0-8.81,1.89-8.81,1.89v-8.83l5.07-1.08c.14-.03.28-.05.4-.05.27,0,.5.07.7.23.08.06.14.14.19.26.47,1.01,1.48,1.66,2.59,1.66.03,0,.06,0,.1,0,1.15-.04,2.16-.76,2.57-1.83.4-1.04.6-2.09.6-3.13,0-2.29-.98-4.26-2.56-5.52,1.58-1.69,2.56-3.91,2.56-6.21,0-1.12-.24-2.21-.69-3.15-.48-.99-1.48-1.62-2.58-1.62-.04,0-.07,0-.11,0-1.14.04-2.14.75-2.55,1.81-.14.35-.34.68-.61,1.01-.5.61-1.14,1.02-1.83,1.17l-3.87.83v-8.81l9.95-2.12c.16-.03.3-.05.44-.05.19,0,.45.03.64.19.09.08.18.18.23.3.47,1.01,1.48,1.66,2.59,1.66.03,0,.07,0,.1,0,.62-.02,1.2-.25,1.67-.62.42.23.89.37,1.39.37.03,0,.06,0,.09,0,1.15-.04,2.17-.76,2.58-1.84.14-.37.34-.71.58-1.01.51-.62,1.18-1.06,1.86-1.2l1.36-.29v11.67c0,.64-.28,1.36-.78,1.99-.27.32-.57.58-.9.79-.98.63-1.48,1.79-1.26,2.93.21,1.14,1.1,2.04,2.24,2.27.13.03.25.08.37.17.22.18.34.51.34.93v20.12c0,.64-.29,1.38-.78,1.97-.27.33-.56.59-.89.79-.99.63-1.5,1.79-1.28,2.95.22,1.15,1.12,2.05,2.27,2.28.49.09.98.14,1.47.14.56,0,1.12-.06,1.68-.18,2.31-.5,4.33-1.95,5.68-3.86,1.18.96,2.69,1.53,4.39,1.53h0c.55,0,1.12-.06,1.68-.18,1.05-.23,2.06-.65,2.97-1.25.97-.64,1.46-1.79,1.24-2.93-.22-1.14-1.1-2.03-2.24-2.26-.09-.02-.22-.05-.29-.11-.02-.01-.03-.03-.05-.04-.24-.19-.36-.52-.36-.93v-20.12c0-.65.29-1.37.81-2,.26-.32.55-.59.83-.76.99-.61,1.51-1.76,1.32-2.91-.19-1.15-1.06-2.06-2.19-2.32-.25-.05-.33-.12-.35-.13-.02-.01-.03-.03-.05-.04-.24-.19-.36-.52-.36-.95v-12.89l2.54-.55,7.36-1.46s1.41-.31,1.41-.31v11.67c0,.64-.28,1.36-.78,1.99-.27.32-.57.58-.9.79-.98.63-1.48,1.79-1.26,2.93.21,1.14,1.1,2.04,2.24,2.28.14.03.26.09.36.16.23.18.35.52.35.95v20.12c0,.64-.29,1.38-.78,1.97-.27.33-.56.59-.89.8-.99.63-1.5,1.79-1.28,2.95.22,1.15,1.12,2.05,2.27,2.28.49.09.98.14,1.47.14.56,0,1.12-.06,1.68-.18,2.31-.5,4.33-1.95,5.68-3.86,1.18.96,2.69,1.53,4.39,1.53.55,0,1.12-.06,1.68-.18,1.06-.23,2.06-.65,2.97-1.25.97-.64,1.46-1.79,1.24-2.93-.22-1.14-1.1-2.03-2.24-2.26-.09-.02-.22-.05-.29-.11-.02-.01-.03-.03-.05-.04-.24-.19-.36-.52-.36-.93v-20.12c0-.65.29-1.37.81-2,.26-.32.55-.59.84-.76.99-.61,1.51-1.76,1.32-2.91-.19-1.15-1.06-2.06-2.19-2.32-.25-.06-.33-.11-.35-.13-.02-.01-.03-.03-.05-.04-.24-.19-.36-.52-.36-.95v-12.89l2.54-.55c.15-.03.3-.05.43-.05.28,0,.51.07.68.2.1.08.19.19.25.32.48,1,1.48,1.63,2.58,1.63.04,0,.07,0,.11,0,1.01-.04,1.91-.61,2.39-1.48v10.51c0,.67-.28,1.41-.8,2.06-.23.29-.52.56-.86.79-.95.64-1.43,1.78-1.22,2.9.21,1.12,1.07,2.01,2.19,2.26.17.04.29.1.35.15.22.2.35.55.35.99v20.19c0,.65-.29,1.4-.8,2.03-.24.31-.54.58-.86.8-.96.64-1.44,1.8-1.22,2.93.22,1.13,1.11,2.02,2.24,2.25.47.1.96.14,1.45.14.58,0,1.16-.07,1.7-.19,2.24-.49,4.22-1.92,5.55-3.83,1.16.94,2.63,1.48,4.29,1.48h0c.55,0,1.12-.06,1.65-.18,1.01-.21,1.99-.62,2.92-1.22.98-.63,1.48-1.78,1.27-2.93-.21-1.14-1.09-2.04-2.23-2.28ZM68.85,131.1c-.97,1.38-1.58,3.14-1.58,4.86v21.08c0,.29,0,.58-.02.87v13.68c0,1.35.62,2.45,1.58,3.15.48.36,1.05.59,1.7.71-.68.41-1.41.69-2.2.84-3.11.61-5.62-1.2-5.62-4.06v-.87c-1.51,2.2-3.33,4.13-5.35,5.67-1.95,1.45-4.09,2.51-6.31,3.06-3.33.83-6.49.42-9.08-.98-2.58-1.4-4.64-3.78-5.88-6.88-.82-2.08-1.25-4.5-1.25-7.09v-15.27c0-1.76-.61-3.18-1.58-4.08-.51-.43-1.09-.77-1.74-.93.65-.48,1.22-1.08,1.74-1.79.97-1.38,1.58-3.12,1.58-4.86v-17.8c0-3.91,1.02-7.84,2.77-11.33,1.75-3.45,4.2-6.47,7.13-8.64,1.93-1.44,4.08-2.52,6.31-3.07,3.34-.84,6.49-.42,9.05.98,2.6,1.41,4.66,3.8,5.88,6.91.82,2.08,1.29,4.46,1.29,7.07,0,1.73.61,3.18,1.58,4.11.48.42,1.06.77,1.72.9-.68.5-1.43.9-2.22,1.09-3.12.78-5.69-1.56-5.69-5.24h-.02c-.12-7.34-5.27-12-11.6-10.42-6.42,1.6-11.62,8.99-11.62,16.51v17.79c0,1.75-.61,3.47-1.58,4.86-.5.71-1.08,1.3-1.72,1.79.64.16,1.22.49,1.72.94.97.89,1.58,2.33,1.58,4.08v15.27c0,7.52,5.2,12.31,11.62,10.71,6.41-1.6,11.61-8.98,11.61-16.51v-22.05l-5.94,1.48c-3.12.78-5.67-1.58-5.67-5.26,0-.93.15-1.81.44-2.7.27.69.68,1.27,1.16,1.74.98.89,2.33,1.28,3.83.9,0,0,11.82-2.95,11.87-2.96.79-.19,1.55-.19,2.22-.04-.66.49-1.24,1.12-1.72,1.79ZM55.53,111.71c-.58-.88-1.42-1.47-2.37-1.7-.66-.17-1.37-.16-2.11,0-1.16.31-2.15.95-3.03,1.86-.85.88-1.56,2.05-1.95,3.29-.29.79-.43,1.65-.43,2.55v17.78c0,1.76.6,3.19,1.58,4.11.5.41,1.08.74,1.71.91-.63.49-1.21,1.1-1.71,1.8-.99,1.38-1.58,3.11-1.58,4.87v15.25c0,1.35.34,2.44.92,3.32.6.88,1.43,1.46,2.37,1.72.66.14,1.37.15,2.12-.03,1.13-.28,2.14-.93,3-1.83.89-.9,1.58-2.06,1.98-3.29.27-.82.42-1.67.42-2.57v-14.77c-1.5.39-2.82,1.41-3.8,2.81-.49.68-.89,1.48-1.16,2.3-.29-.71-.44-1.56-.44-2.5,0-3.68,2.55-7.28,5.67-8.05l4.33-1.09v20.15c0,3.24-1.13,6.44-2.93,9.02-1.82,2.58-4.32,4.52-7.07,5.2-2.77.69-5.27,0-7.09-1.67-1.8-1.68-2.91-4.33-2.91-7.55v-15.28c0-1.75.6-3.48,1.56-4.86.5-.69,1.08-1.31,1.74-1.81-.66-.15-1.24-.46-1.74-.91-.96-.91-1.56-2.34-1.56-4.11v-17.77c0-3.25,1.11-6.44,2.91-9.03,1.82-2.57,4.32-4.51,7.09-5.2,2.76-.68,5.25.02,7.07,1.69,1.77,1.65,2.88,4.26,2.92,7.43-.07,3.63-2.58,7.13-5.67,7.89-.79.21-1.53.19-2.21.04.64-.47,1.22-1.11,1.71-1.79.98-1.4,1.58-3.11,1.58-4.87,0-1.33-.34-2.43-.92-3.32ZM51.48,152.95s.06,0,.09,0c.78-.03,1.5-.37,2.01-.92v7.72c0,.57-.09,1.11-.28,1.68-.27.82-.73,1.6-1.31,2.18-.01.01-.03.03-.04.04-.35.37-.91.85-1.59,1.02-.16.04-.32.06-.47.06-.1,0-.2,0-.3-.02-.27-.09-.5-.28-.66-.52-.3-.45-.44-1.02-.44-1.74v-12.3c.09.36.21.7.34,1.03.44,1.08,1.49,1.78,2.65,1.78ZM51.55,139.4s0,0,.01,0c0,0,0,0,0,0,0,0,0-.01,0-.02ZM71.57,132.31s-.02.03-.04.04c-.07.09-.16.17-.24.25.15-.19.3-.37.45-.53-.06.08-.11.16-.18.23ZM71.2,126.54c-.53-.12-1.09-.18-1.65-.18-.62,0-1.25.08-1.88.23-.02,0-.05.01-.07.02-.42.11-7.28,1.82-11.83,2.95-.15.04-.29.06-.43.06-.29,0-.53-.09-.75-.28-.19-.19-.35-.43-.45-.7-.43-1.09-1.49-1.81-2.66-1.81-.03,0-.06,0-.09,0-1.21.04-2.26.83-2.63,1.98-.1.32-.19.65-.27.97v-12.04c0-.57.09-1.1.26-1.56.02-.04.03-.09.05-.14.25-.79.71-1.57,1.29-2.17.52-.54,1.05-.89,1.63-1.06.16-.03.3-.05.43-.05.11,0,.2.01.29.03.01,0,.03,0,.04.01.26.06.48.23.65.49.3.46.45,1.04.45,1.75,0,1.11-.38,2.25-1.04,3.21-.35.49-.73.9-1.08,1.15-.9.67-1.33,1.8-1.09,2.9.24,1.1,1.09,1.96,2.19,2.19.54.12,1.09.18,1.63.18h0c.63,0,1.27-.08,1.89-.24,2.59-.64,4.82-2.51,6.23-4.95,1.28,1.23,2.96,1.97,4.87,1.97.62,0,1.25-.08,1.85-.23,1.12-.27,2.21-.79,3.26-1.57.03-.02.05-.05.08-.07,0,.06,0,.12,0,.18v7.32c-.33-.26-.71-.45-1.14-.55ZM105.98,129.39c-.88,1.06-1.43,2.41-1.43,3.76v10.62c0,3.01-.92,6.05-2.5,8.73-1.59,2.66-3.8,4.97-6.47,6.68-1.75,1.12-3.68,1.94-5.69,2.37-3.03.65-5.87.32-8.21-.77-2.33-1.09-4.19-2.93-5.3-5.31-.74-1.62-1.17-3.46-1.17-5.48v-10.63c0-1.34-.54-2.45-1.43-3.14-.44-.34-.96-.59-1.56-.73.6-.37,1.12-.83,1.56-1.38.89-1.07,1.43-2.41,1.43-3.76v-10.61c0-3.03.93-6.07,2.5-8.74,1.59-2.67,3.83-5,6.45-6.68,1.77-1.12,3.72-1.94,5.73-2.37,3.01-.64,5.87-.33,8.21.77,2.33,1.07,4.18,2.91,5.3,5.31.74,1.6,1.15,3.46,1.15,5.48v10.61c0,1.35.55,2.45,1.43,3.15.45.36.97.59,1.56.71-.58.38-1.11.86-1.56,1.4ZM119.92,127.03c.12-.13.22-.26.34-.39l6.77-1.44,13.06,21.05c1.11,2.61-.6,5.27-3.42,5.87-.73.17-1.46.16-2.19.05.5-.35.88-.79,1.15-1.3.54-.99.61-2.21.06-3.45l-11.47-17.47-1.57.33v19.55c0,1.34.54,2.45,1.43,3.15.45.36.99.6,1.56.72-.63.39-1.28.68-2.01.82-2.84.61-5.14-1.21-5.14-4.06v-19.69c0-1.35.56-2.68,1.44-3.75ZM118.48,121.77v-19.19l9.06-1.93c2.5-.53,4.75.01,6.38,1.3,1.65,1.3,2.67,3.32,2.67,5.83v4.89c0,2.51-1.02,4.98-2.67,6.98-1.63,1.97-3.87,3.46-6.38,3.99l-7.27,1.54c-.13-.06-.24-.15-.35-.25-.88-.69-1.44-1.79-1.44-3.16ZM122.53,157.52c.55,0,1.11-.06,1.66-.18,1-.2,1.95-.59,2.93-1.19.99-.61,1.52-1.76,1.32-2.91-.19-1.15-1.06-2.07-2.2-2.32-.16-.04-.31-.1-.41-.18-.28-.22-.34-.61-.34-.9v-12.71l7.64,11.64c.1.29.09.55-.03.76-.07.14-.15.23-.26.3-.97.67-1.42,1.86-1.15,3,.27,1.14,1.21,2.01,2.37,2.18.5.07.97.11,1.42.11.62,0,1.22-.07,1.8-.2,1.09-.23,2.08-.68,2.94-1.29-.13.18-.24.38-.33.59-.13.34-.35.7-.62,1.03-.48.6-1.14,1.03-1.81,1.17-7.7,1.64-22.41,4.76-22.91,4.86-.03,0-.06.01-.09.02-.52.12-1.03.28-1.53.5-.09-.28-.19-.56-.31-.84-.18-.41-.45-.76-.78-1.03.21-.03.42-.06.62-.1,2.3-.49,4.32-1.93,5.67-3.83,1.18.96,2.69,1.52,4.39,1.52ZM105.25,203.33c-.25-.55-.6-1-1.03-1.33-.9-.7-2.11-1-3.46-.7l-7.32,1.55v19.55c0,1.34.55,2.45,1.44,3.13.43.36.96.61,1.56.73-.63.38-1.3.68-2.01.83-2.83.59-5.13-1.2-5.13-4.02v-19.71c0-1.36.54-2.69,1.43-3.76.11-.13.23-.27.35-.39l9.47-2.02c2.82-.58,5.13,1.22,5.13,4.06,0,.7-.15,1.42-.41,2.08ZM110.14,177.85c-.25-.54-.6-.98-1.05-1.35-.89-.69-2.09-.98-3.46-.69l-12.2,2.6v14.66l7.32-1.56c1.35-.29,2.56-1.09,3.46-2.15.44-.55.79-1.14,1.03-1.79.26.55.41,1.21.41,1.92,0,2.84-2.3,5.61-5.13,6.24l-9.47,2.02c-.12-.08-.23-.17-.35-.27-.89-.69-1.43-1.8-1.43-3.15v-19.21l16.13-3.43c2.83-.6,5.13,1.23,5.13,4.07,0,.7-.16,1.4-.41,2.08ZM105.43,170.24l-17.62,3.74v20.68c0,1.34-.53,2.68-1.43,3.75-.44.55-.96,1.01-1.54,1.38.58.13,1.1.38,1.54.73.9.69,1.43,1.8,1.43,3.15v19.71c0,2.82-2.3,5.61-5.14,6.21-.7.15-1.39.15-2,.03.58-.37,1.1-.83,1.56-1.38.89-1.07,1.43-2.41,1.43-3.76v-19.92c0-1.36-.54-2.46-1.43-3.15-.45-.34-.97-.6-1.56-.73.58-.38,1.1-.83,1.56-1.36.89-1.08,1.43-2.43,1.43-3.78v-19.92c0-1.35-.54-2.45-1.43-3.15-.45-.35-.97-.6-1.56-.73.61-.4,1.29-.67,2-.82.35-.07,22.96-4.9,22.96-4.9,1.37-.28,2.58-1.08,3.46-2.15.45-.54.8-1.13,1.05-1.78.25.57.41,1.21.41,1.91,0,2.85-2.3,5.63-5.13,6.24ZM113.21,174.77c-.25-1.86-1.15-3.44-2.49-4.51.7-.75,1.28-1.61,1.71-2.53.03,0,.05.02.08.02.2.04.27.1.29.12.02.02.04.03.06.05.08.07.34.27.34.88v5.98ZM142.69,219.89c-.25-.53-.61-.98-1.05-1.34-.87-.69-2.1-.96-3.45-.69,0,0-22.61,4.82-22.96,4.89-.71.15-1.38.15-2.01.02.6-.37,1.12-.84,1.56-1.38.89-1.07,1.43-2.42,1.43-3.76v-19.92c0-1.36-.54-2.47-1.43-3.15-.44-.35-.96-.6-1.56-.73.6-.37,1.12-.85,1.56-1.38.89-1.06,1.43-2.4,1.43-3.75v-19.94c0-1.34-.54-2.43-1.43-3.13-.44-.37-.96-.6-1.56-.72.63-.39,1.3-.69,2.01-.84.35-.07,22.96-4.87,22.96-4.87,1.36-.29,2.58-1.09,3.45-2.18.44-.53.8-1.14,1.05-1.77.26.56.41,1.21.41,1.91,0,2.84-2.28,5.63-5.13,6.24l-17.6,3.74v20.67c0,1.36-.55,2.71-1.44,3.77-.44.53-.96.99-1.56,1.38.6.12,1.12.37,1.56.72.89.7,1.44,1.79,1.44,3.13v20.68l17.6-3.72c2.84-.61,5.13,1.19,5.13,4.03,0,.7-.15,1.42-.41,2.09ZM133.3,184.67c1.35-.29,2.56-1.07,3.45-2.15.45-.55.8-1.14,1.05-1.77.26.55.41,1.2.41,1.91,0,2.82-2.3,5.61-5.13,6.21l-9.46,2.03c-.12-.08-.24-.16-.37-.24-.87-.69-1.41-1.8-1.41-3.14v-19.22l16.13-3.43c2.84-.6,5.13,1.2,5.13,4.04,0,.7-.15,1.42-.41,2.1-.25-.53-.61-.99-1.05-1.34-.87-.7-2.1-.98-3.45-.7l-12.22,2.6v14.66l7.33-1.57ZM137.97,212.3l-16.13,3.42v-19.19c0-1.36.54-2.69,1.41-3.76.12-.13.25-.27.35-.39l9.48-2.02c2.83-.59,5.13,1.21,5.13,4.04,0,.7-.15,1.42-.41,2.1-.25-.53-.6-.98-1.05-1.33-.88-.69-2.09-1-3.45-.7l-7.33,1.56v14.68l12.22-2.62c1.36-.27,2.58-1.08,3.45-2.17.44-.52.8-1.13,1.05-1.77.26.55.41,1.2.41,1.91,0,2.83-2.28,5.63-5.13,6.24ZM143,196.62c-.97.62-1.48,1.76-1.29,2.89.13.74.54,1.39,1.12,1.82-.09,0-.19-.02-.28-.02-.04,0-.07,0-.11,0-1.14.04-2.15.76-2.56,1.83-.13.34-.33.68-.57.96-.01.02-.03.03-.04.05-.48.6-1.13,1.02-1.77,1.15-.02,0-8.81,1.89-8.81,1.89v-8.83l5.07-1.08c.14-.03.28-.05.4-.05.27,0,.5.07.7.23.08.06.14.14.19.26.47,1.01,1.48,1.66,2.59,1.66.03,0,.06,0,.1,0,1.15-.04,2.16-.76,2.57-1.83.4-1.04.6-2.09.6-3.13,0-2.29-.98-4.26-2.56-5.52,1.57-1.69,2.56-3.92,2.56-6.21,0-1.12-.24-2.21-.69-3.16-.48-.99-1.48-1.62-2.58-1.62-.04,0-.07,0-.11,0-1.14.04-2.14.75-2.55,1.81-.14.35-.34.69-.6,1.01-.5.61-1.14,1.02-1.83,1.17l-3.87.83v-8.81l9.95-2.12c.16-.03.3-.05.44-.05.19,0,.45.03.64.19.09.08.18.18.23.3.47,1.01,1.48,1.66,2.59,1.66.03,0,.07,0,.1,0,.78-.03,1.5-.38,2.01-.94.03,2.2.43,4.28,1.22,6.18,0,.01.01.03.02.04.83,1.93,1.99,3.61,3.45,4.95,0,0,4.24,4,4.26,4.01.22.2.34.6.31,1.1-.01.32-.1.66-.24,1-.48,1.13-.18,2.43.73,3.24.19.17.39.31.6.42-1.18.72-2.2,1.7-3,2.86-1.18-.98-2.7-1.55-4.39-1.55-.55,0-1.12.06-1.66.18-1.02.21-2.01.63-2.95,1.22ZM171.33,167.28c-.03,2.93-2.3,5.76-5.13,6.38-.71.16-1.38.16-2,.03.59-.39,1.11-.87,1.56-1.43.88-1.1,1.43-2.49,1.43-3.87,0-1.05-.31-1.93-.83-2.63-.51-.69-1.28-1.18-2.15-1.36-.58-.12-1.21-.12-1.91.01-1.03.24-1.94.75-2.71,1.47-.8.72-1.43,1.63-1.78,2.61-.25.66-.39,1.35-.39,2.04s.11,1.24.33,1.77c.22.53.54.96.93,1.35h0s4.28,3.99,4.28,3.99c.89.85,2.11,1.14,3.35.93.63-.1,1.26-.33,1.86-.67-.26.65-.42,1.31-.47,1.98-.06,1.3.35,2.54,1.24,3.37l4.22,3.96c1.16,1.09,2.11,2.44,2.78,4,.66,1.58,1.02,3.37,1.02,5.33,0,3.13-.93,6.28-2.52,9.05-1.58,2.76-3.79,5.15-6.44,6.89-1.76,1.16-3.7,2.01-5.73,2.45-3.01.67-5.87.34-8.2-.78-2.33-1.13-4.18-3.02-5.32-5.51-.73-1.65-1.13-3.56-1.13-5.66v-.12c-.04-1.33-.58-2.42-1.43-3.1-.47-.37-.96-.63-1.56-.77.61-.39,1.29-.69,2.01-.84,2.82-.62,5.12,1.25,5.12,4.19.15,5.85,4.79,9.54,10.5,8.3,5.83-1.29,10.53-7.2,10.53-13.19,0-2.8-1.05-5.13-2.74-6.69l-4.24-3.97c-.89-.85-1.3-2.07-1.22-3.37.01-.65.17-1.32.45-1.98-.6.34-1.24.57-1.87.67-1.24.21-2.45-.1-3.34-.91l-4.26-3.99c-1.47-1.35-2.34-3.35-2.34-5.76,0-2.58.99-5.14,2.63-7.18,1.66-2.07,3.9-3.61,6.39-4.16,2.51-.55,4.78,0,6.41,1.35,1.57,1.28,2.56,3.3,2.62,5.76v.05ZM164.2,168.42c0,.68-.3,1.46-.8,2.08-.27.33-.57.61-.92.84-.44.29-.78.7-1,1.16,0,0-1.01-.95-1.03-.96-.12-.14-.17-.24-.2-.32-.05-.13-.11-.31-.11-.66,0-.32.07-.66.21-1.03,0-.02.02-.04.02-.07.18-.52.53-1.02.98-1.42.02-.02.03-.03.05-.04.42-.39.86-.64,1.35-.76.15-.03.28-.04.41-.04.12,0,.23.01.31.03.19.04.35.13.43.25,0,.01.02.02.02.03.17.23.26.53.26.92ZM179.94,170.22c-.61.41-1.28.7-2,.86-2.84.62-5.14-1.24-5.14-4.17-.13-5.87-4.79-9.56-10.52-8.3-5.79,1.27-10.51,7.16-10.51,13.15,0,2.82,1.05,5.14,2.74,6.7l4.24,3.97c.89.85,1.3,2.08,1.24,3.39-.03.65-.2,1.32-.47,1.97.6-.34,1.24-.58,1.87-.66,1.22-.21,2.46.1,3.34.92l4.25,4.01c1.47,1.33,2.37,3.31,2.37,5.72,0,2.59-1.02,5.15-2.65,7.21-1.63,2.04-3.9,3.6-6.41,4.14-2.49.55-4.73-.01-6.39-1.33-1.57-1.29-2.56-3.33-2.63-5.77h0v-.08c.04-2.91,2.33-5.77,5.14-6.38.7-.15,1.38-.15,1.99-.03-.58.38-1.11.88-1.54,1.44-.89,1.1-1.43,2.47-1.43,3.87h-.01c.01,1.07.32,1.94.83,2.63.52.69,1.28,1.17,2.15,1.37.58.12,1.22.11,1.89-.02,1.03-.23,1.95-.74,2.75-1.48.77-.71,1.4-1.65,1.76-2.6.25-.67.38-1.35.38-2.07,0-.65-.12-1.24-.34-1.76-.22-.51-.54-.97-.93-1.34h-.01s-4.25-3.99-4.25-3.99c-.89-.85-2.11-1.16-3.36-.94-.63.1-1.25.32-1.86.67.28-.65.44-1.33.47-1.99.07-1.3-.34-2.54-1.25-3.36l-4.21-3.97c-1.17-1.08-2.11-2.44-2.78-3.99-.66-1.6-1.01-3.4-1.01-5.34,0-3.12.92-6.27,2.5-9.02,1.57-2.78,3.8-5.18,6.45-6.91,1.75-1.15,3.7-2,5.69-2.45,3.03-.66,5.89-.32,8.21.79,2.33,1.13,4.2,3.02,5.3,5.51.74,1.65,1.17,3.57,1.17,5.64v.15c.04,1.32.57,2.41,1.43,3.09.42.37.96.62,1.54.74ZM160.95,198.83s.03-.03.04-.05c.25-.33.54-.6.84-.79.46-.3.81-.71,1.03-1.18,0,0,.96.9.98.91.11.1.2.23.25.36.07.18.11.4.11.65,0,.35-.06.69-.2,1.06-.22.55-.6,1.11-1.02,1.5-.44.41-.91.67-1.41.79-.16.03-.31.04-.45.04-.09,0-.17,0-.24-.02-.2-.05-.37-.15-.48-.29-.14-.2-.22-.45-.25-.76,0-.05,0-.11,0-.16,0-.69.29-1.45.79-2.07ZM208.48,157.73c-.25-.52-.61-.97-1.05-1.32-.89-.69-2.1-.98-3.46-.71l-4.82,1.04v15.04c0,1.36.57,2.46,1.44,3.15.44.36.96.58,1.56.72-.6.37-1.12.85-1.56,1.38-.88,1.06-1.44,2.41-1.44,3.76v20.83c0,1.34.57,2.45,1.44,3.14.44.36.96.59,1.56.71-.63.41-1.29.69-2.01.84-2.84.61-5.14-1.2-5.14-4.05v-20.62c0-1.33.57-2.67,1.43-3.74.45-.53.97-1.02,1.56-1.38-.59-.12-1.11-.37-1.56-.72-.86-.7-1.43-1.79-1.43-3.14v-19.21l8.75-1.87c2.83-.59,5.14,1.22,5.14,4.07,0,.7-.15,1.4-.41,2.06ZM180.05,148.04c.25.53.6.98,1.04,1.33.89.7,2.11.98,3.46.69l19.42-4.12c1.36-.29,2.58-1.12,3.45-2.18.44-.54.8-1.13,1.05-1.78.26.57.41,1.22.41,1.93,0,2.83-2.3,5.62-5.13,6.22l-18.97,4.04c-2.84.6-5.15-1.22-5.15-4.06,0-.7.16-1.4.42-2.07ZM184.76,155.64l8.77-1.86v19.2c0,1.35-.54,2.7-1.43,3.76-.44.54-.97,1-1.56,1.38.58.13,1.12.38,1.56.73.89.69,1.43,1.8,1.43,3.15v20.6c0,2.84-2.3,5.61-5.14,6.22-.72.15-1.38.15-2.01.03.6-.37,1.12-.84,1.57-1.38.88-1.06,1.43-2.41,1.43-3.75v-20.83c0-1.36-.55-2.46-1.43-3.15-.45-.35-.97-.6-1.57-.72.6-.38,1.12-.84,1.57-1.37.88-1.08,1.43-2.42,1.43-3.76v-15.07l-4.82,1.04c-1.35.28-2.58,1.09-3.46,2.17-.44.53-.79,1.13-1.04,1.78-.26-.57-.42-1.22-.42-1.92,0-2.82,2.3-5.61,5.12-6.22ZM176.69,149.32c-.03.28-.05.55-.05.82,0,2.3.98,4.27,2.56,5.54-.66.71-1.22,1.52-1.64,2.38-1.39-2.39-3.42-4.28-5.95-5.52-1.96-.93-4.11-1.4-6.4-1.4-1.2,0-2.43.13-3.66.4-2.28.51-4.58,1.49-6.64,2.85-3.02,1.98-5.57,4.71-7.36,7.88-.85,1.48-1.52,3.03-2,4.61-.4-1.41-1.19-2.6-2.27-3.47,1.57-1.69,2.55-3.93,2.55-6.23,0-1.09-.23-2.17-.68-3.12-.47-1.01-1.48-1.65-2.59-1.65-.03,0-.06,0-.09,0-.42.01-.82.12-1.18.3.48-.5.89-1.05,1.21-1.67.02-.03.03-.06.04-.09,1.55.94,3.4,1.5,5.3,1.5.22,0,.44,0,.66-.02.49-.02.95-.07,1.46-.15.12-.02.45-.07,21.46-4.71.15-.03.3-.04.43-.04.28,0,.51.06.63.16.08.06.19.17.25.32.47,1.01,1.48,1.66,2.59,1.66.03,0,.06,0,.08,0,.45-.01.89-.14,1.27-.34ZM170.45,123.4c-.25-.53-.6-.98-1.05-1.33-.88-.69-2.09-1-3.45-.7l-7.33,1.56v14.68l12.22-2.62c1.36-.27,2.58-1.08,3.45-2.17.44-.52.8-1.13,1.05-1.77.26.55.41,1.2.41,1.91,0,2.83-2.28,5.63-5.13,6.24l-16.13,3.42v-19.19c0-1.36.54-2.69,1.41-3.76.12-.13.25-.27.35-.39l9.48-2.02c2.83-.59,5.13,1.21,5.13,4.04,0,.7-.15,1.42-.41,2.1ZM175.34,97.92c-.25-.53-.61-.99-1.05-1.34-.87-.7-2.1-.98-3.45-.7l-12.22,2.6v14.66l7.33-1.57c1.35-.29,2.56-1.07,3.45-2.15.45-.55.8-1.14,1.05-1.77.26.55.41,1.2.41,1.91,0,2.82-2.3,5.61-5.13,6.21l-9.46,2.03c-.12-.08-.24-.16-.37-.24-.87-.69-1.41-1.8-1.41-3.14v-19.22l16.13-3.43c2.84-.6,5.13,1.2,5.13,4.04,0,.7-.15,1.42-.41,2.1ZM170.62,90.31l-17.6,3.74v20.67c0,1.36-.55,2.71-1.44,3.77-.44.53-.96.99-1.56,1.38.6.12,1.12.37,1.56.72.89.7,1.44,1.79,1.44,3.13v20.68l17.6-3.72c2.84-.61,5.13,1.19,5.13,4.03,0,.7-.15,1.42-.41,2.09-.25-.53-.61-.98-1.05-1.34-.87-.69-2.1-.96-3.45-.69,0,0-20.95,4.63-21.3,4.68-.48.07-.86.1-1.2.12-2.67.2-5.66-1.29-6.68-3.66h-.04s.04-.01.04-.01l-13.06-21.08c5.28-1.66,9.43-7.01,9.43-12.46v-4.9c0-5.81-4.7-9.5-10.5-8.27l-10.51,2.23v20.67c0,1.36-.57,2.69-1.46,3.78-.42.53-.95.99-1.53,1.37.58.12,1.11.38,1.53.7.89.7,1.46,1.81,1.46,3.17v19.7c-.02,2.84-2.3,5.61-5.14,6.22-.71.15-1.4.15-2.01.03.58-.39,1.12-.84,1.56-1.38.89-1.08,1.43-2.42,1.43-3.76v-19.94c0-1.34-.54-2.44-1.43-3.13-.44-.35-.97-.61-1.56-.72.58-.37,1.12-.84,1.56-1.38.89-1.07,1.43-2.4,1.43-3.76v-19.91c0-1.35-.54-2.45-1.43-3.15-.44-.35-.97-.6-1.56-.72.61-.39,1.29-.68,2.01-.84.34-.07,15.65-3.32,15.65-3.32,3.02-.64,5.87-.32,8.2.76,2.35,1.1,4.18,2.93,5.32,5.33.74,1.6,1.15,3.46,1.15,5.46v4.89c0,3.02-.93,6.09-2.53,8.75-1.37,2.36-3.3,4.45-5.55,6.07l12.11,18.9s.73,1.1,1.93,1.98c.43-.82.7-1.73.7-2.63v-19.92c0-1.36-.54-2.47-1.43-3.15-.44-.35-.96-.6-1.56-.73.6-.37,1.12-.85,1.56-1.38.89-1.06,1.43-2.4,1.43-3.75v-19.94c0-1.34-.54-2.43-1.43-3.13-.44-.37-.96-.6-1.56-.72.63-.39,1.3-.69,2.01-.84.35-.07,22.96-4.87,22.96-4.87,1.36-.29,2.58-1.09,3.45-2.18.44-.53.8-1.14,1.05-1.77.26.56.41,1.21.41,1.91,0,2.84-2.28,5.63-5.13,6.24ZM191.97,106.95c0,1.36-.54,2.73-1.43,3.8-.44.54-.97,1.01-1.56,1.39.58.13,1.12.38,1.56.74.89.7,1.43,1.81,1.43,3.18v19.89c0,2.87-2.3,5.67-5.14,6.28-.71.15-1.38.15-2.01.03.6-.38,1.12-.85,1.57-1.4.88-1.07,1.43-2.43,1.43-3.79v-20.12c0-1.37-.55-2.49-1.43-3.18-.45-.35-.97-.6-1.57-.73.6-.38,1.12-.85,1.57-1.38.88-1.09,1.43-2.44,1.43-3.8v-15.22l-4.82,1.05c-1.35.28-2.58,1.1-3.46,2.19-.44.54-.79,1.14-1.04,1.79-.26-.57-.42-1.23-.42-1.94,0-2.85,2.3-5.67,5.12-6.29l8.77-1.88v19.39ZM218.77,101.31c0,1.36-.54,2.73-1.43,3.8-.44.54-.97,1.01-1.56,1.39.58.13,1.12.38,1.56.74.89.7,1.43,1.81,1.43,3.18v19.89c0,2.87-2.3,5.67-5.14,6.28-.72.15-1.38.15-2.01.03.6-.38,1.12-.85,1.57-1.4.88-1.07,1.43-2.43,1.43-3.79v-20.12c0-1.37-.55-2.49-1.43-3.18-.45-.35-.97-.6-1.57-.73.6-.38,1.12-.85,1.57-1.38.88-1.09,1.43-2.44,1.43-3.8v-15.22l-4.82,1.05-7.39,1.46-4.82,1.05v15.19c0,1.37.57,2.48,1.44,3.18.44.36.96.59,1.56.72-.6.37-1.12.86-1.56,1.4-.88,1.07-1.44,2.43-1.44,3.8v20.12c0,1.36.57,2.47,1.44,3.17.44.36.96.6,1.56.72-.63.41-1.29.69-2.01.85-2.84.61-5.14-1.21-5.14-4.09v-19.91c0-1.34.57-2.7,1.43-3.77.45-.54.97-1.03,1.56-1.4-.59-.12-1.11-.38-1.56-.72-.86-.71-1.43-1.81-1.43-3.17v-19.4l8.75-1.89,7.81-1.55,8.77-1.88v19.39ZM233.73,85.91c-.25-.52-.61-.98-1.05-1.33-.89-.7-2.1-.99-3.46-.71l-4.82,1.05v15.19c0,1.37.57,2.48,1.44,3.18.44.36.96.59,1.56.72-.6.37-1.12.86-1.56,1.4-.88,1.07-1.44,2.43-1.44,3.8v20.12c0,1.36.57,2.47,1.44,3.17.44.36.96.6,1.56.72-.63.41-1.29.69-2.01.85-2.84.61-5.14-1.21-5.14-4.09v-19.91c0-1.34.57-2.7,1.43-3.77.45-.54.97-1.03,1.56-1.4-.59-.12-1.11-.38-1.56-.72-.86-.71-1.43-1.81-1.43-3.17v-19.4l8.75-1.89c2.83-.6,5.14,1.24,5.14,4.11,0,.7-.15,1.41-.41,2.08ZM229,78.24l-18.97,4.08-7.83,1.56-18.97,4.08c-2.84.61-5.15-1.23-5.15-4.1,0-.71.16-1.42.42-2.1.25.54.6.99,1.04,1.34.89.71,2.11.99,3.46.7l19.42-4.16,7.38-1.48,19.42-4.16c1.36-.3,2.58-1.13,3.45-2.2.44-.55.8-1.14,1.05-1.8.26.58.41,1.23.41,1.95,0,2.85-2.3,5.67-5.13,6.29ZM243.15,76.56v20.35c0,1.37-.54,2.74-1.4,3.82-.41.54-.94,1.01-1.53,1.4.59.12,1.11.38,1.53.73.86.71,1.4,1.82,1.4,3.2v19.95c-.01,2.91-2.25,5.72-5.02,6.32-.7.16-1.37.16-1.97.04.57-.38,1.1-.87,1.53-1.42.86-1.07,1.4-2.43,1.4-3.79v-20.19c0-1.38-.54-2.49-1.4-3.21-.43-.34-.95-.59-1.53-.72.57-.38,1.1-.86,1.53-1.41.86-1.08,1.4-2.43,1.4-3.81v-20.6c0-1.35-.54-2.46-1.4-3.18-.43-.36-.95-.6-1.53-.71.48-.49,1.23-.89,1.93-1.06,2.77-.59,5.05,1.43,5.06,4.29h0ZM249.63,129.79c-2.78.61-5.03-1.21-5.03-4.09h0v-19.96c0-1.38.54-2.74,1.4-3.81.44-.54.96-1.04,1.52-1.41-.57-.13-1.08-.36-1.52-.72-.86-.71-1.4-1.83-1.4-3.21v-20.35h0c0-2.89,2.25-5.72,5.03-6.32.7-.15,1.37-.15,1.97-.01-.58.36-1.09.84-1.52,1.39-.87,1.09-1.41,2.45-1.41,3.82v20.58c0,1.38.54,2.49,1.41,3.21.43.35.94.59,1.52.73-.58.36-1.09.85-1.52,1.39-.87,1.07-1.41,2.45-1.41,3.8v20.21c0,1.38.54,2.48,1.41,3.2.43.34.94.6,1.52.72-.6.38-1.27.68-1.97.83Z"/>
        <path class="cls-1" d="M130.26,118.07c.77-.69,1.41-1.59,1.76-2.53.25-.64.41-1.29.41-1.98v-4.89c0-1.03-.32-1.88-.86-2.55-.53-.68-1.27-1.16-2.14-1.32-.6-.13-1.21-.13-1.89.01l-4.89,1.03v14.66l4.89-1.02c1.02-.25,1.94-.72,2.72-1.42ZM125.49,117.01v-8.83l2.64-.56c.14-.03.27-.05.39-.05.1,0,.2.01.31.03.03,0,.05.01.08.02.06.01.23.04.39.25.01.02.02.03.04.05.09.12.22.32.22.75v4.89c0,.27-.07.57-.23.99-.18.48-.54,1-.98,1.39-.42.38-.9.63-1.45.77l-1.4.29Z"/>
        <path class="cls-1" d="M91.78,111.73c-.58-.13-1.21-.13-1.89.03-1.02.21-1.95.7-2.72,1.39-.8.7-1.41,1.58-1.79,2.53-.23.63-.38,1.3-.38,1.98v10.62c0,1.35.55,2.45,1.44,3.17.42.35.96.58,1.54.7-.58.37-1.12.86-1.54,1.38-.89,1.05-1.44,2.41-1.44,3.75v10.63c.02,1.04.29,1.88.83,2.55.53.69,1.28,1.15,2.15,1.31.59.13,1.21.13,1.91,0,1.03-.21,1.95-.73,2.72-1.42.79-.68,1.41-1.58,1.78-2.53.25-.63.38-1.31.38-1.97v-10.63c0-1.34-.54-2.45-1.41-3.14-.45-.35-.99-.6-1.56-.73.57-.38,1.1-.83,1.56-1.38.87-1.06,1.41-2.4,1.41-3.76v-10.61c0-1.02-.31-1.88-.81-2.55-.54-.68-1.3-1.14-2.17-1.32ZM91.9,135.23v10.63c0,.3-.06.63-.19.95-.2.52-.55,1.03-.97,1.39-.01.01-.03.02-.04.04-.44.4-.91.65-1.38.75-.17.03-.32.05-.45.05-.11,0-.21,0-.3-.03-.03,0-.06-.01-.09-.02-.17-.03-.3-.11-.4-.24,0-.01-.02-.03-.03-.04-.05-.07-.2-.25-.21-.8v-10.6c0-.63.29-1.34.76-1.9.02-.02.03-.04.05-.06.23-.29.54-.57.86-.77.32-.21.59-.47.8-.77.25.15.53.27.82.33.16.04.32.11.45.2.27.23.31.65.31.88ZM91.9,126.22c0,.65-.28,1.36-.76,1.94-.24.29-.56.57-.94.82-.3.2-.56.45-.76.74-.26-.16-.56-.28-.87-.34-.2-.04-.31-.1-.36-.15-.24-.19-.37-.51-.37-.93v-10.62c0-.28.06-.61.19-.96.22-.54.57-1.02,1.02-1.42.42-.38.9-.63,1.39-.73.04,0,.07-.02.11-.02.13-.03.26-.05.36-.05.08,0,.15,0,.22.02.02,0,.04,0,.06.01.21.04.37.13.49.27.14.2.21.47.21.8v10.61Z"/>
        <path class="cls-1" d="M100.38,125.03v-10.63c0-5.8-4.7-9.49-10.5-8.27-5.8,1.24-10.51,6.93-10.51,12.74v10.61c0,1.36-.54,2.69-1.44,3.76-.44.54-.98,1-1.54,1.38.57.11,1.11.37,1.54.72.9.69,1.44,1.8,1.44,3.14v10.63c0,5.79,4.72,9.5,10.51,8.29,5.79-1.24,10.5-6.95,10.5-12.75v-10.63c0-1.34.56-2.69,1.44-3.75.44-.53.96-1,1.56-1.38-.6-.13-1.12-.37-1.56-.72-.89-.69-1.44-1.8-1.44-3.14ZM98.93,125.32c0,1.37-.55,2.7-1.44,3.77-.44.55-.96,1-1.56,1.38.6.13,1.12.38,1.56.72.89.69,1.44,1.8,1.44,3.15v10.62c0,2.49-1.02,4.95-2.65,6.95-1.64,1.99-3.9,3.48-6.39,4.01-2.51.53-4.75,0-6.39-1.3-1.65-1.3-2.66-3.34-2.66-5.83v-10.62c.01-1.35.57-2.69,1.44-3.75.44-.53.97-1,1.56-1.38-.59-.13-1.12-.37-1.56-.72-.88-.7-1.43-1.79-1.44-3.13v-10.63c0-2.51,1.02-4.99,2.66-6.97,1.65-2,3.89-3.48,6.39-4.02,2.49-.53,4.75.01,6.39,1.3,1.63,1.28,2.65,3.34,2.65,5.84v10.6Z"/>
      </g>
    </g>
  </g>
</svg>