<?xml version="1.0" encoding="UTF-8"?>
<svg id="Layer_1" xmlns="http://www.w3.org/2000/svg" version="1.1" viewBox="0 0 346.03 353.96">
  <!-- Generator: Adobe Illustrator 29.4.0, SVG Export Plug-In . SVG Version: 2.1.0 Build 152)  -->
  <defs>
    <style>
      .st0 {
        fill: #fff;
      }

      .st1 {
        fill: #cf1f25;
      }
    </style>
  </defs>
  <path class="st0" d="M225.31,319.88c.1-.27.07-2.47.07-2.47l2.74-.5-.07,2.75c0,.85-.15,2.29-1.66,2.81-.41.14-2.44.49-2.8.37.64-.07,1.64-1.58,1.71-2.97Z"/>
  <path class="st0" d="M68.71,329.43c-1.14.21-2.18.85-2.95,1.73-.77.87-1.27,1.98-1.3,3.12l-.15,4.81c-.01.61.22,1.1.61,1.43.19.17.43.28.7.35-.27.16-.52.37-.73.6-.41.47-.68,1.07-.7,1.68l-.15,4.81c-.04,1.13.4,2.07,1.12,2.68.73.61,1.73.88,2.88.68,1.13-.21,2.18-.85,2.95-1.72.77-.88,1.26-1.98,1.3-3.11l.15-4.81c.02-.61-.22-1.12-.61-1.45-.19-.16-.43-.28-.7-.35.28-.16.52-.36.73-.6.42-.47.69-1.07.71-1.69l.15-4.8c.04-1.13-.4-2.08-1.12-2.68-.73-.61-1.74-.89-2.87-.68ZM70.65,337.93c-.02.62-.28,1.21-.69,1.68-.21.24-.46.44-.72.6.26.07.49.19.69.35.39.33.61.83.6,1.44l-.15,4.81c0,.3-.08.6-.2.89-.18.43-.47.83-.84,1.12-.36.3-.78.52-1.25.61-.32.05-.6.04-.86-.02-.39-.08-.73-.31-.96-.62-.23-.31-.35-.7-.34-1.17l.15-4.81c.02-.6.29-1.21.71-1.68.2-.23.45-.44.72-.6-.26-.07-.5-.18-.69-.34-.39-.33-.63-.84-.61-1.45l.15-4.81c0-.31.09-.61.2-.89.19-.43.47-.82.85-1.12.36-.3.79-.51,1.25-.59.31-.07.6-.06.86.01.39.09.73.31.96.63.22.31.35.7.33,1.17l-.15,4.8ZM75.71,338.57c-.39-.33-.62-.84-.6-1.45l.15-4.8c.03-.91-.13-1.76-.44-2.5-.47-1.1-1.29-1.96-2.32-2.48-1.05-.53-2.33-.71-3.71-.46-.91.16-1.81.51-2.62.99-1.21.72-2.26,1.74-3.01,2.93-.75,1.19-1.21,2.55-1.26,3.92l-.15,4.8c-.02.61-.28,1.21-.7,1.68-.2.24-.45.44-.72.6.27.07.5.19.69.35.39.33.62.84.6,1.44l-.15,4.81c-.03.91.14,1.75.45,2.5.47,1.09,1.28,1.95,2.32,2.48,1.05.53,2.33.72,3.71.46.91-.17,1.8-.51,2.61-.99,1.23-.73,2.27-1.75,3.02-2.93.76-1.19,1.21-2.56,1.26-3.92l.15-4.81c.02-.61.29-1.22.7-1.68.21-.23.46-.45.72-.61-.26-.06-.5-.18-.69-.34ZM73.79,339.86c-.42.47-.69,1.07-.71,1.68l-.15,4.81c-.08,2.62-2.29,5.14-4.93,5.62-2.64.47-4.72-1.28-4.64-3.9l.15-4.81c.02-.61-.21-1.12-.61-1.44-.19-.16-.43-.29-.69-.35.26-.17.51-.37.72-.6.42-.47.69-1.07.71-1.68l.15-4.8c.08-2.63,2.3-5.14,4.94-5.62,2.64-.47,4.72,1.27,4.63,3.89l-.15,4.81c-.02.61.22,1.12.61,1.44.19.17.43.28.7.35-.28.16-.52.37-.73.6Z"/>
  <path class="st0" d="M181.86,323.87l9.02-2.14.08,4.05c.03,1.31-.99,2.61-2.27,2.92-.32.08-.62.08-.9.02.26-.17.49-.39.69-.64.39-.5.62-1.13.61-1.74h0s-.05-2.24-.05-2.24l-8.74,2.07-.06-2.92,8.13-19.36c.28-.69.29-1.26.08-1.62-.11-.18-.27-.3-.48-.36.33-.2.67-.35.99-.42,1.28-.31,2.05.58,1.45,2.04l-8.55,20.37ZM193.31,316.29c-.01-.63.23-1.24.61-1.75.2-.26.43-.48.7-.65-.28-.05-.59-.05-.91.03-1.27.31-2.3,1.61-2.27,2.91h0s.18,8.79.18,8.79h0c.03,1.31,1.09,2.12,2.36,1.82.32-.08.62-.22.9-.4-.27-.05-.51-.16-.72-.3-.4-.32-.66-.83-.68-1.45l-.18-8.99ZM195.59,300.07c-.31.19-.62.43-.92.71-.58.55-1.08,1.23-1.37,1.92l-5.3,12.61c.13-.05.28-.1.42-.14,1.28-.3,2.34.51,2.36,1.82l.08,4.05-7.95,1.9s8.35-19.87,8.43-20.01c.71-1.32,2.27-2.58,3.43-2.85.32-.08.6-.08.82-.01ZM187.85,315.67l-1.94,4.63,3.05-.72-.05-2.25h0c-.01-.62-.27-1.12-.68-1.44-.11-.09-.24-.16-.38-.22Z"/>
  <path class="st0" d="M260.5,289.04c-1.14.24-2.16.9-2.9,1.8-.74.89-1.2,2.01-1.2,3.14l-.02,13.63c0,1.12.46,2.04,1.19,2.62.75.59,1.76.83,2.9.59,1.13-.24,2.15-.91,2.89-1.81.74-.89,1.21-2.01,1.21-3.13l.02-13.62c0-1.13-.46-2.05-1.2-2.63-.74-.58-1.76-.82-2.89-.58ZM262.7,306.26c0,.31-.07.61-.18.89-.17.44-.46.83-.81,1.14-.35.31-.77.54-1.23.63-.31.07-.6.07-.87.01-.39-.08-.73-.29-.97-.59-.24-.3-.38-.69-.37-1.15l.02-13.62c0-.3.06-.61.17-.89.17-.43.46-.83.81-1.15.36-.3.77-.53,1.24-.63.3-.06.59-.07.86,0,.4.08.74.29.98.59.23.31.37.69.37,1.15l-.02,13.62ZM266.61,289.25c-.5-1.08-1.34-1.9-2.4-2.4-1.06-.5-2.35-.63-3.71-.35-.92.19-1.79.56-2.59,1.06-1.19.75-2.2,1.8-2.93,3-.71,1.2-1.13,2.57-1.13,3.93l-.02,13.62c0,.9.18,1.74.51,2.46.51,1.09,1.34,1.92,2.4,2.4,1.05.49,2.34.64,3.72.34.91-.18,1.79-.55,2.59-1.05,1.19-.75,2.2-1.8,2.92-3.01.71-1.21,1.13-2.57,1.13-3.92l.02-13.62c0-.91-.18-1.75-.52-2.47ZM265.24,305.73c0,2.61-2.14,5.18-4.77,5.73-2.63.55-4.76-1.11-4.75-3.73l.02-13.62c0-2.61,2.13-5.18,4.77-5.74,2.63-.55,4.76,1.12,4.76,3.74l-.02,13.62Z"/>
  <path class="st0" d="M240.09,316.02l9.05-2.08c1.27-.29,2.32.53,2.34,1.83,0,.33-.06.65-.16.96-.12-.24-.28-.44-.48-.61-.4-.31-.96-.44-1.57-.3,0,0-11.32,2.6-11.47,2.64-.33.08-.63.08-.91.02.26-.17.5-.39.69-.64.4-.5.64-1.12.64-1.74l-.06-4.48c-.01-.86.13-1.74.42-2.57.29-.83.71-1.62,1.24-2.33h0s6.42-8.96,6.42-8.96c.18-.24.32-.51.42-.78.09-.27.14-.56.14-.85,0-.48-.15-.87-.39-1.17-.25-.3-.59-.51-.99-.59-.26-.05-.55-.05-.85.02-.47.11-.88.35-1.23.66-.34.33-.63.75-.78,1.18-.11.29-.17.59-.17.9,0,.62.26,1.13.67,1.45.21.15.45.27.71.31-.27.18-.58.32-.9.39-1.27.29-2.33-.51-2.35-1.8,0-1.11.45-2.22,1.15-3.12.73-.93,1.74-1.62,2.87-1.88,1.13-.26,2.15-.03,2.9.55.75.58,1.22,1.51,1.24,2.66.01,1.07-.37,2.14-1.01,3.03l-6.44,8.95c-.75,1.03-1.2,2.27-1.19,3.51l.07,4.83ZM251.41,310.37c0-.32-.07-.62-.19-.88-.11.29-.27.58-.46.82-.39.5-.94.88-1.55,1.02l-6.61,1.52-.03-2.25c0-.3.04-.58.13-.85.09-.28.23-.54.42-.78h0s6.43-8.96,6.43-8.96c.52-.7.94-1.49,1.22-2.33.29-.83.44-1.7.43-2.57-.01-.93-.21-1.77-.55-2.51-.52-1.1-1.38-1.92-2.44-2.41-1.07-.48-2.36-.61-3.72-.3-.91.21-1.79.6-2.57,1.13-1.19.79-2.18,1.86-2.89,3.1-.7,1.23-1.09,2.64-1.07,4.03v.05c0,.61-.24,1.19-.63,1.68-.19.25-.44.46-.7.64.29.05.59.05.92-.02,1.27-.3,2.31-1.6,2.29-2.89.02-2.63,2.09-5.21,4.67-5.8,2.62-.6,4.77,1.08,4.81,3.74.02,1.24-.45,2.49-1.19,3.52l-6.43,8.95c-.65.9-1.04,1.96-1.03,3.03l.06,4.15,8.38-1.93c1.28-.3,2.31-1.59,2.29-2.89Z"/>
  <path class="st0" d="M272.81,308.92l9.05-2.08c1.27-.29,2.32.53,2.34,1.83,0,.33-.06.65-.16.96-.12-.24-.28-.44-.48-.61-.4-.31-.96-.44-1.57-.3,0,0-11.32,2.6-11.47,2.64-.33.08-.63.08-.91.02.26-.17.5-.39.69-.64.4-.5.64-1.12.64-1.74l-.06-4.48c-.01-.86.13-1.74.42-2.57.29-.83.71-1.62,1.24-2.33h0s6.42-8.96,6.42-8.96c.18-.24.32-.51.42-.78.09-.27.14-.56.14-.85,0-.48-.15-.87-.39-1.17-.25-.3-.59-.51-.99-.59-.26-.05-.55-.05-.85.02-.47.11-.88.35-1.23.66-.34.33-.63.75-.78,1.18-.11.29-.17.59-.17.9,0,.62.26,1.13.67,1.45.21.15.45.27.71.31-.27.18-.58.32-.9.39-1.27.29-2.33-.51-2.35-1.8,0-1.11.45-2.22,1.15-3.12.73-.93,1.74-1.62,2.87-1.88,1.13-.26,2.15-.03,2.9.55.75.58,1.22,1.51,1.24,2.66.01,1.07-.37,2.14-1.01,3.03l-6.44,8.95c-.75,1.03-1.2,2.27-1.19,3.51l.07,4.83ZM284.12,303.27c0-.32-.07-.62-.19-.88-.12.29-.27.58-.46.82-.39.5-.94.88-1.55,1.02l-6.61,1.52-.03-2.25c0-.3.04-.58.13-.85.09-.28.23-.54.42-.78h0s6.43-8.96,6.43-8.96c.52-.7.94-1.49,1.22-2.33.29-.83.44-1.7.43-2.57-.01-.93-.21-1.77-.55-2.51-.52-1.1-1.38-1.92-2.44-2.41-1.07-.48-2.36-.61-3.72-.3-.91.21-1.79.6-2.57,1.13-1.19.79-2.18,1.86-2.89,3.1-.7,1.23-1.09,2.64-1.07,4.03v.05c0,.61-.24,1.19-.63,1.68-.19.25-.44.46-.7.64.29.05.59.05.92-.02,1.27-.3,2.31-1.6,2.29-2.89.02-2.63,2.09-5.21,4.67-5.8,2.62-.6,4.77,1.08,4.81,3.74.02,1.24-.45,2.49-1.19,3.52l-6.43,8.95c-.65.9-1.04,1.96-1.03,3.03l.06,4.15,8.38-1.93c1.28-.3,2.31-1.59,2.29-2.89Z"/>
  <path class="st0" d="M221.42,312.86v2.43c0,1.36-.43,2.75-1.15,3.95-.72,1.2-1.74,2.26-2.94,3.01-.79.5-1.68.87-2.59,1.06-1.37.28-2.66.14-3.71-.36-1.06-.5-1.9-1.32-2.4-2.42-.33-.72-.52-1.56-.52-2.48,0-.61-.24-1.11-.63-1.43-.2-.16-.44-.27-.71-.33.28-.17.59-.3.91-.37,1.29-.27,2.33.56,2.33,1.83.05,2.57,2.15,4.21,4.74,3.67,2.63-.55,4.77-3.13,4.78-5.75v-2.42c.02-2.63-2.11-4.31-4.74-3.77l-4.11.87.04-10.41,7.87-1.64c1.29-.26,2.32.56,2.31,1.84,0,.33-.07.64-.18.94-.11-.24-.28-.44-.49-.61-.39-.31-.94-.45-1.55-.32l-6.08,1.27-.02,6.64,2.22-.46c1.36-.29,2.66-.14,3.71.36,1.06.49,1.89,1.33,2.4,2.41.33.73.52,1.57.51,2.47ZM208.17,300.15l-.05,13.27,6.65-1.39c.31-.06.6-.06.85,0,.4.08.74.29.97.6.24.31.38.69.38,1.15v2.43c0,.3-.07.6-.18.88-.17.44-.46.84-.81,1.15-.36.31-.78.53-1.24.63-.31.07-.6.07-.86,0-.4-.08-.73-.29-.97-.59-.24-.31-.37-.7-.37-1.16,0-.61.25-1.22.66-1.7.2-.24.44-.45.7-.62-.28-.06-.58-.06-.9,0-1.27.28-2.31,1.5-2.34,2.77.02,1.1.47,2.01,1.19,2.59.75.59,1.77.83,2.9.59,1.13-.23,2.16-.9,2.9-1.8.74-.9,1.21-2.01,1.21-3.14v-2.43c.01-1.13-.45-2.06-1.18-2.64-.74-.58-1.76-.83-2.89-.59l-4.76.99.04-11.74,8.52-1.78c1.29-.27,2.33-1.52,2.33-2.81,0-.32-.06-.61-.18-.87-.11.29-.28.57-.49.81-.4.48-.95.84-1.56.97l-10.96,2.29c-.32.06-.63.19-.91.37.27.06.51.17.71.32.39.32.64.82.63,1.43Z"/>
  <path class="st0" d="M300.67,296.62v2.43c0,1.36-.43,2.75-1.15,3.95-.72,1.2-1.74,2.26-2.94,3.01-.79.5-1.68.87-2.59,1.06-1.37.28-2.66.14-3.71-.36-1.06-.5-1.9-1.32-2.4-2.42-.33-.72-.52-1.56-.52-2.48,0-.61-.24-1.11-.63-1.43-.2-.16-.44-.27-.71-.33.28-.17.59-.3.91-.37,1.29-.27,2.33.56,2.33,1.83.05,2.57,2.15,4.21,4.74,3.67,2.63-.55,4.77-3.13,4.78-5.75v-2.42c.02-2.63-2.11-4.31-4.74-3.77l-4.11.87.04-10.41,7.87-1.64c1.29-.26,2.32.56,2.31,1.84,0,.33-.07.64-.18.94-.11-.24-.28-.44-.49-.61-.39-.31-.94-.45-1.55-.32l-6.08,1.27-.02,6.64,2.22-.46c1.36-.29,2.66-.14,3.71.36,1.06.49,1.89,1.33,2.4,2.41.33.73.52,1.57.51,2.47ZM287.43,283.92l-.05,13.27,6.65-1.39c.31-.06.6-.06.85,0,.4.08.74.29.97.6.24.31.38.69.38,1.15v2.43c0,.3-.07.6-.18.88-.17.44-.46.84-.81,1.15-.36.31-.78.53-1.24.63-.31.07-.6.07-.86,0-.4-.08-.73-.29-.97-.59-.24-.31-.37-.7-.37-1.16,0-.61.25-1.22.66-1.7.2-.24.44-.45.7-.62-.28-.06-.58-.06-.9,0-1.27.28-2.31,1.5-2.34,2.77.02,1.1.47,2.01,1.19,2.59.75.59,1.77.83,2.9.59,1.13-.23,2.16-.9,2.9-1.8.74-.9,1.21-2.01,1.21-3.14v-2.43c.01-1.13-.45-2.06-1.18-2.64-.74-.58-1.76-.83-2.89-.59l-4.76.99.04-11.74,8.52-1.78c1.29-.27,2.33-1.52,2.33-2.81,0-.32-.06-.61-.18-.87-.11.29-.28.57-.49.81-.4.48-.95.84-1.56.97l-10.96,2.29c-.32.06-.63.19-.91.37.27.06.51.17.71.32.39.32.64.82.63,1.43Z"/>
  <path class="st0" d="M167.63,314.84v-2.25c-.01-1.16-.48-2.08-1.23-2.68-.74-.59-1.76-.83-2.89-.58l-4.1.9.04,8.83c0,.63.26,1.13.66,1.45l.16.11,3.29-.72c1.13-.25,2.15-.94,2.88-1.85.74-.92,1.2-2.06,1.19-3.21ZM165.74,313v2.25c.01.32-.06.62-.17.91-.16.44-.44.85-.79,1.17-.35.32-.77.54-1.23.66l-2.21.48-.03-6.74,2.21-.48c.31-.07.59-.07.86,0,.4.07.73.29.97.6.25.3.39.7.39,1.17ZM172.56,331.56c-.24.17-.51.3-.84.37-1.28.29-2.88-.43-3.4-1.62h-.02s.02,0,.02,0l-4.29-9.87c2.39-.77,4.26-3.24,4.25-5.75v-2.25c-.02-2.67-2.16-4.36-4.78-3.78l-4.76,1.05.04,9.51c0,.62-.25,1.24-.65,1.74-.19.25-.43.46-.69.63.26.05.5.17.69.32.4.32.66.83.67,1.45l.04,9.06c0,1.31-1.03,2.59-2.31,2.87-.32.07-.63.07-.91.02.26-.18.51-.39.7-.64.4-.5.64-1.12.64-1.73l-.04-9.17c0-.62-.25-1.12-.65-1.44-.2-.16-.44-.28-.71-.33.26-.17.51-.39.7-.64.4-.49.64-1.11.64-1.73l-.04-9.16c0-.62-.25-1.12-.65-1.45-.2-.16-.44-.27-.71-.33.27-.18.58-.31.91-.39.15-.03,7.08-1.56,7.08-1.56,1.36-.3,2.66-.16,3.71.33,1.06.5,1.9,1.34,2.42,2.44.34.74.53,1.59.53,2.51v2.25c.02,1.39-.4,2.8-1.12,4.03-.62,1.09-1.49,2.05-2.5,2.8l3.86,8.87c.25.56.71,1.02,1.27,1.31.28.15.58.24.89.28ZM163.33,320.62l4.29,9.85c.51,1.2-.26,2.43-1.54,2.71-.33.08-.66.08-.99.03.23-.16.39-.36.52-.6.24-.46.27-1.02.02-1.59l-3.57-8.21-.71.15.04,8.99c0,.62.25,1.12.65,1.44.21.16.45.27.71.33-.28.18-.58.31-.91.38-1.28.29-2.33-.55-2.33-1.86l-.04-9.06c0-.62.25-1.23.64-1.73l.15-.18,3.06-.67Z"/>
  <path class="st0" d="M95.72,323.01c-1.29.27-2.33-.56-2.33-1.85,0-.32.07-.64.19-.94.11.24.27.44.47.6.4.32.95.45,1.57.32l8.8-1.83c.61-.13,1.17-.5,1.57-.98.2-.25.36-.51.48-.81.12.26.18.55.18.87,0,1.28-1.05,2.54-2.33,2.81l-8.6,1.8ZM98.99,334.19c-.2-.16-.44-.27-.7-.33.26-.17.51-.38.71-.62.41-.48.65-1.09.65-1.7l.03-8.69-3.97.83c-1.28.27-2.33,1.53-2.33,2.81,0,.32.07.61.19.87.11-.29.27-.56.47-.8.4-.49.96-.85,1.57-.98l2.18-.46-.02,6.82c0,.61-.25,1.21-.65,1.7-.21.24-.44.45-.71.62.27.06.51.17.71.33.4.31.64.82.64,1.43l-.03,9.34c0,.61-.25,1.22-.65,1.7-.21.25-.44.46-.71.62.28.05.59.06.91,0,1.29-.27,2.33-1.52,2.34-2.81l.03-9.23c0-.61-.24-1.12-.64-1.43ZM104.3,321.87l-3.97.83-.03,8.7c0,.61.25,1.11.64,1.42.2.16.44.27.7.33-.27.16-.5.38-.71.62-.39.48-.65,1.09-.65,1.69l-.03,9.24c0,1.29,1.03,2.11,2.32,1.84.32-.07.63-.19.91-.38-.27-.06-.51-.16-.7-.32-.4-.31-.65-.82-.65-1.42l.03-9.34c0-.61.26-1.22.66-1.7.2-.24.44-.46.71-.62-.27-.06-.51-.16-.7-.33-.4-.31-.65-.82-.65-1.43l.02-6.81,2.18-.46c.62-.12,1.17.01,1.57.32.2.16.36.36.47.6.12-.3.19-.62.19-.93,0-1.29-1.04-2.11-2.32-1.85Z"/>
  <path class="st0" d="M128.15,327.41l3.02-.64c1.13-.24,2.15-.92,2.9-1.82.74-.91,1.2-2.04,1.2-3.18v-2.24c0-1.13-.45-2.06-1.19-2.65-.74-.6-1.77-.85-2.89-.6l-3.82.82v8.75c-.01.62.23,1.13.63,1.45l.16.11ZM129.24,318.59l1.94-.41c.31-.06.59-.06.86-.01.4.09.73.3.97.61.24.3.38.7.37,1.16v2.24c0,.32-.06.61-.18.9-.17.43-.45.85-.81,1.16-.36.32-.77.54-1.23.64l-1.94.41v-6.69ZM131.72,327.32l-.55.12-3.02.64-.16.18c-.4.49-.64,1.09-.64,1.71v4.97s-.01,3.8-.01,3.8l4.37-.94c1.13-.24,2.15-.91,2.9-1.81.74-.91,1.2-2.04,1.2-3.18v-2.23c0-1.14-.45-2.08-1.19-2.67-.74-.59-1.77-.83-2.89-.59ZM133.92,333.2c0,.32-.06.62-.17.91-.17.43-.45.84-.81,1.15-.36.32-.77.54-1.24.65l-2.49.53v-6.69s1.95-.42,1.95-.42l.55-.12c.31-.07.59-.06.86,0,.4.09.74.3.97.61.24.3.38.69.37,1.16v2.22ZM137.83,327.54c-.34-.75-.84-1.37-1.45-1.85.09-.16.21-.32.29-.48.72-1.22,1.14-2.6,1.14-3.99v-2.23c0-.92-.18-1.76-.51-2.49-.51-1.1-1.35-1.93-2.4-2.42-1.06-.51-2.35-.65-3.71-.36,0,0-6.66,1.42-6.81,1.45-.32.07-.63.2-.91.37.27.07.51.18.71.34.39.32.64.82.64,1.43v9.1c-.01.61-.26,1.22-.65,1.71-.21.24-.44.45-.71.62.27.06.51.17.71.33.39.32.64.82.64,1.44v6.86s-.01,2.23-.01,2.23c0,.61-.25,1.22-.64,1.71-.21.25-.44.46-.71.63.28.06.59.06.91-.01.15-.03,7.37-1.57,7.37-1.57.91-.19,1.79-.57,2.58-1.08,1.2-.76,2.2-1.82,2.92-3.04.73-1.22,1.15-2.61,1.15-3.99v-2.23c0-.92-.18-1.75-.52-2.49ZM136.46,332.66c0,2.65-2.13,5.25-4.76,5.81l-5.04,1.07v-4.47s.01-4.96.01-4.96c0-.62-.24-1.12-.65-1.44-.2-.16-.43-.27-.71-.33.27-.17.51-.39.71-.63.41-.49.65-1.1.65-1.72v-9.43s4.5-.95,4.5-.95c2.62-.56,4.75,1.13,4.75,3.78v2.24c0,1.93-1.14,3.82-2.78,4.94,1.93.21,3.32,1.72,3.32,3.86v2.23Z"/>
  <path class="st0" d="M88.78,326.52c.71.6,1.13,1.52,1.11,2.62-.07,1.27-1.14,2.47-2.4,2.7-.33.06-.63.04-.91-.02.27-.15.51-.37.73-.6.42-.47.68-1.07.7-1.69.01-.46-.11-.85-.34-1.16-.23-.31-.56-.53-.96-.63-.26-.07-.54-.07-.85-.01-.48.09-.9.29-1.26.6-.37.3-.65.7-.84,1.12-.11.28-.19.58-.2.89l-.15,4.8c-.02.62.21,1.12.6,1.45.2.16.43.28.69.35-.26.16-.51.37-.72.6-.42.47-.68,1.07-.7,1.68l-.15,4.8c-.01.47.11.85.34,1.17.23.32.56.54.95.64.27.06.55.07.88.01.47-.09.88-.3,1.25-.6.37-.3.66-.7.85-1.13.11-.28.18-.58.19-.89.02-.61-.21-1.12-.6-1.44-.2-.16-.43-.28-.7-.34.29-.18.6-.29.92-.35,1.27-.23,2.28.59,2.26,1.84-.05,1.13-.53,2.2-1.29,3.07-.77.88-1.81,1.52-2.94,1.73-1.15.21-2.15-.07-2.89-.67-.72-.61-1.15-1.55-1.12-2.67l.15-4.81c.02-.61.29-1.22.7-1.68.21-.23.45-.44.73-.6-.27-.07-.5-.18-.7-.35-.39-.33-.63-.84-.61-1.44l.15-4.81c.04-1.13.53-2.24,1.3-3.11.78-.88,1.82-1.53,2.96-1.73,1.13-.21,2.14.07,2.87.68ZM90.14,342.87h0c-.13,2.59-2.32,5.04-4.92,5.51-2.65.48-4.73-1.26-4.65-3.89l.15-4.81c.02-.61-.22-1.12-.61-1.44-.19-.16-.43-.29-.69-.35.27-.16.51-.36.72-.6.42-.47.69-1.08.7-1.68h0s.15-4.8.15-4.8c.08-2.63,2.29-5.14,4.94-5.62,2.6-.47,4.66,1.22,4.63,3.79h0c-.04,1.28.98,2.13,2.27,1.9.31-.06.63-.18.91-.34-.26-.06-.5-.19-.69-.34-.39-.33-.62-.84-.6-1.45.03-.91-.14-1.76-.45-2.49-.47-1.11-1.28-1.96-2.32-2.48-1.04-.53-2.32-.72-3.69-.46-.92.17-1.82.52-2.63.99-1.22.72-2.26,1.74-3.01,2.93-.75,1.19-1.21,2.55-1.26,3.92l-.15,4.8c-.02.62-.28,1.21-.7,1.68-.21.24-.46.44-.73.6.26.07.5.19.7.35.39.33.62.83.6,1.44l-.15,4.81c-.03.91.14,1.75.44,2.5.48,1.09,1.29,1.96,2.33,2.48,1.04.52,2.33.7,3.71.45.91-.16,1.8-.51,2.61-.99,1.22-.73,2.26-1.74,3.01-2.93.75-1.18,1.21-2.56,1.26-3.92.02-.61.28-1.21.7-1.69.2-.23.46-.44.72-.6-.27-.08-.59-.08-.9-.02-1.29.23-2.37,1.47-2.41,2.75Z"/>
  <path class="st0" d="M114.7,319.69c-1.14.21-2.18.85-2.95,1.73-.77.87-1.27,1.98-1.3,3.12l-.15,4.81c-.01.61.22,1.1.61,1.43.19.17.43.28.7.35-.27.16-.52.37-.73.6-.41.47-.68,1.07-.7,1.68l-.15,4.81c-.04,1.13.4,2.07,1.12,2.68.73.61,1.73.88,2.88.68,1.13-.21,2.18-.85,2.95-1.72.77-.88,1.26-1.98,1.3-3.11l.15-4.81c.02-.61-.22-1.12-.61-1.45-.19-.16-.43-.28-.7-.35.28-.16.52-.36.73-.6.42-.47.69-1.07.71-1.69l.15-4.8c.04-1.13-.4-2.08-1.12-2.68-.73-.61-1.74-.89-2.87-.68ZM116.65,328.19c-.02.62-.28,1.21-.69,1.68-.21.24-.46.44-.72.6.26.07.49.19.69.35.39.33.61.83.6,1.44l-.15,4.81c0,.3-.08.6-.2.89-.18.43-.47.83-.84,1.12-.36.3-.78.52-1.25.61-.32.05-.6.04-.86-.02-.39-.08-.73-.31-.96-.62-.23-.31-.35-.7-.34-1.17l.15-4.81c.02-.6.29-1.21.71-1.68.2-.23.45-.44.72-.6-.26-.07-.5-.18-.69-.34-.39-.33-.63-.84-.61-1.45l.15-4.81c0-.31.09-.61.2-.89.19-.43.47-.82.85-1.12.36-.3.79-.51,1.25-.59.31-.07.6-.06.86.01.39.09.73.31.96.63.22.31.35.7.33,1.17l-.15,4.8ZM121.71,328.83c-.39-.33-.62-.84-.6-1.45l.15-4.8c.03-.91-.13-1.76-.44-2.5-.47-1.1-1.29-1.96-2.32-2.48-1.05-.53-2.33-.71-3.71-.46-.91.16-1.81.51-2.62.99-1.21.72-2.26,1.74-3.01,2.93-.75,1.19-1.21,2.55-1.26,3.92l-.15,4.8c-.02.61-.28,1.21-.7,1.68-.2.24-.45.44-.72.6.27.07.5.19.69.35.39.33.62.84.6,1.44l-.15,4.81c-.03.91.14,1.75.45,2.5.47,1.09,1.28,1.95,2.32,2.48,1.05.53,2.33.72,3.71.46.91-.17,1.8-.51,2.61-.99,1.23-.73,2.27-1.75,3.02-2.93.76-1.19,1.21-2.56,1.26-3.92l.15-4.81c.02-.61.29-1.22.7-1.68.21-.23.46-.45.72-.61-.26-.06-.5-.18-.69-.34ZM119.78,330.13c-.42.47-.69,1.07-.71,1.68l-.15,4.81c-.08,2.62-2.29,5.14-4.93,5.62-2.64.47-4.72-1.28-4.64-3.9l.15-4.81c.02-.61-.21-1.12-.61-1.44-.19-.16-.43-.29-.69-.35.26-.17.51-.37.72-.6.42-.47.69-1.07.71-1.68l.15-4.8c.08-2.63,2.3-5.14,4.94-5.62,2.64-.47,4.72,1.27,4.63,3.89l-.15,4.81c-.02.61.22,1.12.61,1.44.19.17.43.28.7.35-.28.16-.52.37-.73.6Z"/>
  <path class="st0" d="M142.91,336.16l7.96-1.74c1.29-.28,2.32.54,2.33,1.84,0,.32-.06.65-.18.96-.11-.24-.28-.45-.48-.61-.4-.32-.95-.44-1.56-.31,0,0-10.23,2.25-10.39,2.28-.32.07-.63.07-.91.01.27-.17.51-.39.7-.63.4-.49.64-1.11.64-1.73l-.04-9.13c0-.62-.25-1.13-.65-1.44-.2-.16-.44-.27-.71-.33.27-.17.51-.39.7-.63.4-.49.64-1.1.64-1.72l-.04-9.15c0-.62-.25-1.11-.65-1.43-.2-.17-.44-.28-.71-.33.28-.18.59-.32.91-.39.16-.03,10.39-2.27,10.39-2.27.61-.13,1.17-.5,1.56-1.01.2-.24.36-.53.47-.81.12.26.19.55.19.87,0,1.3-1.02,2.59-2.31,2.87l-7.96,1.75.04,9.48c0,.62-.24,1.24-.65,1.73-.2.24-.43.46-.7.64.27.05.51.17.71.33.4.32.66.82.66,1.43l.04,9.48ZM144.17,324.81c-.39.49-.64,1.11-.63,1.73l.04,8.8,7.3-1.6c1.29-.29,2.31-1.57,2.31-2.87,0-.32-.07-.62-.19-.87-.11.29-.27.57-.47.81-.39.5-.95.88-1.56,1l-5.53,1.22-.03-6.73,3.31-.73c.61-.14,1.16,0,1.56.32.21.16.37.36.48.61.12-.31.18-.64.18-.96,0-1.3-1.05-2.12-2.33-1.85l-4.29.94-.16.18ZM150.89,313.88c.61-.13,1.17,0,1.56.31.2.16.36.37.48.61.12-.31.18-.64.18-.96,0-1.3-1.04-2.13-2.33-1.85l-7.3,1.6.04,8.81c0,.62.25,1.12.65,1.44l.17.11,4.28-.95c1.28-.28,2.32-1.56,2.31-2.86,0-.33-.07-.63-.19-.88-.11.29-.27.56-.47.81-.4.5-.94.86-1.56.99l-3.31.73-.03-6.72,5.53-1.22Z"/>
  <polygon class="st0" points="204.49 313.3 197.15 314.82 197.03 312.22 204.39 310.69 204.49 313.3"/>
  <path class="st1" d="M135.32,36.99c58.19,32.11,63.86-48.42,135.08-19.56C193.51-22.35,173.5,21.44,129.98.31c.23,4.61,11.34,24.83,5.34,36.68Z"/>
  <path class="st1" d="M342.54,146.5c-.17-.03-.31-.1-.46-.21-.37-.32-.55-.83-.55-1.51v-30.98c0-1,.44-2.15,1.21-3.1.4-.5.81-.89,1.2-1.12,1.52-.93,2.32-2.68,2.04-4.44-.29-1.76-1.61-3.17-3.34-3.57-.24-.06-.42-.13-.54-.23-.47-.38-.57-1.05-.57-1.53v-31.54c0-1.01.44-2.15,1.24-3.16.36-.46.76-.83,1.2-1.1,1.51-.94,2.3-2.7,2-4.45-.3-1.75-1.64-3.3-3.37-3.69-.76-.17-1.56-.26-2.37-.26s-1.67.09-2.52.27c-3.47.74-6.51,3.1-8.54,6.02-1.78-1.44-3.92-2.15-6.36-2.46-.81-.1-1.6-.13-2.44.05l-.83.13c-.35.08-.52.09-.86.2-.24-.79-.13-.54-.41-1.17-.69-1.59-2.28-2.59-4-2.59h-.13c-1.77.05-3.34,1.17-3.97,2.83-.2.52-.5,1.04-.9,1.54-.79.96-1.82,1.64-2.82,1.86l-29.71,6.36-11.36,2.28-12.22,2.62c-63.45-4.31-97.08-6.42-117.52-34.37h-.04c.51,1.17,1.06,2.34,1.66,3.5,9.23,17.74,41.06,31.86,71.74,39.85-6.51,1.38-13.84,2.94-19.24,4.08-34.33-17-49.81-27.68-54.3-47.41h-.04c3.21,24.14,28.03,41.94,44.42,62.85v28.28c0,.98-.43,2.05-1.17,2.94-.42.5-.87.9-1.34,1.2-1.51.94-2.3,2.7-2,4.46.3,1.75,1.63,3.15,3.37,3.54.25.06.45.14.59.26l.07.05c.42.33.49.99.49,1.36v22.83l-12.4-19.36c2.58-2.36,4.78-5.07,6.48-7.99,2.89-4.82,4.49-10.38,4.49-15.64v-7.49c0-3.62-.75-7.15-2.18-10.24-2.17-4.59-5.71-8.14-10.27-10.27-2.96-1.37-6.23-2.07-9.72-2.07-.15,0-.31,0-.46.01-12.21-21.07-18.69-36.52-20.4-54.73h-.04c.09,1.61.2,3.22.25,4.83.51,15.48,1.39,34.01,3.72,52.89-6.21,1.32-12.23,2.59-12.59,2.67l-.1.02c-.45.1-.89.23-1.33.37,4.43-20.43,6.91-40.5,10-60.77h-.04c-5.12,23.52-10.88,41.22-33.52,65.54-1.04-.13-2.1-.21-3.18-.21-1.84,0-3.72.2-5.59.6-3.54.75-6.98,2.17-10.23,4.22-4.59,2.93-8.49,6.97-11.3,11.71-1.73,2.96-2.98,6.07-3.7,9.23-.64-.82-1.56-1.4-2.62-1.61-.09-.02-.28-.11-.52-.3-.64-.67-1-1.78-1-3.07,0-1.69-.11-3.33-.33-4.94,44.82-33.99,58.96-49.42,71.85-81.14h-.04c-8.8,18.92-27.96,42.08-82.55,62.18-.7-.49-1.43-.95-2.19-1.36-3.22-1.77-6.95-2.7-10.78-2.7-2.06,0-4.17.27-6.24.79-3.9.96-7.68,2.79-11.23,5.43-4.96,3.67-9.19,8.78-12.24,14.79-3.08,6.13-4.71,12.81-4.71,19.33v27.27c0,1.66-.59,3.45-1.6,4.89-.53.73-1.09,1.32-1.73,1.79-1.36,1.01-2.01,2.71-1.68,4.37.33,1.66,1.59,2.98,3.22,3.39.24.06.52.22.82.45.61.63.96,1.71.96,2.98v23.4c0,4.52.75,8.72,2.23,12.49,2.27,5.68,6.07,10.1,10.99,12.78,3.29,1.78,6.93,2.69,10.81,2.69,2.06,0,4.16-.26,6.25-.78,3.92-.97,7.7-2.79,11.27-5.45,1.41-1.07,2.75-2.24,4.02-3.5,2.02,2.14,4.95,3.44,8.33,3.44h0c.87,0,1.76-.09,2.65-.26,1.69-.33,3.29-.94,4.77-1.82,1.57-.93,2.39-2.74,2.07-4.54-.32-1.8-1.73-3.2-3.52-3.53-.23-.04-.55-.13-.75-.28l-.08-.06c-.41-.29-.6-.71-.6-1.27v-20.88c.02-.47.03-.95.03-1.42v-30.04c.59.64,1.37,1.1,2.25,1.3.26.06.47.15.65.3.43.33.49.99.49,1.35v16.29c0,3.62.74,7.06,2.2,10.24,2.12,4.57,5.66,8.11,10.25,10.26,2.99,1.39,6.28,2.1,9.75,2.1h0c1.84,0,3.73-.2,5.6-.61,3.56-.76,6.97-2.18,10.16-4.22,4.6-2.93,8.51-6.97,11.33-11.7,2.91-4.93,4.44-10.32,4.44-15.61v-16.28c0-.97.44-2.08,1.17-2.96.25-.29.51-.56.79-.8.31.14.64.26.99.33.16.03.35.12.53.27.41.32.49.9.49,1.34v30.55c0,.98-.43,2.07-1.21,3.01-.33.41-.8.82-1.4,1.21-1.47.98-2.22,2.74-1.88,4.48.26,1.38,1.17,2.51,2.39,3.1-.88.49-1.59,1.27-1.96,2.26-.2.53-.49,1.01-.89,1.49-.79.96-1.79,1.6-2.85,1.81,0,0-34.66,7.4-35.17,7.51-1.65.35-3.19.98-4.56,1.88-1.47.96-2.22,2.71-1.91,4.44.31,1.73,1.62,3.1,3.34,3.5.26.06.48.17.67.31.42.32.5.92.5,1.36v30.52c0,.97-.43,2.06-1.17,2.98-.4.46-.87.87-1.41,1.22-1.48.96-2.24,2.72-1.92,4.46.32,1.74,1.65,3.12,3.38,3.49.21.05.43.15.65.31.39.33.48.91.48,1.35v30.53c0,.98-.43,2.06-1.18,2.96-.39.48-.85.88-1.37,1.21-1.51.96-2.28,2.75-1.95,4.51.33,1.76,1.7,3.14,3.46,3.49.73.14,1.48.22,2.25.22.85,0,1.71-.09,2.56-.27,3.54-.75,6.66-2.96,8.73-5.87,1.81,1.46,4.14,2.32,6.75,2.32.83,0,1.68-.09,2.55-.27,1.48-.32,2.97-.93,4.43-1.81,1.54-.94,2.36-2.72,2.04-4.5-.31-1.78-1.68-3.18-3.46-3.54-.19-.04-.33-.1-.44-.19l-.17-.13c-.3-.22-.47-.69-.47-1.29v-26.41l7.79-1.65c.22-.05.43-.07.63-.07.42,0,.76.11,1.08.35.08.06.18.19.25.36.71,1.57,2.27,2.58,3.99,2.58h.11c1.76-.04,3.32-1.13,3.97-2.77.62-1.57.93-3.18.93-4.8,0-3.52-1.5-6.54-3.92-8.48,2.42-2.6,3.92-6.02,3.92-9.53,0-1.72-.36-3.39-1.05-4.83-.73-1.53-2.27-2.5-3.95-2.5h-.18c-1.75.07-3.29,1.18-3.92,2.82-.2.52-.49,1.03-.88,1.52-.82.95-1.82,1.59-2.84,1.8l-5.93,1.27v-13.51l15.23-3.25c.24-.05.47-.08.68-.08.4,0,.73.09.99.27.2.18.29.33.35.46.71,1.57,2.27,2.56,3.99,2.56h.17c1.78-.07,3.34-1.21,3.94-2.88.4-1.1.65-2.16.78-3.19v18.32c0,.98-.43,2.05-1.18,2.94-.42.5-.87.9-1.34,1.2-1.51.94-2.3,2.7-2,4.46.3,1.75,1.63,3.15,3.37,3.54.25.06.45.14.59.26l.07.06c.42.33.49.99.49,1.36v30.52c0,.96-.44,2.07-1.21,2.99-.38.46-.82.85-1.31,1.16-1.52.95-2.32,2.73-2,4.5.32,1.77,1.69,3.16,3.45,3.51.75.15,1.52.23,2.3.23.83,0,1.68-.09,2.47-.25.54-.1,27.14-5.77,35.23-7.5.24-.05.48-.07.7-.07.43,0,.79.1.97.24.12.1.28.26.39.49.72,1.55,2.27,2.54,3.97,2.54h.13c1.75-.05,3.3-1.14,3.95-2.77.61-1.55.93-3.21.93-4.81,0-3.51-1.5-6.53-3.91-8.46,1.58-1.71,2.77-3.77,3.4-5.99.24.75.52,1.48.83,2.2l.03.06c2.15,4.7,5.68,8.35,10.24,10.57,2.98,1.42,6.26,2.15,9.75,2.15,1.87,0,3.77-.21,5.64-.63,3.58-.79,7.03-2.26,10.24-4.38,4.59-3.01,8.49-7.18,11.26-12.04,2.9-5.07,4.44-10.61,4.44-16.04,0-3.51-.64-6.82-1.92-9.89-1.26-2.94-3.04-5.5-5.29-7.6l-6.47-6.07c-.35-.32-.54-.99-.51-1.73.04-.53.17-1.07.4-1.62.7-1.72.24-3.7-1.16-4.94-.28-.25-.58-.45-.91-.62,1.8-1.1,3.38-2.61,4.59-4.37,1.81,1.5,4.14,2.37,6.74,2.37h0c.86,0,1.73-.1,2.6-.29,1.59-.35,3.12-1.01,4.53-1.94,1.47-.97,2.21-2.73,1.89-4.47-.33-1.73-1.66-3.1-3.39-3.47-.23-.05-.36-.12-.39-.14l-.16-.13c-.23-.19-.4-.52-.49-.94.09,0,.18.02.27.02h.14c1.76-.06,3.32-1.16,3.95-2.8.21-.55.51-1.06.88-1.51.78-.95,1.81-1.61,2.85-1.83l2.09-.45v17.67c0,.95-.43,2.03-1.18,2.97-.41.48-.86.87-1.38,1.2-1.51.96-2.28,2.74-1.96,4.5.33,1.76,1.69,3.14,3.44,3.49.21.04.39.13.58.27.41.34.5.93.5,1.37v31.93c0,.96-.44,2.06-1.18,2.95-.41.49-.85.89-1.36,1.2-1.53.96-2.31,2.75-1.98,4.52.33,1.77,1.72,3.16,3.49,3.5.74.14,1.5.21,2.25.21.85,0,1.71-.09,2.56-.27,3.53-.75,6.64-2.96,8.71-5.87,1.81,1.46,4.13,2.32,6.73,2.32.85,0,1.71-.09,2.57-.28,1.61-.34,3.14-.98,4.55-1.89,1.49-.97,2.25-2.75,1.92-4.5-.33-1.75-1.7-3.12-3.44-3.47-.15-.03-.35-.08-.46-.18l-.07-.06c-.35-.28-.54-.75-.54-1.37v-31.93c0-.96.44-2.05,1.22-3,.4-.49.84-.89,1.28-1.15,1.52-.93,2.33-2.7,2.04-4.46-.29-1.76-1.63-3.17-3.37-3.56-.38-.08-.52-.18-.55-.2l-.07-.06c-.45-.35-.54-.95-.54-1.39v-19.51l3.88-.84c.24-.05.46-.07.67-.07.44,0,.8.11,1.05.3.15.12.28.29.37.48.73,1.52,2.27,2.48,3.95,2.48h.17c1.74-.07,3.28-1.17,3.91-2.79.61-1.57.92-3.16.92-4.75,0-3.52-1.5-6.55-3.92-8.49,2.41-2.59,3.92-6.01,3.92-9.53,0-1.68-.34-3.28-1.01-4.76-.71-1.57-2.27-2.58-3.99-2.58h-.13c-1.77.05-3.33,1.16-3.96,2.81-.19.51-.5,1.01-.9,1.51-.79.95-1.82,1.62-2.82,1.84l-29.78,6.31c-.24.05-.46.08-.67.08-.29,0-.69-.05-.97-.27-.15-.12-.27-.28-.37-.48-.72-1.54-2.27-2.52-3.97-2.52h-.15c-.69.03-1.35.22-1.94.54.05-.43.07-.86.07-1.29,0-3.52-1.51-6.53-3.92-8.46,2.41-2.6,3.92-6.02,3.92-9.55,0-1.7-.36-3.36-1.05-4.8-.73-1.53-2.27-2.5-3.96-2.5h-.16c-1.75.07-3.29,1.17-3.92,2.8-.2.51-.51,1.04-.87,1.47l-.07.08c-.74.92-1.73,1.57-2.71,1.76l-13.5,2.89v-13.53l7.77-1.65c.22-.05.43-.07.62-.07.42,0,.77.11,1.07.35.12.09.21.22.3.4.72,1.55,2.27,2.54,3.98,2.54h.15c1.76-.06,3.31-1.17,3.94-2.81.61-1.59.92-3.2.92-4.79,0-3.51-1.51-6.52-3.93-8.46,2.41-2.58,3.93-6,3.93-9.52,0-1.72-.37-3.39-1.06-4.83-.73-1.52-2.27-2.48-3.95-2.48h-.16c-1.74.07-3.28,1.16-3.91,2.78-.21.54-.52,1.05-.93,1.55-.76.93-1.75,1.57-2.81,1.79l-5.93,1.27v-13.5l15.24-3.24c.24-.05.47-.08.68-.08.29,0,.68.05.98.29.15.12.27.28.36.46.72,1.55,2.27,2.54,3.97,2.54h.15c.95-.04,1.84-.38,2.55-.95.64.36,1.37.57,2.13.57h.14c1.77-.06,3.33-1.17,3.96-2.82.22-.56.51-1.08.89-1.54.78-.96,1.81-1.63,2.85-1.84l2.08-.45v17.89c0,.97-.44,2.08-1.2,3.04-.41.48-.87.88-1.39,1.21-1.5.96-2.27,2.74-1.94,4.49.33,1.75,1.69,3.13,3.43,3.49.2.04.38.13.57.26.33.28.52.79.52,1.43v30.83c0,.98-.45,2.11-1.2,3.02-.41.5-.86.9-1.36,1.22-1.52.96-2.3,2.75-1.96,4.52.33,1.77,1.71,3.15,3.48,3.49.75.14,1.51.22,2.26.22.85,0,1.72-.09,2.57-.28,3.53-.76,6.64-2.99,8.7-5.92,1.81,1.47,4.13,2.34,6.73,2.34h0c.85,0,1.72-.09,2.58-.28,1.62-.35,3.15-.99,4.56-1.92,1.49-.97,2.24-2.75,1.9-4.49-.34-1.74-1.69-3.11-3.43-3.46-.14-.03-.34-.08-.45-.17l-.08-.06c-.36-.29-.56-.79-.56-1.43v-30.83c0-.99.45-2.1,1.24-3.07.4-.5.84-.9,1.28-1.17,1.52-.94,2.32-2.7,2.02-4.45-.29-1.76-1.62-3.16-3.36-3.55-.38-.08-.51-.18-.54-.2l-.07-.06c-.36-.29-.56-.8-.56-1.45v-19.75l3.9-.85,11.28-2.23,2.16-.47v17.89c0,.97-.44,2.08-1.2,3.04-.41.48-.87.88-1.39,1.22-1.5.96-2.27,2.74-1.94,4.49.33,1.75,1.69,3.13,3.43,3.49.21.04.4.13.55.25.35.28.54.79.54,1.45v30.83c0,.98-.45,2.11-1.2,3.02-.41.5-.86.9-1.36,1.22-1.52.96-2.3,2.75-1.96,4.52.33,1.77,1.71,3.15,3.48,3.49.75.14,1.51.22,2.26.22.85,0,1.72-.09,2.57-.28,3.53-.76,6.64-2.99,8.7-5.92,1.81,1.47,4.13,2.34,6.73,2.34.85,0,1.72-.09,2.58-.28,1.62-.35,3.15-.99,4.56-1.92,1.49-.97,2.24-2.75,1.9-4.49-.34-1.74-1.69-3.11-3.43-3.46-.14-.03-.34-.08-.45-.17l-.07-.06c-.36-.29-.56-.79-.56-1.43v-30.83c0-.99.45-2.1,1.24-3.07.4-.5.84-.9,1.28-1.17,1.52-.94,2.31-2.7,2.02-4.45-.29-1.76-1.62-3.16-3.36-3.55-.38-.08-.51-.18-.54-.2l-.08-.06c-.36-.29-.56-.8-.56-1.45v-19.75l3.89-.85c.23-.05.46-.07.66-.07.43,0,.79.11,1.04.3.15.12.29.3.38.49.73,1.53,2.27,2.5,3.95,2.5h.17c1.55-.06,2.93-.93,3.66-2.26v16.11c0,1.03-.43,2.16-1.22,3.15-.35.45-.79.85-1.32,1.21-1.46.98-2.19,2.72-1.87,4.45.32,1.72,1.64,3.09,3.35,3.47.27.06.44.16.53.23.34.31.53.85.53,1.52v30.94c0,1-.44,2.14-1.22,3.12-.37.47-.82.9-1.32,1.23-1.47.98-2.2,2.75-1.86,4.49.34,1.74,1.69,3.09,3.43,3.45.72.15,1.47.22,2.22.22.88,0,1.78-.1,2.6-.29,3.44-.75,6.47-2.95,8.5-5.86,1.77,1.43,4.04,2.27,6.57,2.27h0c.85,0,1.71-.1,2.53-.28,1.54-.33,3.05-.96,4.47-1.87,1.5-.96,2.27-2.73,1.94-4.49-.32-1.75-1.68-3.13-3.42-3.49ZM38.21,197.96c0,.87-.14,1.71-.42,2.57-.41,1.26-1.13,2.45-2,3.34l-.06.06c-.54.57-1.4,1.31-2.43,1.56-.25.06-.49.09-.72.09-.15,0-.31-.01-.46-.04-.42-.14-.77-.42-1.02-.8-.46-.69-.68-1.57-.68-2.67v-18.85c.14.55.32,1.07.52,1.58.67,1.66,2.28,2.73,4.06,2.73h.14c1.2-.04,2.3-.57,3.08-1.41v11.84ZM35.09,166.77h.02s-.01.02-.01.02v-.02ZM65.78,155.9l-.05.07c-.11.14-.24.26-.37.39.23-.29.46-.57.7-.81-.09.12-.18.24-.27.36ZM66.96,136.68v11.21c-.5-.4-1.09-.69-1.74-.84-.82-.19-1.67-.28-2.53-.28-.95,0-1.92.12-2.88.35l-.11.03c-.65.17-11.16,2.79-18.14,4.53-.23.06-.45.09-.65.09-.44,0-.82-.14-1.15-.42-.3-.3-.53-.66-.69-1.07-.66-1.68-2.28-2.77-4.07-2.77h-.14c-1.85.06-3.46,1.27-4.03,3.03-.16.5-.3.99-.41,1.48v-18.45c0-.87.13-1.68.4-2.4l.07-.21c.38-1.21,1.09-2.41,1.97-3.32.79-.83,1.61-1.36,2.51-1.62.24-.05.46-.07.65-.07.17,0,.31.02.44.05l.07.02c.4.1.74.35,1,.75.47.71.69,1.59.69,2.68,0,1.69-.58,3.45-1.6,4.91-.53.75-1.12,1.37-1.66,1.77-1.38,1.02-2.04,2.76-1.68,4.44.36,1.68,1.67,3,3.36,3.36.83.18,1.66.27,2.49.27h0c.97,0,1.94-.12,2.89-.37,3.97-.98,7.38-3.84,9.54-7.59,1.96,1.89,4.54,3.02,7.46,3.02.95,0,1.91-.12,2.83-.35,1.71-.41,3.39-1.22,4.99-2.4l.12-.1c0,.09,0,.19,0,.28ZM153.53,118.05l.12.02c.09.02.35.06.6.39l.06.07c.14.18.34.49.34,1.15v7.49c0,.42-.1.88-.35,1.52-.27.74-.84,1.54-1.51,2.13-.65.58-1.38.97-2.23,1.18l-2.15.45v-13.53l2.37-.5c.87-.12,1.76-.25,2.67-.38h.07ZM96.93,176.67c0,.46-.1.96-.29,1.45-.31.8-.85,1.57-1.49,2.12l-.06.05c-.68.61-1.39.99-2.11,1.15-.25.05-.49.07-.69.07-.17,0-.32-.01-.46-.05l-.13-.03c-.26-.05-.47-.17-.62-.37l-.05-.06c-.08-.11-.3-.38-.32-1.23v-16.25c0-.96.44-2.05,1.17-2.91l.07-.09c.35-.44.83-.87,1.31-1.18.49-.32.91-.72,1.23-1.18.39.23.81.41,1.26.51.25.06.49.17.69.31.42.35.48,1,.48,1.36v16.3ZM96.93,146.57c0,.99-.43,2.08-1.16,2.97-.37.44-.85.87-1.44,1.26-.46.31-.85.69-1.16,1.13-.4-.24-.85-.42-1.33-.53-.31-.07-.48-.16-.56-.22-.37-.3-.56-.78-.56-1.43v-16.28c0-.43.1-.93.29-1.47.34-.83.87-1.57,1.56-2.18.65-.58,1.39-.96,2.13-1.11l.17-.04c.2-.05.39-.07.56-.07.12,0,.23.01.34.04l.09.02c.31.06.57.2.75.42.22.31.33.71.33,1.23v16.25ZM123.48,144.57l-.05.07c-.2.25-.44.48-.71.71-.3-.14-.62-.26-.96-.33-.16-.03-.38-.1-.54-.23-.44-.35-.54-.96-.54-1.4v-16.25c0-2.1-.26-4.15-.73-6.11,1.14-3.92,2.19-7.82,3.15-11.71.16.05.32.1.49.14.21.04.4.13.55.24.35.27.52.74.52,1.4v30.51c0,1-.42,2.06-1.17,2.97ZM129.59,220.97c-.38-2.84-1.76-5.27-3.81-6.91,1.07-1.15,1.96-2.47,2.62-3.88l.13.04c.3.06.41.15.44.18l.1.08c.13.1.52.41.52,1.35v9.16ZM131.65,200.31l-.13.03c-.79.18-1.58.43-2.34.76-.13-.43-.29-.86-.48-1.29-.28-.62-.69-1.16-1.19-1.58.32-.04.64-.09.95-.15,3.52-.75,6.62-2.96,8.69-5.87,1.8,1.47,4.13,2.33,6.73,2.33.84,0,1.7-.09,2.55-.27,1.53-.31,3-.91,4.48-1.82,1.52-.93,2.32-2.7,2.03-4.46-.3-1.76-1.63-3.16-3.37-3.55-.25-.06-.47-.15-.62-.27-.43-.34-.52-.94-.52-1.38v-19.48l11.71,17.83c.15.45.13.84-.05,1.17-.11.21-.23.35-.4.46-1.48,1.02-2.18,2.85-1.77,4.6.41,1.75,1.85,3.07,3.63,3.33.77.11,1.48.17,2.18.17.95,0,1.88-.1,2.76-.31,1.66-.36,3.18-1.04,4.5-1.97-.2.28-.37.58-.5.91-.21.52-.53,1.07-.95,1.58-.74.92-1.75,1.57-2.78,1.79-11.81,2.51-34.34,7.29-35.1,7.44ZM189.03,254.68c-1.81-1.49-4.13-2.37-6.73-2.37-.85,0-1.71.1-2.54.28-1.56.33-3.08.96-4.51,1.87-1.49.94-2.27,2.69-1.98,4.43.19,1.14.83,2.12,1.72,2.78-.14-.01-.29-.03-.43-.03h-.16c-1.75.07-3.29,1.17-3.92,2.8-.2.51-.51,1.04-.87,1.47l-.07.08c-.74.92-1.73,1.57-2.71,1.76l-13.5,2.89v-13.53l7.77-1.65c.22-.05.43-.07.62-.07.42,0,.77.11,1.07.35.12.09.22.22.3.4.72,1.55,2.27,2.54,3.98,2.54h.15c1.76-.06,3.31-1.17,3.94-2.81.61-1.59.92-3.2.92-4.79,0-3.51-1.5-6.52-3.92-8.46,2.41-2.58,3.92-6,3.92-9.52,0-1.72-.37-3.39-1.06-4.84-.73-1.52-2.27-2.48-3.95-2.48h-.16c-1.74.07-3.28,1.16-3.91,2.78-.21.54-.52,1.05-.93,1.54-.76.93-1.75,1.57-2.81,1.79l-5.93,1.27v-13.5l15.24-3.24c.24-.05.47-.08.68-.08.29,0,.68.05.98.29.15.12.27.28.36.46.72,1.55,2.27,2.54,3.97,2.54h.15c1.2-.04,2.3-.58,3.08-1.44.04,3.37.67,6.56,1.86,9.47l.02.06c1.27,2.97,3.06,5.53,5.28,7.58l6.52,6.15c.34.3.52.92.47,1.69-.02.48-.15,1.01-.37,1.54-.73,1.72-.28,3.72,1.11,4.97.29.26.6.47.93.64-1.8,1.1-3.38,2.61-4.59,4.38ZM207.42,259.32c-.33.85-.91,1.7-1.56,2.29-.68.62-1.39,1.02-2.16,1.21-.25.05-.48.07-.69.07-.14,0-.26-.01-.36-.03-.31-.08-.56-.23-.73-.44-.22-.31-.34-.69-.38-1.16v-.25c0-1.06.45-2.22,1.22-3.18l.06-.08c.39-.5.83-.92,1.28-1.22.7-.45,1.24-1.09,1.58-1.81l1.5,1.4c.16.15.3.36.39.56.11.27.17.61.17,1,0,.54-.1,1.06-.3,1.63ZM206.5,214.42c-.41.51-.87.93-1.41,1.29-.67.45-1.19,1.07-1.53,1.77l-1.57-1.47c-.18-.21-.26-.36-.31-.49-.08-.2-.17-.47-.17-1.01,0-.49.11-1.02.32-1.58l.04-.1c.28-.79.81-1.57,1.5-2.18l.08-.07c.64-.59,1.32-.98,2.07-1.17.22-.04.44-.06.63-.06.18,0,.35.02.47.04.29.06.54.2.67.38l.04.05c.27.36.4.82.4,1.4,0,1.03-.46,2.23-1.22,3.19ZM218.79,179.29c.23-.04.45-.07.66-.07.43,0,.79.1.97.24.12.1.28.26.39.49.72,1.55,2.27,2.54,3.97,2.54h.13c.7-.02,1.36-.21,1.94-.53-.05.42-.07.84-.07,1.26,0,3.52,1.5,6.55,3.92,8.49-1.01,1.09-1.87,2.32-2.51,3.65-2.13-3.66-5.23-6.57-9.13-8.46-3-1.43-6.3-2.15-9.81-2.15-1.84,0-3.72.21-5.61.62-3.5.78-7.02,2.29-10.17,4.36-4.62,3.04-8.53,7.22-11.28,12.07-1.31,2.27-2.33,4.64-3.07,7.07-.61-2.15-1.83-3.99-3.48-5.31,2.41-2.6,3.91-6.02,3.91-9.54,0-1.68-.36-3.33-1.04-4.78-.72-1.54-2.27-2.52-3.97-2.52h-.14c-.64.02-1.25.18-1.8.46.73-.76,1.37-1.61,1.86-2.55l.06-.14c2.37,1.44,5.21,2.29,8.12,2.29.34,0,.68-.01,1.02-.04.75-.04,1.46-.11,2.23-.23.19-.03.68-.1,32.89-7.22Z"/>
  <path class="st0" d="M140.55,286.43l26.98-5.7c4.36-.93,7.86,1.82,7.86,6.18,0,1.08-.22,2.18-.63,3.2-.38-.82-.94-1.51-1.6-2.05-1.34-1.06-3.21-1.48-5.29-1.06,0,0-34.65,7.39-35.19,7.49-1.09.22-2.12.22-3.08.03.92-.57,1.72-1.28,2.39-2.11,1.36-1.64,2.19-3.71,2.19-5.76v-30.52c0-2.08-.83-3.78-2.19-4.83-.67-.54-1.47-.92-2.39-1.12.92-.57,1.72-1.3,2.39-2.11,1.36-1.63,2.19-3.68,2.19-5.75v-30.56c0-2.06-.83-3.72-2.19-4.79-.67-.56-1.47-.93-2.39-1.11.96-.6,1.99-1.05,3.08-1.29.53-.1,35.19-7.46,35.19-7.46,2.08-.44,3.95-1.67,5.29-3.34.67-.82,1.23-1.75,1.6-2.71.4.86.63,1.86.63,2.93,0,4.35-3.5,8.63-7.86,9.57l-26.98,5.73v31.67c0,2.08-.85,4.15-2.21,5.78-.67.81-1.47,1.52-2.38,2.12.91.18,1.72.56,2.38,1.1,1.37,1.08,2.21,2.74,2.21,4.8v31.68ZM144.97,248.53c-1.34,1.64-2.17,3.69-2.17,5.77v29.41l24.72-5.24c4.36-.94,7.86-5.23,7.86-9.57,0-1.08-.22-2.08-.63-2.93-.38.98-.94,1.92-1.6,2.71-1.34,1.67-3.21,2.91-5.29,3.32l-18.72,4.01v-22.5l11.23-2.38c2.07-.45,3.93.02,5.28,1.08.69.53,1.23,1.22,1.61,2.04.4-1.05.63-2.14.63-3.22,0-4.34-3.53-7.09-7.86-6.2l-14.53,3.09c-.16.18-.36.4-.53.6ZM167.87,212.1c2.08-.44,3.95,0,5.29,1.07.67.53,1.23,1.23,1.6,2.05.4-1.05.63-2.15.63-3.22,0-4.35-3.5-7.12-7.86-6.2l-24.72,5.25v29.45c0,2.06.83,3.75,2.17,4.81.2.12.38.24.56.37l14.5-3.11c4.33-.91,7.86-5.19,7.86-9.51,0-1.1-.22-2.1-.63-2.93-.38.96-.92,1.88-1.61,2.71-1.36,1.66-3.21,2.86-5.28,3.3l-11.23,2.4v-22.46l18.72-3.99Z"/>
  <path class="st0" d="M95.66,258.41l14.51-3.1c4.33-.89,7.86,1.86,7.86,6.23,0,1.08-.22,2.17-.63,3.19-.38-.84-.92-1.53-1.59-2.04-1.38-1.07-3.24-1.53-5.31-1.07l-11.22,2.38v29.96c0,2.06.85,3.76,2.21,4.79.66.55,1.47.94,2.38,1.12-.96.58-1.99,1.04-3.08,1.27-4.33.91-7.86-1.84-7.86-6.17v-30.21c0-2.08.83-4.12,2.19-5.77.17-.2.35-.41.53-.59ZM90.67,265.24c0-2.07-.81-3.76-2.19-4.82-.67-.53-1.47-.91-2.36-1.11.89-.57,1.69-1.28,2.36-2.12,1.39-1.64,2.19-3.69,2.19-5.75v.02-31.72l27-5.73c4.33-.93,7.86-5.2,7.86-9.56,0-1.07-.24-2.06-.63-2.93-.38.99-.91,1.9-1.61,2.72-1.36,1.64-3.21,2.87-5.31,3.3,0,0-34.66,7.4-35.19,7.51-1.08.22-2.12.64-3.06,1.25.89.2,1.69.59,2.38,1.12,1.36,1.06,2.19,2.75,2.19,4.82v30.52c0,2.06-.83,4.13-2.19,5.79-.69.82-1.49,1.51-2.38,2.09.89.19,1.69.59,2.38,1.11,1.36,1.06,2.19,2.75,2.19,4.83v30.53c0,2.06-.83,4.12-2.19,5.76-.69.84-1.49,1.54-2.38,2.11.93.18,1.98.18,3.06-.04,4.35-.92,7.88-5.2,7.88-9.52v-30.21ZM117.66,216.26l-24.72,5.26v29.44c0,2.07.83,3.76,2.19,4.82.17.14.35.29.53.41l14.51-3.1c4.33-.96,7.86-5.21,7.86-9.56,0-1.09-.22-2.1-.63-2.94-.38.99-.92,1.91-1.59,2.74-1.38,1.63-3.24,2.86-5.31,3.3l-11.22,2.39v-22.47l18.7-3.99c2.1-.45,3.95,0,5.31,1.05.69.57,1.23,1.24,1.61,2.07.38-1.05.63-2.12.63-3.19,0-4.35-3.53-7.15-7.86-6.24Z"/>
  <path class="st0" d="M225.74,246.19c1.01,2.42,1.56,5.16,1.56,8.16,0,4.79-1.43,9.62-3.86,13.86-2.42,4.23-5.8,7.89-9.86,10.55-2.7,1.78-5.67,3.07-8.77,3.76-4.62,1.03-8.99.52-12.56-1.19-3.57-1.74-6.4-4.62-8.15-8.44-1.11-2.53-1.74-5.46-1.74-8.68v-.18c-.07-2.04-.89-3.71-2.19-4.75-.71-.57-1.48-.97-2.38-1.18.93-.59,1.98-1.05,3.08-1.28,4.33-.95,7.85,1.92,7.85,6.41.22,8.96,7.34,14.62,16.09,12.72,8.93-1.97,16.14-11.03,16.14-20.21,0-4.3-1.61-7.86-4.19-10.25l-6.49-6.09c-1.36-1.3-1.99-3.17-1.88-5.17.02-.99.27-2.02.69-3.03-.91.53-1.9.87-2.86,1.02-1.9.33-3.75-.15-5.13-1.4l-6.52-6.11c-2.25-2.08-3.59-5.14-3.59-8.83,0-3.96,1.51-7.88,4.04-11.01,2.54-3.17,5.98-5.53,9.79-6.37,3.84-.84,7.32,0,9.82,2.07,2.41,1.96,3.93,5.06,4.02,8.83v.08c-.05,4.49-3.53,8.83-7.86,9.78-1.09.24-2.12.24-3.06.04.9-.6,1.7-1.33,2.39-2.19,1.34-1.69,2.19-3.81,2.19-5.93,0-1.61-.47-2.96-1.27-4.03-.77-1.06-1.96-1.8-3.3-2.08-.89-.18-1.85-.19-2.92.02-1.58.37-2.97,1.15-4.15,2.25-1.23,1.1-2.19,2.5-2.72,4-.38,1.01-.6,2.06-.6,3.13s.17,1.91.51,2.71c.34.81.83,1.47,1.43,2.08v-.02l6.56,6.14c1.37,1.31,3.24,1.75,5.14,1.43.96-.16,1.94-.51,2.85-1.02-.4.99-.65,2.01-.71,3.03-.09,1.99.53,3.9,1.9,5.17l6.47,6.07c1.78,1.66,3.24,3.74,4.26,6.13ZM229.49,212.86c-1.31-1.05-2.12-2.72-2.19-4.74v-.23c0-3.17-.65-6.11-1.79-8.64-1.69-3.81-4.55-6.7-8.12-8.44-3.57-1.7-7.94-2.22-12.59-1.21-3.06.68-6.04,1.99-8.72,3.75-4.06,2.66-7.48,6.34-9.88,10.6-2.43,4.22-3.84,9.05-3.84,13.83,0,2.98.53,5.73,1.54,8.18,1.02,2.38,2.47,4.47,4.26,6.12l6.45,6.08c1.41,1.26,2.03,3.16,1.92,5.15-.05,1-.29,2.04-.71,3.04.94-.53,1.9-.87,2.85-1.02,1.92-.33,3.79.14,5.16,1.44l6.52,6.1.02.02c.61.57,1.1,1.27,1.43,2.05.34.8.51,1.71.51,2.7,0,1.11-.2,2.14-.58,3.17-.56,1.45-1.52,2.9-2.7,3.98-1.23,1.13-2.64,1.91-4.22,2.26-1.02.2-2.01.22-2.9.03-1.34-.31-2.5-1.04-3.3-2.1-.78-1.06-1.25-2.4-1.27-4.02h.02c0-2.15.83-4.26,2.19-5.94.67-.86,1.47-1.63,2.36-2.21-.94-.18-1.98-.18-3.06.05-4.31.94-7.81,5.32-7.87,9.77v.12c.11,3.74,1.62,6.87,4.04,8.84,2.54,2.01,5.98,2.88,9.79,2.03,3.84-.84,7.32-3.22,9.82-6.35,2.5-3.15,4.06-7.08,4.06-11.05,0-3.69-1.38-6.73-3.64-8.76l-6.51-6.15c-1.33-1.26-3.24-1.73-5.11-1.41-.96.13-1.94.5-2.86,1.01.4-.99.67-2.01.71-3.01.09-2.01-.53-3.9-1.9-5.19l-6.49-6.09c-2.59-2.39-4.2-5.95-4.2-10.27,0-9.18,7.24-18.21,16.11-20.16,8.77-1.93,15.91,3.73,16.12,12.72,0,4.49,3.52,7.35,7.87,6.39,1.1-.24,2.12-.7,3.06-1.32-.89-.19-1.72-.57-2.36-1.14Z"/>
  <path class="st0" d="M239.27,189.41c-4.35.93-7.9-1.87-7.9-6.23,0-1.07.25-2.15.64-3.18.38.82.92,1.5,1.59,2.04,1.36,1.08,3.24,1.51,5.31,1.06l29.77-6.31c2.08-.45,3.95-1.71,5.29-3.33.67-.83,1.23-1.73,1.61-2.73.4.88.62,1.86.62,2.96,0,4.33-3.53,8.61-7.86,9.54l-29.07,6.19ZM250.47,227.22c-.67-.54-1.49-.92-2.38-1.12.89-.57,1.72-1.28,2.38-2.11,1.37-1.63,2.19-3.7,2.19-5.77v-29.42l-13.44,2.85c-4.33.94-7.85,5.22-7.85,9.54,0,1.08.25,2.08.64,2.95.38-.99.92-1.91,1.59-2.72,1.36-1.65,3.24-2.89,5.31-3.32l7.39-1.59v23.09c0,2.06-.85,4.11-2.19,5.77-.69.82-1.49,1.52-2.4,2.1.91.18,1.71.57,2.4,1.1,1.35,1.06,2.19,2.75,2.19,4.83v31.93c0,2.06-.85,4.13-2.19,5.75-.69.84-1.49,1.55-2.4,2.12.96.18,1.98.19,3.08-.04,4.35-.93,7.88-5.18,7.88-9.53v-31.57c0-2.08-.83-3.77-2.19-4.83ZM268.33,185.46l-13.41,2.86v29.44c0,2.07.87,3.74,2.19,4.81.69.53,1.49.92,2.39,1.1-.9.56-1.7,1.3-2.39,2.12-1.31,1.63-2.19,3.69-2.19,5.73v31.6c0,4.37,3.53,7.13,7.88,6.21,1.1-.23,2.12-.66,3.08-1.28-.92-.18-1.72-.54-2.38-1.09-1.35-1.06-2.21-2.75-2.21-4.81v-31.93c0-2.08.87-4.14,2.21-5.77.67-.82,1.47-1.56,2.38-2.12-.92-.2-1.72-.55-2.38-1.1-1.35-1.06-2.21-2.75-2.21-4.83v-23.05l7.39-1.59c2.1-.43,3.95.02,5.31,1.08.67.53,1.23,1.22,1.61,2.02.4-1.02.62-2.09.62-3.16,0-4.36-3.55-7.14-7.88-6.24Z"/>
  <path class="st0" d="M328.72,70.44v31.2c0,2.1-.83,4.2-2.14,5.86-.63.83-1.44,1.55-2.34,2.15.9.19,1.71.58,2.34,1.12,1.31,1.08,2.14,2.79,2.14,4.9v30.57c-.02,4.45-3.46,8.76-7.69,9.68-1.07.25-2.1.25-3.02.06.88-.59,1.68-1.33,2.34-2.18,1.31-1.64,2.14-3.73,2.14-5.81v-30.94c0-2.11-.83-3.82-2.14-4.92-.66-.53-1.46-.91-2.34-1.11.88-.59,1.68-1.31,2.34-2.16,1.31-1.65,2.14-3.72,2.14-5.84v-31.57c0-2.07-.83-3.77-2.14-4.88-.66-.55-1.46-.92-2.34-1.1.73-.74,1.88-1.36,2.96-1.62,4.24-.9,7.74,2.19,7.76,6.58ZM339.32,107.96c.66-.83,1.44-1.58,2.34-2.13-.89-.21-1.68-.58-2.34-1.12-1.33-1.1-2.17-2.81-2.17-4.92v-31.54c0-2.1.83-4.17,2.17-5.85.66-.85,1.44-1.57,2.34-2.13-.92-.21-1.94-.21-3.02.02-4.26.91-7.71,5.26-7.71,9.66v31.2c0,2.12.82,3.82,2.14,4.92.67.55,1.47.91,2.34,1.11-.87.57-1.66,1.33-2.34,2.16-1.32,1.63-2.14,3.73-2.14,5.84v30.59c0,4.42,3.45,7.21,7.71,6.27,1.07-.23,2.1-.68,3.02-1.27-.89-.18-1.68-.58-2.34-1.11-1.33-1.1-2.17-2.8-2.17-4.91v-30.98c0-2.08.83-4.18,2.17-5.83Z"/>
  <path class="st0" d="M59.19,193.81v-32.31c0-2.63.94-5.33,2.42-7.45.74-1.03,1.63-1.99,2.64-2.75-1.04-.24-2.2-.24-3.41.05l-18.19,4.54c-2.29.58-4.37-.01-5.87-1.37-.74-.71-1.36-1.61-1.78-2.67-.44,1.37-.67,2.72-.67,4.15,0,5.64,3.91,9.24,8.69,8.05l9.11-2.27v33.79c0,11.54-7.97,22.84-17.8,25.3-9.85,2.46-17.81-4.89-17.81-16.41v-23.4c0-2.69-.94-4.9-2.42-6.26-.77-.69-1.65-1.19-2.64-1.44.99-.75,1.87-1.66,2.64-2.75,1.48-2.13,2.42-4.77,2.42-7.45v-27.26c0-11.52,7.97-22.84,17.81-25.3,9.7-2.42,17.58,4.73,17.77,15.98h.03c0,5.64,3.93,9.21,8.71,8.03,1.21-.29,2.37-.9,3.41-1.66-1.01-.2-1.9-.73-2.64-1.37-1.48-1.43-2.42-3.64-2.42-6.3,0-4-.72-7.66-1.98-10.84-1.88-4.77-5.03-8.42-9.01-10.59-3.92-2.15-8.76-2.78-13.87-1.5-3.43.84-6.71,2.5-9.67,4.7-4.49,3.33-8.24,7.95-10.93,13.24-2.69,5.35-4.24,11.37-4.24,17.36v27.27c0,2.67-.94,5.33-2.42,7.45-.79,1.1-1.67,2.01-2.67,2.75.99.25,1.88.76,2.67,1.42,1.48,1.39,2.42,3.57,2.42,6.26v23.4c0,3.97.66,7.67,1.92,10.87,1.9,4.75,5.06,8.4,9.01,10.55,3.97,2.15,8.81,2.77,13.91,1.5,3.41-.84,6.69-2.47,9.68-4.69,3.1-2.35,5.88-5.31,8.2-8.68v1.33c0,4.38,3.86,7.15,8.61,6.22,1.2-.23,2.32-.66,3.37-1.29-1-.18-1.88-.54-2.61-1.09-1.47-1.06-2.42-2.76-2.42-4.82v-20.96c.02-.44.03-.89.03-1.33Z"/>
  <path class="st0" d="M37.57,139.63c1.04.22,2.17.25,3.38-.07,4.73-1.16,8.58-6.54,8.68-12.09-.05-4.86-1.75-8.86-4.47-11.38-2.79-2.56-6.62-3.63-10.84-2.59-4.24,1.06-8.07,4.03-10.86,7.96-2.76,3.96-4.46,8.86-4.46,13.84v27.23c0,2.71.91,4.9,2.39,6.3.77.69,1.66,1.16,2.67,1.39-1.01.77-1.91,1.72-2.67,2.77-1.48,2.11-2.39,4.77-2.39,7.45v23.41c0,4.94,1.7,8.99,4.46,11.57,2.79,2.56,6.62,3.62,10.86,2.56,4.22-1.04,8.05-4.01,10.84-7.96,2.76-3.96,4.49-8.86,4.49-13.82v-30.89l-6.64,1.66c-4.79,1.19-8.69,6.71-8.69,12.34,0,1.44.23,2.73.67,3.83.42-1.25,1.04-2.48,1.78-3.52,1.5-2.14,3.52-3.71,5.82-4.3v22.63c0,1.37-.23,2.68-.64,3.93-.62,1.89-1.68,3.66-3.04,5.04-1.31,1.39-2.86,2.39-4.59,2.81-1.16.28-2.24.27-3.25.05-1.44-.4-2.72-1.29-3.63-2.64-.89-1.35-1.41-3.01-1.41-5.08v-23.37c0-2.69.91-5.35,2.42-7.46.76-1.07,1.65-2.01,2.62-2.76-.96-.25-1.85-.75-2.62-1.39-1.51-1.41-2.42-3.6-2.42-6.3v-27.24c0-1.39.22-2.69.66-3.91.59-1.9,1.68-3.7,2.99-5.04,1.34-1.4,2.86-2.38,4.64-2.85,1.14-.25,2.23-.26,3.24,0,1.45.36,2.73,1.25,3.62,2.6.89,1.36,1.41,3.04,1.41,5.08,0,2.69-.92,5.32-2.42,7.46-.74,1.04-1.63,2.02-2.62,2.75Z"/>
  <path class="st0" d="M217.57,168.72l-26.98,5.7v-31.68c0-2.06-.85-3.72-2.21-4.8-.67-.54-1.47-.92-2.38-1.1.91-.6,1.72-1.31,2.38-2.12,1.37-1.63,2.21-3.7,2.21-5.78v-31.67l26.98-5.73c4.36-.94,7.86-5.22,7.86-9.57,0-1.07-.22-2.07-.63-2.93-.38.96-.94,1.9-1.61,2.71-1.34,1.67-3.21,2.9-5.29,3.34,0,0-34.65,7.36-35.19,7.46-1.09.24-2.12.69-3.08,1.29.92.18,1.72.55,2.39,1.11,1.36,1.07,2.19,2.73,2.19,4.79v30.56c0,2.07-.83,4.12-2.19,5.75-.67.81-1.47,1.54-2.39,2.11.92.2,1.72.58,2.39,1.12,1.36,1.05,2.19,2.75,2.19,4.83v30.52c0,1.38-.4,2.76-1.07,4.03-1.84-1.35-2.95-3.03-2.95-3.03l-18.56-28.97c3.43-2.48,6.4-5.68,8.5-9.29,2.45-4.08,3.88-8.78,3.88-13.41v-7.49c0-3.06-.62-5.91-1.76-8.37-1.74-3.68-4.55-6.48-8.15-8.16-3.57-1.65-7.94-2.14-12.56-1.16,0,0-23.48,4.98-23.99,5.09-1.1.24-2.15.69-3.08,1.28.89.18,1.72.57,2.39,1.1,1.37,1.08,2.19,2.76,2.19,4.83v30.51c0,2.09-.82,4.13-2.19,5.77-.67.84-1.49,1.55-2.39,2.12.89.17,1.72.58,2.39,1.11,1.37,1.06,2.19,2.74,2.19,4.8v30.55c0,2.06-.82,4.12-2.19,5.77-.67.83-1.49,1.52-2.39,2.11.93.19,1.98.19,3.08-.04,4.35-.93,7.85-5.18,7.88-9.53v-30.19c0-2.08-.87-3.77-2.23-4.85-.65-.5-1.45-.9-2.34-1.08.89-.58,1.7-1.28,2.34-2.1,1.36-1.66,2.23-3.71,2.23-5.79v-31.67l16.11-3.42c8.88-1.89,16.09,3.77,16.09,12.67v7.51c0,8.36-6.36,16.55-14.46,19.1l20.01,32.3-.07.04.07-.02c1.56,3.63,6.14,5.91,10.23,5.6.53-.03,1.12-.07,1.85-.19.54-.08,32.64-7.17,32.64-7.17,2.08-.42,3.95,0,5.29,1.06.67.54,1.23,1.23,1.61,2.05.4-1.02.63-2.12.63-3.2,0-4.35-3.5-7.1-7.86-6.18Z"/>
  <path class="st0" d="M223.2,156.67c-1.34,1.67-3.21,2.91-5.29,3.32l-18.72,4.01v-22.5l11.23-2.38c2.07-.45,3.93.02,5.28,1.08.69.53,1.23,1.22,1.61,2.04.4-1.05.63-2.14.63-3.22,0-4.34-3.53-7.09-7.86-6.2l-14.53,3.09c-.16.18-.36.4-.53.6-1.34,1.64-2.17,3.69-2.17,5.77v29.41l24.72-5.24c4.36-.94,7.86-5.23,7.86-9.57,0-1.08-.22-2.08-.63-2.93-.38.98-.94,1.92-1.61,2.71Z"/>
  <path class="st0" d="M217.57,93.78l-24.72,5.25v29.45c0,2.06.83,3.75,2.17,4.81.2.12.38.24.56.37l14.5-3.11c4.33-.91,7.86-5.19,7.86-9.51,0-1.1-.22-2.1-.63-2.93-.38.96-.92,1.88-1.61,2.71-1.36,1.66-3.21,2.86-5.28,3.3l-11.23,2.4v-22.46l18.72-3.99c2.08-.44,3.95,0,5.29,1.07.67.53,1.23,1.23,1.61,2.05.4-1.05.63-2.15.63-3.22,0-4.35-3.5-7.12-7.86-6.2Z"/>
  <path class="st0" d="M150.77,145.01l-10.38,2.2c-.18.2-.34.41-.52.6-1.35,1.64-2.21,3.68-2.21,5.75v30.18c0,4.36,3.53,7.15,7.87,6.22,1.12-.22,2.12-.67,3.08-1.26-.87-.19-1.7-.56-2.39-1.11-1.36-1.07-2.19-2.76-2.19-4.82v-29.96l2.41-.5,17.58,26.77c.85,1.9.73,3.77-.09,5.29-.42.78-1,1.46-1.76,1.99,1.12.16,2.23.18,3.35-.08,4.33-.92,6.94-5,5.24-9l-20.01-32.25Z"/>
  <path class="st0" d="M140.41,144.97l11.13-2.36c3.84-.82,7.28-3.1,9.77-6.11,2.52-3.06,4.09-6.85,4.09-10.69v-7.49c0-3.85-1.56-6.95-4.09-8.94-2.5-1.97-5.94-2.8-9.77-1.99l-13.88,2.96v29.41c0,2.1.85,3.78,2.21,4.84.18.14.34.29.54.38ZM144.05,115.35l7.5-1.58c1.04-.22,1.98-.21,2.9-.02,1.34.24,2.48.98,3.28,2.02.83,1.02,1.31,2.32,1.31,3.9v7.49c0,1.06-.24,2.06-.62,3.04-.54,1.45-1.52,2.83-2.7,3.88-1.2,1.07-2.61,1.8-4.17,2.18l-7.5,1.56v-22.47Z"/>
  <path class="st0" d="M93.85,118.01c-3.84.82-7.28,3.1-9.8,6.15-2.52,3.04-4.08,6.84-4.08,10.68v16.29c.02,2.05.87,3.71,2.21,4.79.67.55,1.49.92,2.39,1.11-.9.58-1.72,1.3-2.39,2.12-1.34,1.62-2.19,3.68-2.21,5.75v16.28c0,3.82,1.56,6.95,4.08,8.94,2.52,1.98,5.96,2.8,9.8,1.99,3.82-.82,7.28-3.1,9.79-6.15,2.5-3.06,4.07-6.83,4.07-10.65v-16.28c0-2.07-.85-3.77-2.21-4.83-.67-.52-1.47-.91-2.39-1.1.92-.58,1.72-1.28,2.39-2.12,1.36-1.64,2.21-3.68,2.21-5.78v-16.24c0-3.82-1.56-6.98-4.07-8.95-2.52-1.98-5.98-2.81-9.79-2ZM101.32,146.55c0,2.09-.83,4.14-2.17,5.77-.69.84-1.51,1.53-2.38,2.11.87.2,1.69.59,2.38,1.12,1.34,1.06,2.17,2.75,2.17,4.81v16.3c0,1.01-.2,2.05-.58,3.02-.56,1.46-1.51,2.84-2.72,3.88-1.19,1.06-2.59,1.85-4.17,2.18-1.07.2-2.03.2-2.93.01-1.33-.25-2.5-.96-3.3-2.01-.83-1.04-1.25-2.32-1.27-3.91v-16.29c0-2.05.85-4.14,2.21-5.75.65-.81,1.47-1.55,2.36-2.12-.89-.19-1.72-.55-2.36-1.08-1.37-1.09-2.21-2.78-2.21-4.85v-16.28c0-1.05.22-2.07.58-3.04.58-1.46,1.52-2.81,2.75-3.88,1.18-1.05,2.61-1.81,4.17-2.13,1.05-.25,2.01-.25,2.9-.05,1.34.28,2.5.98,3.33,2.02.78,1.03,1.25,2.34,1.25,3.91v16.25ZM118.51,148.2c-1.35-1.07-2.19-2.76-2.19-4.83v-16.25c0-3.09-.62-5.95-1.76-8.4-1.72-3.67-4.56-6.49-8.12-8.13-3.59-1.68-7.97-2.16-12.59-1.18-3.08.65-6.07,1.92-8.77,3.63-4.02,2.57-7.45,6.14-9.89,10.23-2.4,4.1-3.84,8.76-3.84,13.4v16.26c0,2.07-.82,4.13-2.19,5.77-.67.84-1.47,1.54-2.38,2.11.92.2,1.72.59,2.38,1.11,1.36,1.06,2.19,2.76,2.19,4.81v16.29c0,3.09.65,5.92,1.79,8.4,1.7,3.65,4.55,6.46,8.12,8.13,3.59,1.67,7.94,2.18,12.59,1.18,3.08-.66,6.04-1.92,8.72-3.63,4.09-2.61,7.48-6.16,9.91-10.23,2.43-4.12,3.84-8.77,3.84-13.38v-16.28c0-2.08.85-4.15,2.19-5.77.68-.82,1.49-1.56,2.38-2.14-.89-.18-1.7-.54-2.38-1.09ZM112.14,152.78c-1.36,1.62-2.21,3.69-2.21,5.75v16.3c0,8.89-7.21,17.64-16.09,19.54-8.88,1.86-16.11-3.82-16.11-12.7v-16.29c0-2.06-.83-3.76-2.21-4.81-.67-.53-1.5-.94-2.36-1.1.87-.59,1.7-1.29,2.36-2.12,1.39-1.65,2.21-3.69,2.21-5.77v-16.27c0-8.91,7.23-17.63,16.11-19.53,8.88-1.86,16.09,3.79,16.09,12.68v16.29c0,2.06.85,3.75,2.21,4.81.67.54,1.47.92,2.39,1.11-.92.57-1.72,1.3-2.39,2.11Z"/>
  <path class="st0" d="M265.95,83.95l-13.41,2.89v29.73c0,2.09.87,3.78,2.19,4.86.69.53,1.49.93,2.39,1.11-.9.57-1.7,1.32-2.39,2.14-1.31,1.65-2.19,3.73-2.19,5.78v30.5c0,4.42,3.53,7.2,7.88,6.27,1.1-.24,2.12-.67,3.08-1.3-.92-.19-1.72-.55-2.38-1.1-1.35-1.07-2.21-2.78-2.21-4.86v-30.83c0-2.1.87-4.18,2.21-5.82.67-.82,1.47-1.58,2.38-2.14-.92-.21-1.72-.56-2.38-1.11-1.35-1.07-2.21-2.78-2.21-4.88v-23.28l7.39-1.61,11.32-2.24,7.39-1.61v23.32c0,2.08-.85,4.15-2.19,5.82-.69.82-1.49,1.53-2.4,2.12.91.19,1.71.58,2.4,1.11,1.35,1.07,2.19,2.78,2.19,4.88v30.83c0,2.08-.85,4.17-2.19,5.8-.69.84-1.49,1.57-2.4,2.14.96.18,1.98.2,3.08-.04,4.35-.94,7.88-5.23,7.88-9.62v-30.47c0-2.1-.83-3.81-2.19-4.88-.67-.55-1.49-.93-2.38-1.13.89-.58,1.72-1.3,2.38-2.13,1.37-1.65,2.19-3.74,2.19-5.82v-29.71l-13.44,2.88-11.97,2.38Z"/>
  <path class="st0" d="M307.02,75.31l-13.41,2.89v29.73c0,2.09.87,3.78,2.19,4.86.69.53,1.49.93,2.39,1.11-.9.57-1.7,1.32-2.39,2.14-1.31,1.65-2.19,3.73-2.19,5.78v30.5c0,4.42,3.53,7.2,7.88,6.27,1.1-.24,2.12-.67,3.08-1.3-.92-.19-1.72-.55-2.38-1.1-1.35-1.07-2.21-2.78-2.21-4.86v-30.83c0-2.1.87-4.18,2.21-5.82.67-.82,1.47-1.58,2.38-2.14-.92-.21-1.72-.56-2.38-1.11-1.35-1.07-2.21-2.78-2.21-4.88v-23.28l7.39-1.61c2.1-.43,3.95.02,5.31,1.09.67.53,1.23,1.23,1.61,2.04.4-1.03.62-2.11.62-3.19,0-4.41-3.55-7.21-7.88-6.3Z"/>
  <path class="st0" d="M236.89,87.94l29.07-6.25,11.99-2.39,29.07-6.25c4.33-.94,7.86-5.26,7.86-9.63,0-1.1-.22-2.1-.62-2.98-.38,1.01-.94,1.91-1.61,2.76-1.34,1.64-3.21,2.91-5.29,3.37l-29.77,6.37-11.3,2.27-29.77,6.37c-2.07.45-3.95.02-5.31-1.07-.67-.55-1.21-1.24-1.59-2.06-.4,1.04-.64,2.13-.64,3.21,0,4.4,3.55,7.22,7.9,6.29Z"/>
  <path class="st0" d="M228.99,99.84c0,1.09.25,2.1.64,2.98.38-1,.92-1.93,1.59-2.75,1.36-1.67,3.24-2.92,5.31-3.35l7.39-1.61v23.32c0,2.08-.85,4.15-2.19,5.82-.69.82-1.49,1.53-2.4,2.12.91.19,1.71.58,2.4,1.11,1.35,1.07,2.19,2.78,2.19,4.88v30.83c0,2.08-.85,4.17-2.19,5.8-.69.84-1.49,1.57-2.4,2.14.96.18,1.98.2,3.08-.04,4.35-.94,7.88-5.23,7.88-9.62v-30.47c0-2.1-.83-3.81-2.19-4.88-.67-.55-1.49-.93-2.38-1.13.89-.58,1.72-1.3,2.38-2.13,1.37-1.65,2.19-3.74,2.19-5.82v-29.71l-13.44,2.88c-4.33.95-7.85,5.27-7.85,9.63Z"/>
</svg>