<?xml version="1.0" encoding="UTF-8"?>
<svg xmlns="http://www.w3.org/2000/svg" xmlns:i="http://ns.adobe.com/AdobeIllustrator/10.0/" version="1.1" viewBox="0 0 288 288">
  <defs>
    <style>
      .cls-1 {
        fill: #f9f7f4;
      }

      .cls-2 {
        fill: #283349;
      }

      .cls-3 {
        fill: #ec1c24;
      }
    </style>
  </defs>
  <!-- Generator: Adobe Illustrator 28.6.0, SVG Export Plug-In . SVG Version: 1.2.0 Build 709)  -->
  <g>
    <g id="Layer_1">
      <g>
        <g>
          <path class="cls-1" d="M173.29,227.91c.06-.16.04-1.43.04-1.43l1.59-.29-.04,1.6c0,.49-.08,1.33-.96,1.63-.24.08-1.42.28-1.62.21.37-.04.95-.91.99-1.72Z"/>
          <path class="cls-1" d="M82.46,233.45c-.66.12-1.26.49-1.71,1-.45.51-.74,1.15-.76,1.81l-.09,2.79c0,.35.13.64.35.83.11.1.25.17.4.2-.16.09-.3.21-.42.35-.24.27-.39.62-.41.97l-.09,2.79c-.02.65.23,1.2.65,1.55.42.35,1.01.51,1.67.39.66-.12,1.26-.49,1.71-1,.44-.51.73-1.15.75-1.8l.09-2.79c.01-.35-.13-.65-.35-.84-.11-.09-.25-.16-.4-.2.16-.09.3-.21.42-.35.24-.27.4-.62.41-.98l.09-2.78c.02-.65-.23-1.2-.65-1.55-.42-.35-1.01-.51-1.67-.39ZM83.59,238.38c-.01.36-.16.7-.4.98-.12.14-.27.25-.42.35.15.04.29.11.4.2.22.19.36.48.35.84l-.09,2.79c0,.17-.04.35-.12.51-.1.25-.27.48-.49.65-.21.18-.45.3-.73.35-.18.03-.35.02-.5-.01-.23-.05-.42-.18-.55-.36-.14-.18-.2-.4-.2-.68l.09-2.79c.01-.35.17-.7.41-.97.12-.13.26-.26.42-.35-.15-.04-.29-.1-.4-.2-.23-.19-.36-.49-.35-.84l.09-2.79c0-.18.05-.35.12-.52.11-.25.28-.47.49-.65.21-.17.46-.3.73-.34.18-.04.35-.03.5,0,.23.05.42.18.56.36.13.18.2.41.19.68l-.09,2.78ZM86.52,238.75c-.22-.19-.36-.48-.35-.84l.09-2.78c.02-.53-.07-1.02-.26-1.45-.28-.64-.75-1.14-1.35-1.44-.61-.31-1.35-.41-2.15-.27-.53.1-1.05.3-1.52.57-.7.42-1.31,1.01-1.75,1.7-.43.69-.7,1.48-.73,2.27l-.09,2.78c-.01.35-.16.7-.41.98-.12.14-.26.26-.42.35.16.04.29.11.4.2.23.19.36.48.35.84l-.09,2.79c-.02.53.08,1.02.26,1.45.27.63.75,1.13,1.35,1.44.61.31,1.35.42,2.15.27.53-.1,1.05-.3,1.51-.57.71-.43,1.31-1.01,1.75-1.7.44-.69.7-1.48.73-2.27l.09-2.79c.01-.36.17-.71.41-.98.12-.14.26-.26.42-.35-.15-.04-.29-.1-.4-.2ZM85.41,239.5c-.24.27-.4.62-.41.97l-.09,2.79c-.05,1.52-1.33,2.98-2.86,3.26-1.53.27-2.74-.74-2.69-2.26l.09-2.79c.01-.35-.12-.65-.35-.84-.11-.09-.25-.17-.4-.2.15-.1.3-.21.42-.35.25-.28.4-.62.41-.98l.09-2.79c.05-1.53,1.33-2.98,2.86-3.26,1.53-.27,2.74.74,2.69,2.26l-.09,2.79c-.01.35.13.65.35.84.11.1.25.16.4.2-.16.09-.3.21-.42.35Z"/>
          <path class="cls-1" d="M209.41,217.48l5.23-1.24.05,2.35c.02.76-.57,1.52-1.32,1.69-.19.05-.36.05-.52.01.15-.1.28-.23.4-.37.23-.29.36-.65.35-1.01h0s-.03-1.3-.03-1.3l-5.07,1.2-.03-1.69,4.72-11.23c.16-.4.17-.73.05-.94-.06-.1-.16-.17-.28-.21.19-.12.39-.2.57-.25.74-.18,1.19.33.84,1.18l-4.96,11.81ZM216.05,213.08c0-.36.13-.72.35-1.01.11-.15.25-.28.41-.38-.16-.03-.34-.03-.53.02-.74.18-1.33.93-1.32,1.69h0s.1,5.1.1,5.1h0c.02.76.63,1.23,1.37,1.06.19-.05.36-.13.52-.23-.16-.03-.3-.09-.42-.18-.23-.19-.38-.48-.39-.84l-.11-5.22ZM217.37,203.68c-.18.11-.36.25-.53.41-.34.32-.63.71-.8,1.12l-3.07,7.32c.08-.03.16-.06.24-.08.74-.18,1.36.3,1.37,1.06l.05,2.35-4.61,1.1s4.84-11.53,4.89-11.61c.41-.77,1.32-1.49,1.99-1.65.19-.05.35-.04.47,0ZM212.88,212.73l-1.13,2.69,1.77-.42-.03-1.31h0c0-.36-.15-.65-.39-.84-.07-.05-.14-.09-.22-.13Z"/>
          <path class="cls-1" d="M193.7,210.02c-.66.14-1.25.52-1.68,1.04-.43.52-.7,1.16-.7,1.82v7.9c-.01.65.26,1.18.68,1.52.43.34,1.02.48,1.68.34.65-.14,1.25-.53,1.68-1.05.43-.52.7-1.16.7-1.82v-7.9c.01-.65-.26-1.19-.69-1.52-.43-.34-1.02-.48-1.68-.34ZM194.98,220.01c0,.18-.04.35-.1.52-.1.25-.26.48-.47.66-.2.18-.44.31-.71.37-.18.04-.35.04-.5,0-.23-.05-.42-.17-.56-.34-.14-.17-.22-.4-.22-.67v-7.9c0-.18.04-.35.11-.52.1-.25.26-.48.47-.67.21-.18.45-.31.72-.37.18-.04.35-.04.5,0,.23.05.43.17.57.34.13.18.22.4.22.67v7.9ZM197.25,210.14c-.29-.63-.78-1.1-1.39-1.39-.62-.29-1.37-.36-2.15-.2-.53.11-1.04.33-1.5.62-.69.43-1.28,1.04-1.7,1.74-.41.7-.65,1.49-.66,2.28v7.9c-.01.52.1,1.01.29,1.43.29.63.78,1.11,1.39,1.39.61.28,1.36.37,2.16.2.53-.1,1.04-.32,1.5-.61.69-.44,1.28-1.04,1.7-1.75.41-.7.66-1.49.66-2.28v-7.9c.01-.53-.1-1.01-.29-1.43ZM196.46,219.7c0,1.51-1.24,3-2.77,3.32-1.53.32-2.76-.65-2.76-2.16v-7.9c.01-1.52,1.25-3.01,2.77-3.33,1.53-.32,2.76.65,2.76,2.17v7.9Z"/>
          <path class="cls-1" d="M181.87,225.67l5.25-1.21c.74-.17,1.35.31,1.36,1.06,0,.19-.03.38-.1.56-.07-.14-.16-.26-.28-.35-.23-.18-.56-.25-.91-.17,0,0-6.56,1.51-6.65,1.53-.19.05-.36.05-.53.01.15-.1.29-.23.4-.37.23-.29.37-.65.37-1.01l-.04-2.6c0-.5.08-1.01.24-1.49.17-.48.41-.94.72-1.35h0s3.73-5.19,3.73-5.19c.1-.14.19-.29.24-.45.05-.16.08-.32.08-.49,0-.28-.09-.5-.23-.68-.14-.18-.34-.29-.57-.34-.15-.03-.32-.03-.49.01-.27.06-.51.2-.71.39-.2.19-.37.43-.45.68-.06.17-.1.34-.1.52h0c0,.36.15.65.39.84.12.09.26.15.41.18-.16.11-.34.18-.52.22-.74.17-1.35-.29-1.37-1.04,0-.65.26-1.29.67-1.81.42-.54,1.01-.94,1.67-1.09.65-.15,1.25-.02,1.68.32.44.34.71.88.72,1.54,0,.62-.22,1.24-.59,1.76l-3.73,5.19c-.44.6-.7,1.31-.69,2.04l.04,2.8ZM188.43,222.39c0-.19-.04-.36-.11-.51-.07.17-.16.34-.27.47-.23.29-.55.51-.9.59h0l-3.84.88-.02-1.3c0-.17.02-.34.08-.49.05-.16.14-.31.24-.45h0s3.73-5.2,3.73-5.2c.3-.41.54-.86.71-1.35.17-.48.25-.99.25-1.49,0-.54-.12-1.03-.32-1.45-.3-.64-.8-1.12-1.41-1.4-.62-.28-1.37-.36-2.16-.17-.53.12-1.04.35-1.49.65-.69.46-1.27,1.08-1.67,1.8-.41.72-.63,1.53-.62,2.34v.03c0,.35-.14.69-.36.98-.11.14-.25.27-.4.37.17.03.34.03.53-.01.74-.17,1.34-.93,1.33-1.68h0c.01-1.52,1.21-3.02,2.71-3.37,1.52-.35,2.77.62,2.79,2.17,0,.72-.26,1.44-.69,2.04l-3.73,5.19c-.38.52-.6,1.13-.6,1.76l.03,2.41,4.86-1.12h0c.74-.17,1.34-.92,1.33-1.68Z"/>
          <path class="cls-1" d="M200.84,221.55l5.25-1.21c.74-.17,1.35.31,1.36,1.06,0,.19-.03.38-.1.56-.07-.14-.16-.26-.28-.35-.23-.18-.56-.25-.91-.17,0,0-6.56,1.51-6.65,1.53-.19.05-.36.05-.53.01.15-.1.29-.23.4-.37.23-.29.37-.65.37-1.01l-.04-2.6c0-.5.08-1.01.24-1.49.17-.48.41-.94.72-1.35h0s3.73-5.19,3.73-5.19c.1-.14.19-.29.24-.45.05-.16.08-.32.08-.49,0-.28-.09-.5-.23-.68-.14-.18-.34-.29-.57-.34-.15-.03-.32-.03-.49.01-.27.06-.51.2-.71.39-.2.19-.37.43-.45.68-.06.17-.1.34-.1.52h0c0,.36.15.65.39.84.12.09.26.15.41.18-.16.11-.34.18-.52.22-.74.17-1.35-.29-1.37-1.04,0-.65.26-1.29.67-1.81.42-.54,1.01-.94,1.67-1.09.65-.15,1.25-.02,1.68.32.44.34.71.88.72,1.54,0,.62-.22,1.24-.59,1.76l-3.73,5.19c-.44.6-.7,1.31-.69,2.04l.04,2.8ZM207.41,218.28c0-.19-.04-.36-.11-.51-.07.17-.16.34-.27.47-.23.29-.55.51-.9.59h0l-3.84.88-.02-1.3c0-.17.02-.34.08-.49.05-.16.14-.31.24-.45h0s3.73-5.2,3.73-5.2c.3-.41.54-.86.71-1.35.17-.48.25-.99.25-1.49,0-.54-.12-1.03-.32-1.45-.3-.64-.8-1.12-1.41-1.4-.62-.28-1.37-.36-2.16-.17-.53.12-1.04.35-1.49.65-.69.46-1.27,1.08-1.67,1.8-.41.72-.63,1.53-.62,2.34v.03c0,.35-.14.69-.36.98-.11.14-.25.27-.4.37.17.03.34.03.53-.01.74-.17,1.34-.93,1.33-1.68h0c.01-1.52,1.21-3.02,2.71-3.37,1.52-.35,2.77.62,2.79,2.17,0,.72-.26,1.44-.69,2.04l-3.73,5.19c-.38.52-.6,1.13-.6,1.76l.03,2.41,4.86-1.12h0c.74-.17,1.34-.92,1.33-1.68Z"/>
          <path class="cls-1" d="M169.67,217.55h0c-.02.74-.65,1.46-1.4,1.59-.18.03-.36.03-.52,0,.16-.09.3-.21.42-.35.24-.27.4-.62.41-.98v-.06c0-.27-.07-.5-.2-.68-.14-.18-.33-.31-.55-.36-.16-.03-.32-.04-.5,0-.27.05-.51.17-.73.35-.22.18-.38.4-.49.65-.07.17-.11.34-.12.52l-.08,2.68,1.29-.23c.8-.14,1.55-.04,2.15.27.6.31,1.07.8,1.35,1.44.18.43.27.92.26,1.44l-.04,1.41c-.02.79-.29,1.58-.73,2.27-.43.69-1.04,1.29-1.75,1.71-.47.28-.98.48-1.52.57-.8.15-1.54.04-2.15-.27-.6-.3-1.07-.8-1.34-1.44-.18-.43-.28-.92-.26-1.44l.25-7.94c.02-.79.29-1.58.73-2.27.43-.69,1.04-1.28,1.74-1.7.47-.28.99-.48,1.52-.57.8-.14,1.55-.04,2.15.27.6.31,1.07.8,1.35,1.44.18.42.27.92.26,1.45h0v.06c-.01.36.12.65.35.84.12.09.24.16.4.2-.17.1-.35.17-.53.2-.75.14-1.34-.36-1.32-1.1h0c.05-1.53-1.16-2.54-2.69-2.26-1.54.27-2.82,1.73-2.86,3.26l-.25,7.94c-.05,1.52,1.16,2.54,2.69,2.26,1.54-.28,2.82-1.73,2.86-3.26l.04-1.4c.05-1.52-1.16-2.53-2.69-2.26l-2.39.43.12-3.78c.02-.66.3-1.3.74-1.8.45-.51,1.05-.88,1.71-1,.66-.12,1.25.03,1.67.39.42.35.67.89.65,1.55ZM164.76,222.57h0l2.39-.43c.66-.12,1.25.04,1.67.39.42.36.67.9.65,1.55l-.04,1.41c-.02.65-.31,1.3-.75,1.8-.45.51-1.05.88-1.71,1-.66.12-1.25-.04-1.67-.39-.42-.35-.66-.9-.64-1.55l.12-3.78ZM165.74,226.15c0,.27.06.49.2.67.13.18.33.31.55.36.15.04.31.04.5.01.27-.05.51-.17.73-.35.21-.18.38-.4.48-.65.07-.16.11-.34.12-.52l.04-1.4c0-.27-.07-.49-.2-.67-.14-.18-.33-.31-.55-.36-.16-.04-.32-.04-.5-.02l-1.29.23h0s-.08,2.69-.08,2.69Z"/>
          <path class="cls-1" d="M155.47,227v1.41c0,.79-.25,1.59-.67,2.29-.42.7-1.01,1.31-1.7,1.75-.46.29-.97.5-1.5.62-.8.16-1.54.08-2.15-.21-.62-.29-1.1-.77-1.39-1.4-.19-.42-.3-.91-.3-1.44h0c0-.35-.14-.64-.37-.83-.12-.09-.26-.16-.41-.19.16-.1.34-.18.53-.21.75-.15,1.35.32,1.35,1.06h0c.03,1.49,1.25,2.44,2.75,2.13,1.52-.32,2.77-1.82,2.77-3.34v-1.41c.01-1.52-1.23-2.5-2.75-2.19l-2.38.5.02-6.04,4.57-.95c.75-.15,1.35.32,1.34,1.07,0,.19-.04.37-.11.55-.06-.14-.16-.26-.28-.35-.23-.18-.55-.26-.9-.19l-3.53.74v3.85s1.27-.27,1.27-.27c.79-.17,1.54-.08,2.15.21.61.29,1.1.77,1.39,1.4.19.42.3.91.3,1.43ZM147.79,219.63l-.03,7.7,3.86-.8c.18-.03.35-.03.5,0,.23.05.43.17.57.35.14.18.22.4.22.67v1.41c0,.18-.04.35-.11.51-.1.25-.27.48-.47.67-.21.18-.45.31-.72.36-.18.04-.35.04-.5,0-.23-.05-.42-.17-.56-.34-.14-.18-.22-.41-.22-.67,0-.36.15-.71.38-.99.11-.14.25-.26.41-.36-.16-.04-.34-.04-.52,0-.74.16-1.34.87-1.36,1.61,0,.64.28,1.17.69,1.5.44.34,1.03.48,1.68.34.66-.14,1.25-.52,1.68-1.05.43-.52.7-1.17.7-1.82v-1.41c0-.66-.26-1.2-.69-1.53-.43-.34-1.02-.48-1.68-.34l-2.76.58.02-6.81,4.94-1.03c.75-.16,1.35-.88,1.35-1.63,0-.19-.04-.35-.1-.5-.07.17-.16.33-.28.47-.23.28-.55.49-.9.56,0,0-6.35,1.32-6.36,1.33-.19.04-.36.11-.53.21.16.03.29.1.41.19.23.19.37.48.37.83Z"/>
          <path class="cls-1" d="M139.83,224.98v-1.3h0c0-.67-.27-1.21-.71-1.55-.43-.34-1.02-.48-1.68-.34l-2.38.52.02,5.12c0,.37.15.66.38.84.03.02.06.05.09.07l1.91-.42c.66-.14,1.24-.54,1.67-1.07.43-.53.7-1.2.69-1.86ZM138.74,223.92v1.3c0,.18-.03.36-.1.53-.09.25-.26.49-.46.68-.21.19-.45.32-.71.38l-1.28.28h0l-.02-3.91,1.28-.28c.18-.04.34-.04.5,0,.23.04.43.17.56.35.14.18.23.4.23.68h0ZM142.7,234.69c-.14.1-.3.18-.49.22-.75.17-1.67-.25-1.97-.94h-.01s.01,0,.01,0l-2.49-5.72c1.39-.45,2.47-1.88,2.46-3.34v-1.31h0c0-1.55-1.25-2.53-2.77-2.19l-2.76.61.02,5.51c0,.36-.15.72-.38,1.01-.11.14-.25.27-.4.37.15.03.29.1.4.19.23.19.38.48.39.84l.02,5.25c0,.76-.6,1.5-1.34,1.66-.19.04-.37.04-.53,0,.15-.1.29-.22.41-.37.23-.29.37-.65.37-1.01l-.02-5.32c0-.36-.14-.65-.38-.83-.11-.09-.26-.16-.41-.19.15-.1.29-.22.41-.37.23-.29.37-.64.37-1.01l-.02-5.31c0-.36-.14-.65-.38-.84-.11-.09-.26-.16-.41-.19.16-.1.34-.18.53-.23.09-.02,4.11-.9,4.11-.9.79-.17,1.54-.09,2.15.19.62.29,1.1.78,1.4,1.42.2.43.31.92.31,1.46h0v1.3c0,.81-.23,1.63-.65,2.34-.36.63-.86,1.19-1.45,1.62l2.24,5.14c.14.33.41.59.74.76.16.09.34.14.52.16ZM137.34,228.34l2.49,5.71c.29.69-.15,1.41-.89,1.57-.19.05-.38.04-.57.02.13-.09.23-.21.3-.35.14-.26.16-.59.01-.92l-2.07-4.76-.41.09.02,5.22c0,.36.15.65.38.84.12.1.26.16.41.19-.16.1-.34.18-.53.22-.74.17-1.35-.32-1.35-1.08l-.02-5.25c0-.36.14-.72.37-1,.03-.03.06-.07.09-.11l1.78-.39Z"/>
          <path class="cls-1" d="M98.12,229.72c-.75.16-1.35-.32-1.35-1.07,0-.18.04-.37.11-.54.06.14.16.26.27.35.23.19.55.26.91.18h0l5.11-1.06c.36-.08.68-.29.91-.57.12-.14.21-.3.28-.47.07.15.11.32.1.51,0,.74-.61,1.47-1.35,1.63l-4.99,1.04ZM100.02,236.21c-.11-.09-.26-.16-.41-.19.15-.1.29-.22.41-.36.24-.28.38-.63.38-.99l.02-5.04-2.3.48c-.74.16-1.35.89-1.35,1.63,0,.19.04.36.11.51.07-.17.16-.33.27-.47.23-.28.56-.49.91-.57l1.27-.27v3.96c-.02.35-.16.7-.39.99-.12.14-.26.26-.41.36.16.03.29.1.41.19.23.18.37.47.37.83l-.02,5.42c0,.35-.15.71-.38.98-.12.14-.26.26-.41.36.16.03.34.03.53,0,.75-.16,1.35-.88,1.36-1.63l.02-5.36c0-.36-.14-.65-.37-.83ZM103.1,229.07l-2.3.48-.02,5.05c0,.35.15.64.37.83.12.09.26.16.41.19-.15.1-.29.22-.41.36-.23.28-.38.63-.38.98l-.02,5.36c0,.75.6,1.22,1.35,1.07.19-.04.36-.11.53-.22-.16-.03-.29-.09-.41-.19-.23-.18-.38-.47-.38-.83l.02-5.42c0-.36.15-.71.38-.99.11-.14.25-.27.41-.36-.16-.04-.29-.1-.41-.19-.23-.18-.38-.47-.38-.83v-3.95s1.28-.27,1.28-.27h0c.36-.07.68,0,.91.19.11.09.21.21.27.35.07-.17.11-.36.11-.54,0-.75-.6-1.23-1.35-1.07Z"/>
          <path class="cls-1" d="M116.93,232.28l1.75-.37c.65-.14,1.25-.53,1.68-1.06.43-.53.69-1.18.69-1.84v-1.3c0-.66-.26-1.2-.69-1.54-.43-.35-1.02-.49-1.68-.35l-2.22.47v5.08c0,.36.13.65.36.84.03.03.06.04.09.06ZM117.57,227.16l1.13-.24c.18-.04.34-.03.5,0,.23.05.42.17.56.35.14.18.22.4.22.67v1.3c0,.18-.04.35-.1.52-.1.25-.26.49-.47.67-.21.18-.45.31-.72.37l-1.13.24v-3.88ZM119,232.22l-.32.07h0l-1.75.37s-.06.07-.09.11c-.23.28-.37.63-.37.99v2.88s0,2.2,0,2.2l2.54-.54c.65-.14,1.25-.53,1.68-1.05.43-.53.69-1.18.69-1.84v-1.3c0-.66-.26-1.2-.69-1.55-.43-.34-1.02-.48-1.68-.34ZM120.28,235.64c0,.19-.04.36-.1.53-.1.25-.26.49-.47.67-.21.18-.44.31-.72.38l-1.45.31v-3.88s1.13-.24,1.13-.24h0l.32-.07c.18-.04.34-.03.5,0,.23.05.43.17.57.35.14.17.22.4.22.67v1.29ZM122.55,232.35c-.2-.43-.49-.8-.84-1.07.05-.09.12-.18.17-.28.42-.71.66-1.51.66-2.31v-1.29c0-.54-.11-1.02-.3-1.45-.29-.64-.78-1.12-1.39-1.41-.62-.29-1.36-.38-2.15-.21,0,0-3.86.82-3.95.84-.19.04-.37.11-.53.22.16.04.29.1.41.2.23.18.37.48.37.83v5.28c0,.36-.15.71-.38.99-.12.14-.26.26-.41.36.16.03.29.1.41.19.23.19.37.48.37.83v3.98s0,1.3,0,1.3c0,.35-.15.71-.37.99-.12.14-.26.27-.41.37.16.03.34.03.53,0,.09-.02,4.27-.91,4.27-.91.53-.11,1.04-.33,1.5-.62.7-.44,1.28-1.05,1.69-1.76.42-.71.67-1.51.67-2.32v-1.29c0-.53-.11-1.02-.3-1.44ZM121.76,235.32c0,1.54-1.24,3.04-2.76,3.37l-2.92.62v-2.59s0-2.88,0-2.88c0-.36-.14-.65-.38-.83-.11-.09-.25-.16-.41-.19.16-.1.3-.22.41-.37.24-.28.38-.64.38-1v-5.47s2.61-.55,2.61-.55c1.52-.33,2.76.66,2.75,2.19v1.3c0,1.12-.66,2.22-1.61,2.86,1.12.12,1.93,1,1.93,2.24v1.29Z"/>
          <path class="cls-1" d="M94.1,231.76c.41.35.65.88.65,1.52-.04.74-.66,1.43-1.39,1.57-.19.03-.36.02-.53-.01.16-.09.3-.21.42-.35.24-.27.39-.62.41-.98,0-.27-.06-.49-.2-.67-.13-.18-.33-.31-.56-.36-.15-.04-.32-.04-.49,0-.28.05-.52.17-.73.35-.21.18-.38.41-.49.65-.07.16-.11.34-.11.52l-.09,2.78c-.01.36.12.65.35.84.12.09.25.17.4.2-.15.09-.29.21-.42.35-.24.27-.39.62-.41.98l-.09,2.78c0,.27.06.49.2.68.13.19.33.31.55.37.16.03.32.04.51,0,.27-.05.51-.17.72-.35.21-.18.38-.4.49-.65.07-.16.11-.34.11-.52h0c.01-.35-.12-.65-.35-.84-.12-.09-.25-.16-.4-.2.17-.11.35-.17.53-.2.74-.13,1.32.34,1.31,1.07-.03.65-.31,1.28-.75,1.78-.45.51-1.05.88-1.71,1-.67.12-1.25-.04-1.67-.39-.42-.35-.67-.9-.65-1.55l.09-2.79c.01-.35.17-.71.41-.97.12-.14.26-.26.42-.35-.16-.04-.29-.11-.4-.2-.23-.19-.36-.48-.35-.84l.09-2.79c.02-.66.31-1.3.75-1.8.45-.51,1.05-.89,1.72-1.01.65-.12,1.24.04,1.66.39ZM94.89,241.25h0c-.08,1.5-1.35,2.92-2.85,3.2-1.54.28-2.74-.73-2.7-2.26l.09-2.79h0c.01-.35-.13-.65-.35-.84-.11-.09-.25-.17-.4-.2.15-.09.3-.21.42-.35.24-.27.4-.62.41-.98h0s.09-2.78.09-2.78c.05-1.53,1.33-2.98,2.87-3.26,1.51-.27,2.7.71,2.69,2.2h0c-.02.74.57,1.24,1.32,1.1.18-.03.37-.11.53-.2-.15-.03-.29-.11-.4-.2-.23-.19-.36-.49-.35-.84.02-.53-.08-1.02-.26-1.44-.27-.64-.74-1.13-1.35-1.44-.6-.31-1.34-.42-2.14-.27-.54.1-1.05.3-1.52.57-.71.42-1.31,1.01-1.75,1.7-.43.69-.7,1.48-.73,2.28l-.09,2.78c-.01.36-.16.7-.41.98-.12.14-.26.26-.42.35.15.04.29.11.4.2.23.19.36.48.35.83l-.09,2.79c-.02.53.08,1.02.26,1.45.28.63.75,1.13,1.35,1.44s1.35.41,2.15.26c.53-.09,1.05-.29,1.51-.57.71-.42,1.31-1.01,1.75-1.7.43-.69.7-1.48.73-2.27.01-.35.16-.7.41-.98.12-.14.26-.25.42-.35-.16-.05-.34-.05-.52-.01-.75.13-1.38.85-1.4,1.6Z"/>
          <path class="cls-1" d="M109.13,227.8c-.66.12-1.26.49-1.71,1-.45.51-.74,1.15-.76,1.81l-.09,2.79c0,.35.13.64.35.83.11.1.25.17.4.2-.16.09-.3.21-.42.35-.24.27-.39.62-.41.97l-.09,2.79c-.02.65.23,1.2.65,1.55.42.35,1.01.51,1.67.39.66-.12,1.26-.49,1.71-1,.44-.51.73-1.15.75-1.8l.09-2.79c.01-.35-.13-.65-.35-.84-.11-.09-.25-.16-.4-.2.16-.09.3-.21.42-.35.24-.27.4-.62.41-.98l.09-2.78c.02-.65-.23-1.2-.65-1.55-.42-.35-1.01-.51-1.67-.39ZM110.26,232.73c-.01.36-.16.7-.4.98-.12.14-.27.25-.42.35.15.04.29.11.4.2.22.19.36.48.35.84l-.09,2.79c0,.17-.04.35-.12.51-.1.25-.27.48-.49.65-.21.18-.45.3-.73.35-.18.03-.35.02-.5-.01-.23-.05-.42-.18-.55-.36-.14-.18-.2-.4-.2-.68l.09-2.79c.01-.35.17-.7.41-.97.12-.13.26-.26.42-.35-.15-.04-.29-.1-.4-.2-.23-.19-.36-.49-.35-.84l.09-2.79c0-.18.05-.35.12-.52.11-.25.28-.47.49-.65.21-.17.46-.3.73-.34.18-.04.35-.03.5,0,.23.05.42.18.56.36.13.18.2.41.19.68l-.09,2.78ZM113.2,233.1c-.22-.19-.36-.48-.35-.84l.09-2.78c.02-.53-.07-1.02-.26-1.45-.28-.64-.75-1.14-1.35-1.44-.61-.31-1.35-.41-2.15-.27-.53.1-1.05.3-1.52.57-.7.42-1.31,1.01-1.75,1.7-.43.69-.7,1.48-.73,2.27l-.09,2.78c-.01.35-.16.7-.41.98-.12.14-.26.26-.42.35.16.04.29.11.4.2.23.19.36.48.35.84l-.09,2.79c-.02.53.08,1.02.26,1.45.27.63.75,1.13,1.35,1.44.61.31,1.35.42,2.15.27.53-.1,1.05-.3,1.51-.57.71-.43,1.31-1.01,1.75-1.7.44-.69.7-1.48.73-2.27l.09-2.79c.01-.36.17-.71.41-.98.12-.14.26-.26.42-.35-.15-.04-.29-.1-.4-.2ZM112.08,233.85c-.24.27-.4.62-.41.97l-.09,2.79c-.05,1.52-1.33,2.98-2.86,3.26-1.53.27-2.74-.74-2.69-2.26l.09-2.79c.01-.35-.12-.65-.35-.84-.11-.09-.25-.17-.4-.2.15-.1.3-.21.42-.35.25-.28.4-.62.41-.98l.09-2.79c.05-1.53,1.33-2.98,2.86-3.26,1.53-.27,2.74.74,2.69,2.26l-.09,2.79c-.01.35.13.65.35.84.11.1.25.16.4.2-.16.09-.3.21-.42.35Z"/>
          <path class="cls-1" d="M125.5,237.35l4.62-1.01c.75-.16,1.35.31,1.35,1.07,0,.19-.04.38-.11.56-.07-.14-.16-.26-.28-.35-.23-.18-.55-.25-.91-.18,0,0-5.93,1.31-6.02,1.32-.19.04-.36.04-.53,0,.16-.1.29-.22.41-.37.23-.29.37-.65.37-1l-.02-5.3c0-.36-.15-.66-.38-.84-.12-.09-.25-.16-.41-.19.16-.1.29-.23.41-.37.23-.28.37-.64.37-1l-.02-5.31c0-.36-.14-.65-.38-.83-.12-.1-.25-.16-.41-.19.16-.11.34-.18.53-.23.09-.02,6.02-1.32,6.02-1.32.36-.08.68-.29.9-.58.11-.14.21-.31.27-.47.07.15.11.32.11.51,0,.76-.59,1.5-1.34,1.67l-4.62,1.01.02,5.5h0c0,.36-.14.72-.37,1-.11.14-.25.26-.41.37.16.03.29.1.41.19.23.19.38.47.38.83h0l.02,5.5ZM126.23,230.77c-.23.29-.37.64-.37,1l.02,5.11,4.23-.93c.75-.17,1.34-.91,1.34-1.67,0-.19-.04-.36-.11-.51-.06.17-.16.33-.27.47-.23.29-.55.51-.9.58l-3.21.71-.02-3.91,1.92-.42c.36-.08.67,0,.91.18.12.09.21.21.28.35.07-.18.11-.37.11-.56,0-.75-.61-1.23-1.35-1.07l-2.49.55s-.06.07-.09.1ZM130.12,224.43c.36-.08.68,0,.91.18.11.09.21.21.28.35.07-.18.11-.37.11-.56,0-.76-.6-1.23-1.35-1.07l-4.23.93.02,5.11c0,.36.14.65.37.83.03.02.06.04.1.06l2.48-.55c.74-.16,1.34-.91,1.34-1.66,0-.19-.04-.36-.11-.51-.06.17-.16.33-.27.47-.23.29-.55.5-.9.58l-1.92.43-.02-3.9,3.21-.7Z"/>
          <polygon class="cls-1" points="161.31 224.09 157.05 224.97 156.99 223.47 161.25 222.58 161.31 224.09"/>
        </g>
        <g>
          <path class="cls-3" d="M121.1,63.82c33.75,18.63,37.04-28.08,78.35-11.34-44.6-23.08-56.21,2.33-81.45-9.93.13,2.67,6.58,14.4,3.1,21.28Z"/>
          <path class="cls-3" d="M241.29,127.34c-.1-.02-.18-.06-.27-.12-.21-.19-.32-.48-.32-.88v-17.97c0-.58.26-1.25.7-1.8.23-.29.47-.51.69-.65.88-.54,1.35-1.56,1.18-2.58-.17-1.02-.93-1.84-1.94-2.07-.14-.03-.24-.08-.31-.14-.27-.22-.33-.61-.33-.89v-18.3c0-.59.26-1.25.72-1.83.21-.26.44-.48.7-.64.87-.55,1.33-1.57,1.16-2.58-.17-1.02-.95-1.91-1.96-2.14-.44-.1-.91-.15-1.38-.15s-.97.05-1.46.16c-2.01.43-3.77,1.8-4.96,3.49-1.03-.83-2.27-1.25-3.69-1.43-.47-.06-.93-.08-1.42.03-.02,0-.46.07-.48.08-.2.05-.3.05-.5.12-.14-.46-.08-.31-.24-.68-.4-.92-1.32-1.5-2.32-1.5-.02,0-.05,0-.07,0-1.03.03-1.94.68-2.3,1.64-.11.3-.29.6-.52.89-.46.56-1.06.95-1.63,1.08l-17.24,3.69-6.59,1.32-7.09,1.52c-36.8-2.5-56.31-3.72-68.16-19.94,0,0-.02,0-.03,0,.3.68.61,1.36.96,2.03,5.36,10.29,23.82,18.48,41.62,23.11-3.77.8-8.03,1.7-11.17,2.37-19.9-9.86-28.89-16.06-31.5-27.5,0,0-.02,0-.03,0,1.86,14,16.26,24.33,25.76,36.46v16.4c0,.57-.25,1.19-.68,1.71-.24.29-.5.52-.78.69-.88.55-1.34,1.57-1.16,2.59.17,1.02.95,1.83,1.96,2.05.15.03.26.08.34.15.01.01.03.02.04.03.25.19.28.58.28.79v13.24l-7.19-11.23c1.49-1.37,2.77-2.94,3.76-4.63,1.68-2.8,2.6-6.02,2.6-9.07v-4.34c0-2.1-.43-4.14-1.26-5.94-1.26-2.66-3.31-4.72-5.96-5.96-1.72-.8-3.62-1.2-5.64-1.2-.09,0-.17.01-.26.01-7.09-12.22-10.85-21.19-11.84-31.75,0,0-.02,0-.03,0,.05.93.11,1.87.15,2.8.3,8.98.81,19.73,2.16,30.68-3.6.76-7.1,1.5-7.3,1.55-.02,0-.04,0-.06.01-.26.06-.52.13-.77.22,2.57-11.85,4.01-23.49,5.8-35.25,0,0-.02,0-.03,0-2.97,13.64-6.31,23.91-19.45,38.02-.6-.08-1.21-.13-1.84-.13-1.07,0-2.16.12-3.24.35-2.06.44-4.05,1.26-5.93,2.45-2.66,1.7-4.92,4.04-6.56,6.79-1.01,1.71-1.73,3.52-2.15,5.35-.37-.48-.9-.81-1.52-.93-.05-.01-.16-.06-.3-.18-.37-.39-.58-1.03-.58-1.78,0-.98-.08-1.92-.21-2.85,26.01-19.72,34.22-28.68,41.69-47.08,0,0-.02,0-.03,0-5.1,10.97-16.22,24.41-47.89,36.07-.41-.28-.82-.55-1.26-.79-1.87-1.03-4.03-1.57-6.25-1.57-1.2,0-2.42.15-3.62.46-2.26.56-4.46,1.62-6.51,3.15-2.88,2.13-5.33,5.09-7.1,8.58-1.79,3.56-2.73,7.43-2.73,11.21v15.82c0,.96-.34,2-.93,2.83-.31.42-.63.76-1,1.04-.79.59-1.16,1.57-.97,2.53.19.96.92,1.73,1.87,1.97.14.03.3.13.48.26.35.36.56.99.56,1.73v13.57c0,2.62.43,5.06,1.3,7.25,1.32,3.29,3.52,5.86,6.38,7.41,1.91,1.03,4.02,1.56,6.27,1.56,1.19,0,2.41-.15,3.62-.45,2.27-.56,4.46-1.62,6.54-3.16.82-.62,1.6-1.3,2.33-2.03,1.17,1.24,2.87,2,4.83,2h0c.51,0,1.02-.05,1.54-.15.98-.19,1.91-.55,2.76-1.06.91-.54,1.39-1.59,1.2-2.63-.19-1.04-1-1.86-2.04-2.05-.13-.02-.32-.07-.44-.16-.01-.01-.03-.02-.04-.03-.24-.17-.35-.41-.35-.74v-12.11c.01-.27.02-.55.02-.82v-17.42c.34.37.79.64,1.31.75.15.03.27.09.38.17.25.19.29.57.29.78v9.45c0,2.1.43,4.1,1.27,5.94,1.23,2.65,3.29,4.71,5.94,5.95,1.74.81,3.64,1.22,5.66,1.22h0c1.07,0,2.16-.12,3.25-.35,2.06-.44,4.05-1.27,5.89-2.45,2.67-1.7,4.94-4.04,6.57-6.78,1.69-2.86,2.58-5.99,2.58-9.05v-9.44c0-.56.26-1.21.68-1.71.14-.17.3-.32.46-.46.18.08.37.15.58.19.09.02.2.07.31.16.24.18.29.52.29.78v17.72c0,.57-.25,1.2-.7,1.75-.19.24-.46.47-.81.7-.86.57-1.29,1.59-1.09,2.6.15.8.69,1.45,1.4,1.79-.52.28-.93.74-1.15,1.32-.12.31-.28.59-.51.86-.46.55-1.04.93-1.65,1.05,0,0-20.1,4.29-20.4,4.35-.96.2-1.85.57-2.65,1.09-.85.56-1.29,1.57-1.11,2.57.18,1,.94,1.8,1.94,2.03.15.03.28.1.39.18.24.19.29.53.29.79v17.7c0,.56-.25,1.19-.68,1.73-.23.27-.51.51-.82.71-.86.56-1.3,1.58-1.11,2.59s.96,1.81,1.96,2.03c.12.03.25.09.38.18.23.19.28.53.28.79v17.71c0,.57-.25,1.19-.69,1.72-.23.28-.5.51-.79.7-.88.56-1.32,1.59-1.13,2.61.19,1.02.99,1.82,2,2.02.42.08.86.13,1.3.13.49,0,.99-.05,1.49-.16,2.06-.43,3.86-1.72,5.06-3.41,1.05.85,2.4,1.35,3.91,1.35.48,0,.98-.05,1.48-.16.86-.18,1.72-.54,2.57-1.05.9-.54,1.37-1.58,1.19-2.61-.18-1.03-.98-1.85-2-2.05-.11-.02-.19-.06-.26-.11-.03-.03-.06-.05-.1-.08-.17-.13-.27-.4-.27-.75v-15.32l4.52-.96c.13-.03.25-.04.37-.04.24,0,.44.06.62.2.05.04.1.11.14.21.41.91,1.32,1.5,2.32,1.5.02,0,.04,0,.06,0,1.02-.02,1.93-.66,2.3-1.61.36-.91.54-1.85.54-2.78,0-2.04-.87-3.79-2.28-4.92,1.4-1.51,2.28-3.49,2.28-5.53,0-.99-.21-1.96-.61-2.8-.42-.89-1.32-1.45-2.29-1.45-.03,0-.07,0-.1,0-1.02.04-1.91.68-2.27,1.63-.12.3-.29.6-.51.88-.47.55-1.06.92-1.65,1.04l-3.44.73v-7.84l8.83-1.88c.14-.03.27-.04.39-.04.23,0,.43.05.58.16.12.1.17.19.2.27.41.91,1.32,1.49,2.31,1.49.03,0,.07,0,.1,0,1.03-.04,1.93-.7,2.29-1.67.23-.64.38-1.25.46-1.85v10.63c0,.57-.25,1.19-.68,1.71-.24.29-.5.52-.78.69-.88.55-1.34,1.57-1.16,2.59.17,1.02.95,1.83,1.95,2.05.15.03.26.08.34.15.01.01.03.02.04.03.25.19.28.58.28.79v17.7c0,.56-.26,1.2-.7,1.74-.22.27-.47.49-.76.67-.88.55-1.34,1.59-1.16,2.61.19,1.03.98,1.83,2,2.04.44.09.88.13,1.33.13.48,0,.97-.05,1.43-.15.31-.06,15.74-3.35,20.43-4.35.14-.03.28-.04.4-.04.25,0,.46.06.56.14.07.06.16.15.23.28.42.9,1.32,1.47,2.31,1.47.02,0,.05,0,.07,0,1.02-.03,1.92-.66,2.29-1.61.35-.9.54-1.86.54-2.79,0-2.04-.87-3.79-2.27-4.91.92-.99,1.61-2.19,1.97-3.47.14.43.3.86.48,1.28,0,.01.01.02.02.03,1.25,2.72,3.29,4.84,5.94,6.13,1.73.83,3.63,1.25,5.66,1.25,1.08,0,2.19-.12,3.27-.37,2.08-.46,4.08-1.31,5.94-2.54,2.66-1.75,4.92-4.16,6.53-6.98,1.68-2.94,2.57-6.16,2.57-9.3,0-2.03-.37-3.96-1.11-5.73-.73-1.71-1.77-3.19-3.07-4.41l-3.75-3.52c-.2-.19-.31-.57-.3-1.01.02-.3.1-.62.23-.94.41-1,.14-2.15-.67-2.86-.16-.14-.34-.26-.53-.36,1.05-.64,1.96-1.52,2.66-2.54,1.05.87,2.4,1.38,3.91,1.38h0c.5,0,1-.06,1.51-.17.92-.2,1.81-.58,2.63-1.13.85-.56,1.28-1.59,1.09-2.59-.19-1.01-.97-1.8-1.97-2.01-.13-.03-.21-.07-.22-.08-.03-.03-.06-.05-.09-.08-.14-.11-.23-.3-.28-.55.05,0,.11.01.16.01.03,0,.05,0,.08,0,1.02-.03,1.92-.67,2.29-1.62.12-.32.3-.62.51-.88.45-.55,1.05-.93,1.65-1.06l1.21-.26v10.25c0,.55-.25,1.18-.69,1.72-.24.28-.5.5-.8.7-.88.56-1.32,1.59-1.13,2.61.19,1.02.98,1.82,2,2.03.12.02.23.07.34.15.24.2.29.54.29.8v18.52c0,.55-.26,1.19-.69,1.71-.24.29-.5.52-.79.7-.89.55-1.34,1.6-1.15,2.62.19,1.03,1,1.83,2.02,2.03.43.08.87.12,1.31.12.49,0,.99-.05,1.48-.16,2.05-.44,3.85-1.72,5.05-3.4,1.05.85,2.4,1.35,3.9,1.35.49,0,.99-.05,1.49-.16.94-.2,1.82-.57,2.64-1.1.87-.56,1.31-1.59,1.11-2.61-.19-1.01-.98-1.81-2-2.01-.09-.02-.2-.05-.27-.1-.01-.01-.03-.02-.04-.03-.21-.16-.31-.44-.31-.79v-18.52c0-.56.26-1.19.71-1.74.23-.28.49-.52.74-.67.88-.54,1.35-1.56,1.18-2.59-.17-1.02-.94-1.84-1.96-2.06-.22-.05-.3-.1-.32-.12-.01-.01-.03-.02-.04-.03-.26-.21-.31-.55-.31-.81v-11.32l2.25-.48c.14-.03.27-.04.39-.04.26,0,.46.06.61.18.09.07.16.17.22.28.42.88,1.32,1.44,2.29,1.44.03,0,.07,0,.1,0,1.01-.04,1.9-.67,2.27-1.62.35-.91.53-1.84.53-2.75,0-2.04-.87-3.8-2.27-4.92,1.4-1.5,2.27-3.49,2.27-5.53,0-.97-.2-1.9-.59-2.76-.41-.91-1.32-1.49-2.31-1.49-.03,0-.05,0-.08,0-1.02.03-1.93.67-2.3,1.63-.11.29-.29.59-.52.87-.46.55-1.06.94-1.64,1.07l-17.28,3.66c-.14.03-.27.04-.39.04-.17,0-.4-.03-.56-.16-.09-.07-.16-.16-.21-.28-.42-.89-1.32-1.46-2.3-1.46-.03,0-.06,0-.09,0-.41.01-.78.15-1.13.34.03-.26.05-.52.05-.77,0-2.04-.87-3.79-2.28-4.91,1.4-1.51,2.28-3.49,2.28-5.54,0-.98-.21-1.95-.61-2.79-.42-.89-1.32-1.45-2.3-1.45-.03,0-.06,0-.1,0-1.02.04-1.91.68-2.28,1.62-.12.3-.3.6-.51.85-.01.02-.03.03-.04.05-.43.54-1,.91-1.57,1.02-.01,0-7.83,1.68-7.83,1.68v-7.85l4.51-.96c.13-.03.25-.04.36-.04.24,0,.45.06.62.2.07.05.12.13.17.23.42.9,1.32,1.47,2.31,1.47.03,0,.06,0,.09,0,1.02-.03,1.92-.68,2.29-1.63.35-.92.53-1.86.53-2.78,0-2.04-.87-3.78-2.28-4.91,1.4-1.5,2.28-3.48,2.28-5.52,0-1-.21-1.97-.62-2.8-.42-.88-1.32-1.44-2.29-1.44-.03,0-.06,0-.09,0-1.01.04-1.9.67-2.27,1.61-.12.31-.3.61-.54.9-.44.54-1.02.91-1.63,1.04l-3.44.74v-7.83l8.84-1.88c.14-.03.27-.04.39-.04.17,0,.4.03.57.17.08.07.16.16.21.27.42.9,1.32,1.47,2.3,1.47.03,0,.06,0,.09,0,.55-.02,1.07-.22,1.48-.55.37.21.79.33,1.24.33.03,0,.05,0,.08,0,1.02-.03,1.93-.68,2.3-1.63.13-.33.3-.63.52-.89.45-.56,1.05-.94,1.65-1.07l1.2-.26v10.37c0,.56-.25,1.21-.69,1.77-.24.28-.5.51-.8.7-.87.56-1.31,1.59-1.12,2.61.19,1.02.98,1.82,1.99,2.02.12.02.22.07.33.15.19.16.3.46.3.83v17.89c0,.57-.26,1.22-.69,1.75-.24.29-.5.52-.79.71-.88.56-1.33,1.6-1.14,2.62.19,1.02.99,1.83,2.02,2.02.43.08.87.13,1.31.13.49,0,1-.05,1.49-.16,2.05-.44,3.85-1.73,5.05-3.43,1.05.85,2.39,1.36,3.9,1.36h0c.49,0,1-.05,1.5-.16.94-.2,1.83-.58,2.64-1.11.86-.56,1.3-1.59,1.1-2.61-.2-1.01-.98-1.81-1.99-2.01-.08-.02-.2-.05-.26-.1-.01-.01-.03-.02-.04-.04-.21-.17-.32-.46-.32-.83v-17.89c0-.57.26-1.22.72-1.78.23-.29.49-.52.74-.68.88-.54,1.34-1.56,1.17-2.58-.17-1.02-.94-1.83-1.95-2.06-.22-.05-.29-.1-.31-.12-.01-.01-.03-.02-.04-.04-.21-.17-.32-.47-.32-.84v-11.46l2.26-.49,6.54-1.29s1.25-.27,1.25-.27v10.37c0,.56-.25,1.21-.69,1.77-.24.28-.5.51-.8.71-.87.56-1.31,1.59-1.12,2.61.19,1.02.98,1.82,1.99,2.02.12.03.23.08.32.14.2.16.31.46.31.84v17.89c0,.57-.26,1.22-.69,1.75-.24.29-.5.52-.79.71-.88.56-1.33,1.6-1.14,2.62.19,1.02.99,1.83,2.02,2.02.43.08.87.13,1.31.13.49,0,1-.05,1.49-.16,2.05-.44,3.85-1.73,5.05-3.43,1.05.85,2.39,1.36,3.9,1.36.49,0,1-.05,1.5-.16.94-.2,1.83-.58,2.64-1.11.86-.57,1.3-1.59,1.1-2.61-.2-1.01-.98-1.81-1.99-2.01-.08-.02-.2-.05-.26-.1-.01-.01-.03-.02-.04-.04-.21-.17-.32-.46-.32-.83v-17.89c0-.57.26-1.22.72-1.78.23-.29.49-.52.74-.68.88-.54,1.34-1.56,1.17-2.58-.17-1.02-.94-1.83-1.95-2.06-.22-.05-.29-.1-.31-.12-.01-.01-.03-.02-.04-.04-.21-.17-.32-.47-.32-.84v-11.46l2.26-.49c.14-.03.26-.04.38-.04.25,0,.46.06.6.18.09.07.17.17.22.29.42.89,1.32,1.45,2.29,1.45.03,0,.07,0,.1,0,.9-.03,1.7-.54,2.12-1.31v9.34c0,.6-.25,1.25-.71,1.83-.2.26-.46.49-.77.7-.84.57-1.27,1.58-1.08,2.58.19,1,.95,1.79,1.94,2.01.15.03.25.09.31.13.2.18.31.49.31.88v17.95c0,.58-.26,1.24-.71,1.81-.21.27-.48.52-.77.71-.85.57-1.28,1.6-1.08,2.6.2,1.01.98,1.79,1.99,2,.42.08.85.13,1.29.13.51,0,1.03-.06,1.51-.17,1.99-.43,3.75-1.71,4.93-3.4,1.03.83,2.34,1.32,3.81,1.32h0c.49,0,.99-.06,1.47-.16.9-.19,1.77-.56,2.59-1.09.87-.56,1.31-1.59,1.13-2.6-.19-1.02-.97-1.82-1.98-2.03ZM64.77,157.19c0,.5-.08.99-.25,1.49-.24.73-.65,1.42-1.16,1.94-.01.01-.02.02-.03.04-.31.33-.81.76-1.41.9-.15.03-.28.05-.42.05-.09,0-.18,0-.27-.02-.24-.08-.44-.25-.59-.46-.27-.4-.4-.91-.4-1.55v-10.94c.08.32.18.62.3.91.39.96,1.32,1.59,2.35,1.59.03,0,.05,0,.08,0,.7-.02,1.34-.33,1.79-.82v6.87ZM62.96,139.1s0,0,.01,0c0,0,0,0,0,0,0,0,0,0,0-.01ZM81.44,121.65v6.5c-.29-.23-.63-.4-1.01-.49-.47-.11-.97-.16-1.47-.16-.55,0-1.12.07-1.67.2-.02,0-.04.01-.07.02-.38.1-6.47,1.62-10.52,2.63-.13.03-.26.05-.38.05-.26,0-.48-.08-.67-.24-.17-.17-.31-.38-.4-.62-.38-.97-1.32-1.61-2.36-1.61-.03,0-.05,0-.08,0-1.07.03-2.01.74-2.34,1.76-.09.29-.17.57-.24.86v-10.7c0-.51.08-.97.23-1.39.01-.04.03-.08.04-.12.22-.7.63-1.4,1.14-1.93.46-.48.93-.79,1.45-.94.14-.03.27-.04.38-.04.1,0,.18,0,.26.03.01,0,.03,0,.04,0,.23.06.43.21.58.43.27.41.4.92.4,1.56,0,.98-.33,2-.93,2.85-.31.43-.65.8-.96,1.03-.8.59-1.18,1.6-.97,2.58.21.98.97,1.74,1.95,1.95.48.1.97.16,1.44.16h0c.56,0,1.13-.07,1.68-.22,2.3-.57,4.28-2.23,5.54-4.4,1.14,1.1,2.64,1.75,4.33,1.75.55,0,1.11-.07,1.64-.2.99-.24,1.97-.71,2.89-1.39.03-.02.05-.04.07-.06,0,.05,0,.11,0,.16ZM131.65,110.84s.05,0,.07.01c.05,0,.2.04.35.23.01.01.02.03.03.04.08.1.2.29.2.67v4.34c0,.24-.06.51-.2.88-.16.43-.48.89-.87,1.24-.38.34-.8.56-1.29.68l-1.25.26v-7.85l1.38-.29c.5-.07,1.02-.14,1.55-.22.01,0,.03,0,.04,0ZM98.83,144.84c0,.27-.06.56-.17.84-.18.46-.49.91-.86,1.23-.01.01-.02.02-.04.03-.39.35-.81.58-1.22.67-.15.03-.28.04-.4.04-.1,0-.18,0-.27-.03-.03,0-.05-.01-.08-.02-.15-.03-.27-.1-.36-.21,0-.01-.02-.02-.03-.03-.05-.06-.18-.22-.19-.71v-9.42c0-.56.25-1.19.68-1.69.01-.02.03-.03.04-.05.2-.25.48-.5.76-.68.29-.18.53-.42.71-.68.22.13.47.24.73.3.14.03.28.1.4.18.24.2.28.58.28.79v9.45ZM98.83,127.38c0,.58-.25,1.21-.67,1.72-.21.26-.49.5-.84.73-.27.18-.49.4-.67.66-.23-.14-.49-.25-.77-.31-.18-.04-.28-.09-.32-.13-.22-.17-.33-.45-.33-.83v-9.44c0-.25.06-.54.17-.85.2-.48.5-.91.91-1.26.38-.33.8-.56,1.24-.64.03,0,.06-.01.1-.02.12-.03.23-.04.32-.04.07,0,.13,0,.19.02.02,0,.04,0,.05.01.18.04.33.12.43.24.13.18.19.41.19.71v9.43ZM114.23,126.23s-.02.03-.03.04c-.11.14-.25.28-.41.41-.18-.08-.36-.15-.56-.19-.09-.02-.22-.06-.31-.13-.26-.2-.31-.56-.31-.81v-9.43c0-1.21-.16-2.39-.43-3.52.67-2.29,1.28-4.57,1.84-6.84.09.03.18.08.28.1.12.02.23.07.32.14.2.16.3.43.3.81v17.7c0,.58-.24,1.19-.68,1.72ZM117.77,170.54c-.22-1.65-1.02-3.06-2.21-4.01.62-.67,1.14-1.43,1.52-2.25.02,0,.05.02.07.02.18.04.24.09.26.1.02.02.04.03.06.05.07.06.3.24.3.78v5.31ZM118.96,158.56s-.05.01-.08.02c-.46.1-.91.25-1.36.44-.08-.25-.17-.5-.28-.75-.16-.37-.42-.66-.72-.91.19-.03.39-.05.58-.09,2.04-.43,3.84-1.72,5.04-3.41,1.05.85,2.39,1.35,3.9,1.35.49,0,.99-.05,1.48-.16.89-.18,1.74-.53,2.6-1.06.88-.54,1.35-1.57,1.18-2.59-.17-1.02-.95-1.84-1.96-2.06-.15-.03-.27-.09-.36-.16-.25-.2-.3-.54-.3-.8v-11.3l6.79,10.34c.09.26.08.49-.03.68-.07.12-.13.2-.23.27-.86.59-1.27,1.65-1.03,2.67.24,1.02,1.07,1.78,2.11,1.93.44.06.86.1,1.27.1.55,0,1.09-.06,1.6-.18.97-.21,1.86-.61,2.63-1.16-.12.17-.23.34-.31.54-.12.3-.31.62-.55.92-.43.53-1.01.91-1.61,1.04-6.85,1.45-19.92,4.23-20.36,4.32ZM152.25,190.09c-1.05-.87-2.4-1.37-3.91-1.37-.49,0-.99.06-1.47.16-.9.19-1.78.56-2.62,1.08-.87.55-1.32,1.56-1.15,2.57.11.66.48,1.23,1,1.62-.08,0-.17-.02-.25-.02-.03,0-.06,0-.1,0-1.02.04-1.91.68-2.28,1.62-.12.3-.3.6-.51.85-.01.02-.03.03-.04.05-.43.54-1,.91-1.57,1.02-.01,0-7.83,1.68-7.83,1.68v-7.85l4.51-.96c.13-.03.25-.04.36-.04.24,0,.45.06.62.2.07.05.12.13.17.23.42.9,1.32,1.47,2.31,1.47.03,0,.06,0,.09,0,1.02-.03,1.92-.68,2.29-1.63.35-.92.53-1.86.53-2.78,0-2.03-.87-3.78-2.27-4.91,1.4-1.5,2.27-3.48,2.27-5.52,0-1-.21-1.97-.62-2.8-.42-.88-1.32-1.44-2.29-1.44-.03,0-.06,0-.09,0-1.01.04-1.9.67-2.27,1.61-.12.31-.3.61-.54.9-.44.54-1.02.91-1.63,1.04l-3.44.74v-7.83l8.84-1.88c.14-.03.27-.04.39-.04.17,0,.4.03.57.17.08.07.16.16.21.27.42.9,1.32,1.47,2.3,1.47.03,0,.06,0,.09,0,.7-.02,1.33-.34,1.79-.83.03,1.96.39,3.81,1.08,5.5,0,.01,0,.02.01.03.74,1.72,1.77,3.21,3.06,4.4,0,0,3.77,3.55,3.78,3.57.2.18.3.53.27.98-.01.28-.09.59-.22.89-.42,1-.16,2.16.65,2.88.17.15.35.27.54.37-1.05.64-1.96,1.52-2.66,2.54ZM162.92,192.78c-.19.49-.53.99-.9,1.33-.39.36-.81.59-1.26.7-.14.03-.28.04-.4.04-.08,0-.15,0-.21-.02-.18-.04-.33-.13-.42-.26-.13-.18-.2-.4-.22-.67,0-.05,0-.1,0-.14,0-.62.26-1.29.7-1.84.01-.01.02-.03.03-.04.22-.29.48-.53.74-.7.41-.26.72-.63.91-1.05,0,0,.86.8.87.81.09.09.17.21.22.32.07.16.1.35.1.58,0,.31-.06.61-.17.94ZM162.38,166.74c-.24.29-.5.54-.82.75-.39.26-.69.62-.89,1.03,0,0-.9-.84-.91-.85-.11-.12-.15-.21-.18-.29-.05-.11-.1-.27-.1-.58,0-.28.06-.59.18-.91,0-.02.01-.04.02-.06.16-.46.47-.91.87-1.27.01-.01.03-.03.04-.04.37-.35.76-.57,1.2-.68.13-.02.25-.03.37-.03.1,0,.2,0,.27.02.17.04.31.12.39.22,0,0,.01.02.02.03.16.21.23.47.23.81,0,.6-.27,1.29-.71,1.85ZM169.51,146.36c.13-.03.26-.04.38-.04.25,0,.46.06.56.14.07.06.16.15.23.28.42.9,1.32,1.47,2.3,1.47.02,0,.05,0,.07,0,.41-.01.79-.14,1.13-.33-.03.25-.05.51-.05.76,0,2.04.87,3.8,2.28,4.93-.59.63-1.08,1.35-1.46,2.12-1.24-2.13-3.04-3.81-5.29-4.91-1.74-.83-3.65-1.25-5.69-1.25-1.07,0-2.16.12-3.26.36-2.03.45-4.07,1.33-5.9,2.53-2.68,1.76-4.95,4.19-6.54,7-.76,1.32-1.35,2.69-1.78,4.1-.35-1.25-1.06-2.31-2.02-3.08,1.4-1.51,2.27-3.49,2.27-5.54,0-.97-.21-1.93-.6-2.78-.42-.89-1.32-1.46-2.3-1.46-.03,0-.05,0-.08,0-.4.01-.76.14-1.1.32.45-.45.83-.96,1.13-1.53.01-.03.02-.05.04-.08,1.38.84,3.02,1.33,4.71,1.33.2,0,.39,0,.59-.02.43-.02.85-.06,1.29-.13.11-.02.4-.06,19.08-4.19Z"/>
        </g>
        <g>
          <path class="cls-1" d="M124.13,208.51l15.65-3.3c2.53-.54,4.56,1.06,4.56,3.58,0,.63-.13,1.27-.36,1.86-.22-.47-.54-.87-.93-1.19-.77-.61-1.86-.86-3.07-.61,0,0-20.1,4.29-20.41,4.35-.63.13-1.23.13-1.79.02.53-.33,1-.75,1.39-1.22.79-.95,1.27-2.15,1.27-3.34v-17.7c0-1.21-.48-2.19-1.27-2.8-.39-.31-.85-.53-1.39-.65.53-.33,1-.76,1.39-1.22.79-.95,1.27-2.13,1.27-3.33v-17.73c0-1.19-.48-2.16-1.27-2.78-.39-.32-.85-.54-1.39-.64.56-.35,1.16-.61,1.79-.75.31-.06,20.41-4.33,20.41-4.33,1.21-.25,2.29-.97,3.07-1.94.39-.47.71-1.02.93-1.57.23.5.36,1.08.36,1.7,0,2.52-2.03,5.01-4.56,5.55l-15.65,3.32v18.37h0c0,1.21-.49,2.41-1.28,3.35-.39.47-.85.88-1.38,1.23.53.11,1,.33,1.38.64.79.63,1.28,1.59,1.28,2.78h0v18.38ZM126.69,186.53c-.78.95-1.26,2.14-1.26,3.35v17.06l14.34-3.04c2.53-.54,4.56-3.03,4.56-5.55,0-.63-.13-1.21-.36-1.7-.22.57-.54,1.11-.93,1.57-.77.97-1.86,1.69-3.07,1.93l-10.86,2.33v-13.05l6.51-1.38c1.2-.26,2.28.01,3.06.63.4.31.72.71.93,1.18.23-.61.36-1.24.36-1.87,0-2.52-2.05-4.11-4.56-3.59l-8.43,1.79c-.09.11-.21.23-.31.35ZM139.97,165.39c1.21-.25,2.29,0,3.07.62.39.31.71.72.93,1.19.23-.61.36-1.25.36-1.87,0-2.52-2.03-4.13-4.56-3.59l-14.34,3.04v17.08c0,1.19.48,2.18,1.26,2.79.12.07.22.14.33.21l8.41-1.8c2.51-.53,4.56-3.01,4.56-5.52,0-.64-.13-1.22-.36-1.7-.22.56-.53,1.09-.93,1.57-.79.96-1.86,1.66-3.06,1.92l-6.51,1.39v-13.03l10.86-2.31Z"/>
          <path class="cls-1" d="M98.09,192.26l8.41-1.8c2.51-.51,4.56,1.08,4.56,3.61,0,.63-.13,1.26-.36,1.85-.22-.48-.53-.89-.92-1.18-.8-.62-1.88-.89-3.08-.62l-6.51,1.38v17.38c0,1.19.49,2.18,1.28,2.78.38.32.85.54,1.38.65-.56.34-1.15.6-1.79.74-2.51.53-4.56-1.07-4.56-3.58v-17.52c0-1.21.48-2.39,1.27-3.35.1-.12.2-.24.31-.34ZM95.19,196.22c0-1.2-.47-2.18-1.27-2.8-.39-.31-.85-.53-1.37-.64.52-.33.98-.74,1.37-1.23.8-.95,1.27-2.14,1.27-3.33h0s0-18.38,0-18.38l15.66-3.32c2.51-.54,4.56-3.02,4.56-5.54,0-.62-.14-1.19-.36-1.7-.22.57-.53,1.1-.93,1.58-.79.95-1.86,1.67-3.08,1.92,0,0-20.1,4.29-20.41,4.36-.62.13-1.23.37-1.77.73.52.12.98.34,1.38.65.79.61,1.27,1.6,1.27,2.8v17.7c0,1.19-.48,2.39-1.27,3.36-.4.47-.87.88-1.38,1.21.52.11.98.34,1.38.64.79.61,1.27,1.6,1.27,2.8v17.71c0,1.19-.48,2.39-1.27,3.34-.4.48-.87.89-1.38,1.22.54.11,1.15.11,1.77-.02,2.52-.53,4.57-3.01,4.57-5.52v-17.52h0ZM110.85,167.81l-14.34,3.05v17.08c0,1.2.48,2.18,1.27,2.8.1.08.2.17.31.24l8.41-1.8c2.51-.56,4.56-3.02,4.56-5.54,0-.63-.13-1.22-.36-1.71-.22.57-.53,1.11-.92,1.59-.8.95-1.88,1.66-3.08,1.92l-6.51,1.39v-13.03l10.85-2.31c1.22-.26,2.29,0,3.08.61.4.33.71.72.93,1.2.22-.61.36-1.23.36-1.85,0-2.52-2.05-4.15-4.56-3.62Z"/>
          <path class="cls-1" d="M173.54,185.17c.59,1.4.91,2.99.91,4.73,0,2.78-.83,5.58-2.24,8.04-1.4,2.46-3.37,4.58-5.72,6.12-1.57,1.03-3.29,1.78-5.09,2.18-2.68.6-5.21.3-7.29-.69-2.07-1.01-3.71-2.68-4.73-4.89-.64-1.47-1.01-3.16-1.01-5.03v-.1c-.04-1.18-.52-2.15-1.27-2.76-.41-.33-.86-.56-1.38-.68.54-.34,1.15-.61,1.79-.75,2.51-.55,4.55,1.11,4.55,3.72h0c.13,5.2,4.26,8.48,9.33,7.38,5.18-1.14,9.36-6.4,9.36-11.72,0-2.49-.93-4.56-2.43-5.94l-3.77-3.53c-.79-.75-1.16-1.84-1.09-3,.01-.57.15-1.17.4-1.76-.53.31-1.1.51-1.66.59-1.1.19-2.18-.09-2.97-.81l-3.78-3.54c-1.31-1.2-2.08-2.98-2.08-5.12,0-2.3.88-4.57,2.34-6.38,1.47-1.84,3.47-3.21,5.68-3.7,2.23-.49,4.25,0,5.7,1.2,1.4,1.14,2.28,2.93,2.33,5.12h0v.05c-.03,2.6-2.05,5.12-4.56,5.67-.63.14-1.23.14-1.77.02.52-.35.98-.77,1.39-1.27.78-.98,1.27-2.21,1.27-3.44h0c0-.93-.27-1.72-.74-2.34-.45-.62-1.14-1.04-1.92-1.21-.52-.1-1.07-.11-1.7.01-.92.21-1.72.67-2.41,1.31-.71.64-1.27,1.45-1.58,2.32-.22.59-.35,1.2-.35,1.81s.1,1.11.3,1.57c.19.47.48.86.83,1.2h0s3.81,3.55,3.81,3.55c.79.76,1.88,1.01,2.98.83.56-.09,1.12-.29,1.65-.59-.23.57-.38,1.17-.41,1.76-.05,1.15.31,2.26,1.1,3l3.75,3.52c1.03.97,1.88,2.17,2.47,3.56ZM175.72,165.84c-.76-.61-1.23-1.58-1.27-2.75v-.13c0-1.84-.38-3.54-1.04-5.01-.98-2.21-2.64-3.89-4.71-4.89-2.07-.98-4.61-1.29-7.3-.7-1.77.4-3.51,1.15-5.06,2.17-2.36,1.55-4.34,3.68-5.73,6.15-1.41,2.45-2.23,5.25-2.23,8.02,0,1.73.31,3.32.9,4.75.59,1.38,1.43,2.59,2.47,3.55l3.74,3.53h0c.82.73,1.18,1.83,1.11,2.99-.03.58-.17,1.18-.41,1.77.54-.31,1.1-.51,1.66-.59,1.11-.19,2.2.08,2.99.84h0l3.78,3.54h.01c.35.34.64.75.83,1.2.19.46.3.99.3,1.56,0,.64-.12,1.24-.34,1.84-.33.84-.88,1.68-1.57,2.31-.71.65-1.53,1.11-2.45,1.31-.59.12-1.16.13-1.68.02-.78-.18-1.45-.6-1.92-1.22-.45-.62-.72-1.39-.74-2.33h.01c0-1.25.48-2.47,1.27-3.45.39-.5.85-.95,1.37-1.28-.54-.1-1.15-.1-1.77.03-2.5.54-4.53,3.08-4.57,5.67v.06h0c.06,2.18.94,4,2.34,5.14,1.47,1.17,3.47,1.67,5.68,1.18,2.23-.49,4.25-1.87,5.7-3.68,1.45-1.83,2.36-4.11,2.36-6.41,0-2.14-.8-3.9-2.11-5.08l-3.78-3.57c-.77-.73-1.88-1-2.96-.82-.56.07-1.13.29-1.66.59.23-.57.39-1.17.41-1.75.05-1.17-.31-2.26-1.1-3.01h0l-3.77-3.53c-1.5-1.39-2.44-3.45-2.44-5.96,0-5.33,4.2-10.56,9.35-11.69,5.09-1.12,9.23,2.16,9.35,7.38h0c0,2.6,2.04,4.26,4.57,3.71.64-.14,1.23-.4,1.77-.76-.51-.11-1-.33-1.37-.66Z"/>
          <path class="cls-1" d="M181.39,152.23c-2.52.54-4.58-1.08-4.58-3.61,0-.62.14-1.25.37-1.84.22.47.53.87.92,1.18.79.63,1.88.87,3.08.61h0l17.27-3.66c1.21-.26,2.29-.99,3.07-1.93.39-.48.71-1,.93-1.58.23.51.36,1.08.36,1.71,0,2.51-2.05,4.99-4.56,5.53l-16.86,3.59ZM187.89,174.17c-.39-.31-.87-.53-1.38-.65.52-.33,1-.75,1.38-1.22.79-.95,1.27-2.15,1.27-3.35v-17.07l-7.79,1.66c-2.51.54-4.55,3.03-4.55,5.53,0,.63.14,1.21.37,1.71.22-.57.53-1.11.92-1.58.79-.96,1.88-1.68,3.08-1.93l4.29-.92v13.39c0,1.19-.49,2.38-1.27,3.35-.4.47-.87.88-1.39,1.22.53.11.99.33,1.39.64.78.61,1.27,1.6,1.27,2.8v18.52c0,1.19-.49,2.39-1.27,3.33-.4.48-.87.9-1.39,1.23.56.11,1.15.11,1.79-.02,2.52-.54,4.57-3,4.57-5.53v-18.31c0-1.21-.48-2.19-1.27-2.8ZM198.24,149.94l-7.78,1.66v17.08c0,1.2.51,2.17,1.27,2.79.4.31.87.53,1.39.64-.52.33-.98.76-1.39,1.23-.76.95-1.27,2.14-1.27,3.32v18.33c0,2.54,2.05,4.14,4.57,3.6.64-.14,1.23-.38,1.79-.74-.53-.11-1-.31-1.38-.63-.78-.61-1.28-1.6-1.28-2.79v-18.52c0-1.21.5-2.4,1.28-3.35.39-.47.85-.9,1.38-1.23-.53-.12-1-.32-1.38-.64-.78-.61-1.28-1.6-1.28-2.8v-13.37l4.29-.92h0c1.22-.25,2.29.01,3.08.63.39.31.71.71.93,1.17.23-.59.36-1.21.36-1.83,0-2.53-2.06-4.14-4.57-3.62Z"/>
        </g>
        <g>
          <path class="cls-1" d="M233.27,83.23h0v18.1c0,1.22-.48,2.44-1.24,3.4-.37.48-.84.9-1.36,1.25.52.11.99.34,1.36.65.76.63,1.24,1.62,1.24,2.84v17.73h0c-.01,2.58-2,5.08-4.46,5.62-.62.14-1.22.14-1.75.04.51-.34.98-.77,1.36-1.26.76-.95,1.24-2.16,1.24-3.37v-17.95c0-1.22-.48-2.22-1.24-2.85-.38-.31-.85-.53-1.36-.64.51-.34.98-.76,1.36-1.25.76-.96,1.24-2.16,1.24-3.39v-18.31c0-1.2-.48-2.19-1.24-2.83-.38-.32-.85-.53-1.36-.64.43-.43,1.09-.79,1.72-.94,2.46-.52,4.49,1.27,4.5,3.82ZM239.42,104.99c.38-.48.84-.92,1.36-1.23-.52-.12-.97-.34-1.36-.65-.77-.64-1.26-1.63-1.26-2.85v-18.3c0-1.22.48-2.42,1.26-3.39.38-.49.84-.91,1.36-1.23-.53-.12-1.13-.12-1.75.01-2.47.53-4.47,3.05-4.47,5.6h0v18.1c0,1.23.48,2.22,1.24,2.85.39.32.85.53,1.36.64-.5.33-.96.77-1.36,1.25-.76.95-1.24,2.16-1.24,3.39v17.73h0c0,2.58,2,4.19,4.47,3.65.62-.13,1.22-.4,1.75-.74-.52-.11-.97-.33-1.36-.64-.77-.64-1.26-1.62-1.26-2.85v-17.97c0-1.2.48-2.43,1.26-3.38Z"/>
          <g>
            <path class="cls-1" d="M76.94,154.78v-18.74c0-1.52.54-3.09,1.4-4.32.43-.6.94-1.16,1.53-1.59-.6-.14-1.27-.14-1.98.03-.04.01-10.55,2.63-10.55,2.63-1.33.34-2.53,0-3.4-.8-.43-.41-.79-.93-1.03-1.55-.26.8-.39,1.58-.39,2.4,0,3.27,2.27,5.36,5.04,4.67l5.28-1.32v19.6c0,6.69-4.63,13.25-10.32,14.67-5.71,1.42-10.33-2.83-10.33-9.52v-13.57c0-1.56-.55-2.84-1.41-3.63-.44-.4-.96-.69-1.53-.83.57-.44,1.09-.97,1.53-1.59.86-1.23,1.41-2.76,1.41-4.32v-15.81c0-6.68,4.62-13.25,10.33-14.67,5.63-1.4,10.2,2.74,10.31,9.27h.02c0,3.27,2.28,5.34,5.05,4.66.7-.17,1.38-.52,1.98-.96-.59-.12-1.1-.42-1.53-.8-.86-.83-1.4-2.11-1.4-3.65,0-2.32-.42-4.44-1.15-6.29-1.09-2.76-2.92-4.89-5.23-6.14-2.27-1.25-5.08-1.62-8.05-.87-1.99.49-3.89,1.45-5.61,2.73-2.61,1.93-4.78,4.61-6.34,7.68-1.56,3.1-2.46,6.59-2.46,10.07v15.82c0,1.55-.55,3.09-1.41,4.32-.46.64-.97,1.16-1.55,1.59.58.15,1.09.44,1.55.83.86.8,1.41,2.07,1.41,3.63v13.57c0,2.3.39,4.45,1.11,6.3,1.1,2.76,2.93,4.87,5.23,6.12,2.3,1.25,5.11,1.61,8.07.87,1.98-.49,3.88-1.43,5.61-2.72,1.8-1.36,3.41-3.08,4.76-5.04v.77c0,2.54,2.24,4.15,5,3.61.7-.14,1.34-.38,1.95-.75-.58-.11-1.09-.31-1.51-.63-.85-.62-1.4-1.6-1.4-2.8v-12.16c.01-.26.02-.52.02-.77Z"/>
            <path class="cls-1" d="M64.4,123.36c.6.13,1.26.15,1.96-.04,2.75-.67,4.98-3.79,5.04-7.01-.03-2.82-1.02-5.14-2.59-6.6-1.62-1.49-3.84-2.11-6.29-1.5-2.46.61-4.68,2.34-6.3,4.62-1.6,2.3-2.59,5.14-2.59,8.03v15.8c0,1.57.53,2.84,1.39,3.65.44.4.96.67,1.55.8-.59.44-1.11.99-1.55,1.61-.86,1.22-1.39,2.76-1.39,4.32v13.58c0,2.86.99,5.21,2.59,6.71,1.62,1.49,3.84,2.1,6.3,1.49,2.45-.6,4.67-2.33,6.29-4.62,1.6-2.3,2.61-5.14,2.61-8.02v-17.91l-3.85.97c-2.78.69-5.04,3.89-5.04,7.16,0,.84.13,1.59.39,2.22.24-.73.6-1.44,1.03-2.04.87-1.24,2.04-2.15,3.38-2.5v13.13c0,.8-.13,1.55-.37,2.28-.36,1.09-.97,2.12-1.76,2.92-.76.8-1.66,1.39-2.66,1.63-.67.16-1.3.15-1.89.03-.83-.23-1.58-.75-2.11-1.53-.52-.78-.82-1.75-.82-2.95v-13.56c0-1.56.53-3.1,1.41-4.33.44-.62.96-1.16,1.52-1.6-.56-.15-1.08-.44-1.52-.8-.88-.82-1.41-2.09-1.41-3.65v-15.8c0-.8.13-1.56.39-2.27.34-1.1.97-2.14,1.73-2.93.77-.81,1.66-1.38,2.69-1.65.66-.15,1.29-.15,1.88,0,.84.21,1.59.73,2.1,1.51.52.79.82,1.76.82,2.95,0,1.56-.53,3.09-1.4,4.33-.43.6-.95,1.17-1.52,1.59Z"/>
          </g>
          <g>
            <path class="cls-1" d="M168.8,140.23l-15.65,3.3v-18.38c0-1.19-.49-2.16-1.28-2.78-.39-.31-.85-.53-1.38-.64.53-.35,1-.76,1.38-1.23.79-.95,1.28-2.15,1.28-3.35v-18.37l15.65-3.32c2.53-.54,4.56-3.03,4.56-5.55,0-.62-.13-1.2-.36-1.7-.22.56-.54,1.1-.93,1.57-.77.97-1.86,1.68-3.07,1.94,0,0-20.1,4.27-20.41,4.33-.63.14-1.23.4-1.79.75.53.11,1,.32,1.39.64.79.62,1.27,1.58,1.27,2.78v17.73c0,1.2-.48,2.39-1.27,3.33-.39.47-.85.89-1.39,1.22.53.12,1,.34,1.39.65.79.61,1.27,1.6,1.27,2.8v17.7c0,.8-.23,1.6-.62,2.34-1.06-.78-1.71-1.76-1.71-1.76l-10.76-16.8c1.99-1.44,3.71-3.29,4.93-5.39,1.42-2.36,2.25-5.1,2.25-7.78v-4.35c0-1.77-.36-3.43-1.02-4.85-1.01-2.13-2.64-3.76-4.73-4.74-2.07-.96-4.6-1.24-7.29-.67,0,0-13.62,2.89-13.91,2.95-.64.14-1.24.4-1.79.75.52.11,1,.33,1.38.64.79.63,1.27,1.6,1.27,2.8v17.7c0,1.21-.48,2.39-1.27,3.35-.39.48-.87.9-1.38,1.23.52.1,1,.34,1.38.64.79.61,1.27,1.59,1.27,2.78v17.72c0,1.19-.48,2.39-1.27,3.35-.39.48-.87.88-1.38,1.22.54.11,1.15.11,1.79-.02,2.52-.54,4.55-3,4.57-5.53v-17.51c0-1.21-.51-2.19-1.29-2.81-.38-.29-.84-.52-1.36-.63.52-.34.98-.75,1.36-1.22.79-.96,1.29-2.15,1.29-3.36v-18.37l9.35-1.99c5.15-1.09,9.33,2.19,9.33,7.35v4.36c0,4.85-3.69,9.6-8.39,11.08l11.61,18.74-.04.02h.04c.9,2.09,3.56,3.42,5.94,3.24.31-.01.65-.04,1.07-.11.31-.05,18.93-4.16,18.93-4.16,1.21-.24,2.29,0,3.07.61.39.31.71.72.93,1.19.23-.59.36-1.23.36-1.86,0-2.52-2.03-4.12-4.56-3.58Z"/>
            <path class="cls-1" d="M172.07,133.24c-.77.97-1.86,1.69-3.07,1.93l-10.86,2.33v-13.05l6.51-1.38c1.2-.26,2.28.01,3.06.63.4.31.72.71.93,1.18.23-.61.36-1.24.36-1.87,0-2.52-2.05-4.11-4.56-3.59l-8.43,1.79c-.09.11-.21.23-.31.35-.78.95-1.26,2.14-1.26,3.35v17.06l14.34-3.04c2.53-.54,4.56-3.03,4.56-5.55,0-.63-.13-1.21-.36-1.7-.22.57-.54,1.11-.93,1.57Z"/>
            <path class="cls-1" d="M168.8,96.76l-14.34,3.04v17.08c0,1.19.48,2.18,1.26,2.79.11.07.22.14.33.21l8.41-1.8c2.51-.53,4.56-3.01,4.56-5.52,0-.64-.13-1.22-.36-1.7-.22.56-.53,1.09-.93,1.57-.79.96-1.86,1.66-3.06,1.92l-6.51,1.39v-13.03l10.86-2.31c1.21-.25,2.29,0,3.07.62.39.31.71.72.93,1.19.23-.61.36-1.25.36-1.87,0-2.52-2.03-4.13-4.56-3.59Z"/>
            <path class="cls-1" d="M130.05,126.48l-6.02,1.28c-.1.12-.2.24-.3.35-.79.95-1.28,2.13-1.28,3.33v17.5c0,2.53,2.05,4.15,4.57,3.61.65-.13,1.23-.39,1.79-.73-.51-.11-.98-.33-1.39-.64-.79-.62-1.27-1.6-1.27-2.8v-17.38l1.4-.29,10.2,15.53c.49,1.1.43,2.19-.05,3.07-.25.46-.58.85-1.02,1.15.65.09,1.29.11,1.94-.05,2.51-.53,4.02-2.9,3.04-5.22l-11.61-18.71Z"/>
            <path class="cls-1" d="M124.05,126.46l6.46-1.37c2.23-.47,4.22-1.8,5.67-3.55,1.46-1.77,2.37-3.97,2.37-6.2v-4.34c0-2.23-.91-4.03-2.37-5.18-1.45-1.14-3.44-1.63-5.67-1.15l-8.05,1.71v17.06c0,1.22.49,2.19,1.28,2.81.1.08.2.17.31.22ZM126.15,109.27l4.35-.92c.61-.13,1.15-.12,1.68-.01.78.14,1.44.57,1.9,1.17.48.59.76,1.35.76,2.26v4.34c0,.61-.14,1.19-.36,1.76-.31.84-.88,1.64-1.57,2.25-.7.62-1.51,1.05-2.42,1.27l-4.35.9v-13.03Z"/>
          </g>
          <path class="cls-1" d="M97.04,110.81c-2.23.47-4.22,1.8-5.68,3.57-1.46,1.76-2.37,3.97-2.37,6.19v9.45c.01,1.19.5,2.15,1.28,2.78.39.32.87.53,1.39.64-.52.34-1,.76-1.39,1.23-.78.94-1.27,2.13-1.28,3.33v9.44c0,2.22.9,4.03,2.37,5.18,1.46,1.15,3.46,1.63,5.68,1.15,2.21-.47,4.22-1.8,5.68-3.56,1.45-1.77,2.36-3.96,2.36-6.18v-9.44c0-1.2-.49-2.19-1.28-2.8-.39-.3-.85-.53-1.39-.64.53-.34,1-.75,1.39-1.23.79-.95,1.28-2.13,1.28-3.35v-9.42c0-2.22-.91-4.05-2.36-5.19-1.46-1.15-3.47-1.63-5.68-1.16ZM101.37,127.37c0,1.21-.48,2.4-1.26,3.35-.4.48-.88.89-1.38,1.22.51.12.98.34,1.38.65.78.61,1.26,1.6,1.26,2.79v9.45c0,.59-.12,1.19-.34,1.75-.32.85-.88,1.65-1.58,2.25-.69.61-1.5,1.08-2.42,1.27-.62.12-1.18.12-1.7,0-.77-.14-1.45-.56-1.92-1.16-.48-.6-.72-1.35-.74-2.27v-9.45c0-1.19.49-2.4,1.28-3.33.38-.47.85-.9,1.37-1.23-.52-.11-1-.32-1.37-.63-.79-.63-1.28-1.61-1.28-2.81v-9.44c0-.61.13-1.2.34-1.76.34-.85.88-1.63,1.59-2.25.69-.61,1.51-1.05,2.42-1.24.61-.15,1.16-.15,1.68-.03.78.16,1.45.57,1.93,1.17.45.6.72,1.36.72,2.27v9.43ZM111.34,128.33c-.78-.62-1.27-1.6-1.27-2.8v-9.43c0-1.79-.36-3.45-1.02-4.87-1-2.13-2.64-3.77-4.71-4.72-2.08-.98-4.62-1.25-7.3-.69-1.79.38-3.52,1.11-5.09,2.1-2.33,1.49-4.32,3.56-5.73,5.94-1.39,2.38-2.23,5.08-2.23,7.77v9.43c0,1.2-.48,2.39-1.27,3.35-.39.48-.85.89-1.38,1.22.53.12,1,.34,1.38.64.79.61,1.27,1.6,1.27,2.79v9.45c0,1.79.38,3.43,1.04,4.87.98,2.12,2.64,3.75,4.71,4.72,2.08.97,4.61,1.26,7.3.69,1.79-.38,3.51-1.11,5.06-2.1,2.37-1.51,4.34-3.57,5.75-5.94,1.41-2.39,2.23-5.09,2.23-7.76v-9.44c0-1.21.49-2.41,1.27-3.35.4-.47.87-.9,1.38-1.24-.52-.11-.99-.31-1.38-.63ZM107.65,130.98c-.79.94-1.28,2.14-1.28,3.33v9.45c0,5.15-4.18,10.23-9.33,11.33-5.15,1.08-9.35-2.22-9.35-7.37v-9.45c0-1.19-.48-2.18-1.28-2.79-.39-.31-.87-.54-1.37-.64.5-.34.98-.75,1.37-1.23.8-.96,1.28-2.14,1.28-3.35v-9.43c0-5.17,4.19-10.23,9.35-11.33,5.15-1.08,9.33,2.2,9.33,7.35v9.45c0,1.19.49,2.17,1.28,2.79.39.31.85.53,1.39.64-.53.33-1,.75-1.39,1.22Z"/>
          <g>
            <path class="cls-1" d="M196.86,91.06l-7.78,1.68v17.25c0,1.21.51,2.19,1.27,2.82.4.31.87.54,1.39.64-.52.33-.98.76-1.39,1.24-.76.95-1.27,2.16-1.27,3.35v17.69c0,2.56,2.05,4.18,4.57,3.64.64-.14,1.23-.39,1.79-.75-.53-.11-1-.32-1.38-.64-.78-.62-1.28-1.61-1.28-2.82v-17.89c0-1.22.5-2.42,1.28-3.38.39-.48.85-.91,1.38-1.24-.53-.12-1-.32-1.38-.64-.78-.62-1.28-1.61-1.28-2.83v-13.5l4.29-.93,6.57-1.3,4.29-.93v13.53c0,1.21-.49,2.41-1.27,3.38-.4.48-.87.89-1.39,1.23.53.11.99.33,1.39.64.78.62,1.27,1.61,1.27,2.83v17.89c0,1.21-.49,2.42-1.27,3.37-.4.49-.87.91-1.39,1.24.56.11,1.15.11,1.79-.02,2.52-.54,4.57-3.03,4.57-5.58v-17.68c0-1.22-.48-2.21-1.27-2.83-.39-.32-.87-.54-1.38-.66.52-.33,1-.75,1.38-1.24.79-.95,1.27-2.17,1.27-3.38v-17.23l-7.79,1.67-6.94,1.38Z"/>
            <path class="cls-1" d="M220.68,86.05l-7.78,1.68v17.25c0,1.21.51,2.19,1.27,2.82.4.31.87.54,1.39.64-.52.33-.98.76-1.39,1.24-.76.95-1.27,2.16-1.27,3.35v17.69c0,2.56,2.05,4.18,4.57,3.64.64-.14,1.23-.39,1.79-.75-.53-.11-1-.32-1.38-.64-.78-.62-1.28-1.61-1.28-2.82v-17.89c0-1.22.5-2.42,1.28-3.38.39-.48.85-.91,1.38-1.24-.53-.12-1-.32-1.38-.64-.78-.62-1.28-1.61-1.28-2.83v-13.5l4.29-.93c1.22-.25,2.29.01,3.08.63.39.31.71.72.93,1.18.23-.6.36-1.22.36-1.85,0-2.56-2.06-4.18-4.57-3.65Z"/>
            <path class="cls-1" d="M180.01,93.37l16.86-3.62,6.96-1.39,16.86-3.62c2.51-.54,4.56-3.05,4.56-5.59,0-.64-.13-1.22-.36-1.73-.22.58-.54,1.11-.93,1.6-.78.95-1.86,1.69-3.07,1.95l-17.27,3.7-6.56,1.32-17.27,3.7c-1.2.26-2.29.01-3.08-.62-.39-.32-.7-.72-.92-1.19-.23.6-.37,1.24-.37,1.86,0,2.55,2.06,4.19,4.58,3.65Z"/>
            <path class="cls-1" d="M175.43,100.28c0,.63.14,1.22.37,1.73.22-.58.53-1.12.92-1.59.79-.97,1.88-1.7,3.08-1.95l4.29-.93v13.53c0,1.21-.49,2.41-1.27,3.38-.4.48-.87.89-1.39,1.23.53.11.99.33,1.39.64.78.62,1.27,1.61,1.27,2.83v17.89c0,1.21-.49,2.42-1.27,3.37-.4.49-.87.91-1.39,1.24.56.11,1.15.11,1.79-.02,2.52-.54,4.57-3.03,4.57-5.58v-17.68c0-1.22-.48-2.21-1.27-2.83-.39-.32-.87-.54-1.38-.66.52-.33,1-.75,1.38-1.24.79-.95,1.27-2.17,1.27-3.38v-17.23l-7.79,1.67c-2.51.55-4.55,3.06-4.55,5.59Z"/>
          </g>
        </g>
      </g>
    </g>
  </g>
</svg>