<?xml version="1.0" encoding="UTF-8"?>
<svg id="a" data-name="Layer 1" xmlns="http://www.w3.org/2000/svg" viewBox="0 0 482.124 313.291">
  <defs>
    <style>
      .b {
        fill: #e29c20;
      }

      .b, .c, .d, .e {
        stroke-width: 0px;
      }

      .c {
        fill: #efe3cb;
        
      }

      .d {
        fill: #115e59;
      }

      .e {
        fill: #ccebed;
      }
    </style>
  </defs>
  <path class="b" d="M457.28,236.711c-4.525,8.299-16.863,10.334-25.509,13.587-50.032,15.779-140.51,46.279-192.112,61.778-4.186.988-7.562,1.381-11.125,1.151-5.334-.416-10.828-1.989-16.57-3.76-44.027-13.873-141.576-45.228-186.028-59.362-7.583-2.676-16.303-4.57-21.172-10.651-3.097-4.099-4.031-10.357-4.385-20.284-.423-14.072-.158-26.409-.276-42.734.088-20.721-.385-41.977.181-62.221.458-20.474,6.911-22.69,25.682-28.79,45.06-14.63,93.366-30.231,138.405-44.833,23.841-7.408,40.249-13.82,59.199-18.443,6.581-1.248,11.464-.604,18.067,1.142,50.813,15.53,145.809,46.44,197.677,62.919,8.329,3.067,14.097,4.44,17.932,11.405,3.655,8.493,2.87,19.028,3.182,28.556-.123,30.269.601,65.355-.147,95.522-.223,5.389-.837,10.661-2.956,14.934l-.044.083Z"/>
  <path class="e" d="M478.78,215.211c-4.525,8.299-16.863,10.334-25.509,13.587-50.032,15.779-140.51,46.279-192.112,61.778-4.186.988-7.562,1.381-11.125,1.151-5.334-.416-10.828-1.989-16.57-3.76-44.027-13.873-141.576-45.228-186.028-59.362-7.583-2.676-16.303-4.57-21.172-10.651-3.097-4.099-4.031-10.357-4.385-20.284-.423-14.072-.158-26.409-.276-42.734.088-20.721-.385-41.977.181-62.221.458-20.474,6.911-22.69,25.682-28.79,45.06-14.63,93.366-30.231,138.405-44.833,23.841-7.408,40.249-13.82,59.199-18.443,6.581-1.248,11.464-.604,18.067,1.142,50.813,15.53,145.809,46.44,197.677,62.919,8.329,3.067,14.097,4.44,17.932,11.405,3.655,8.493,2.87,19.028,3.182,28.556-.123,30.269.601,65.355-.147,95.522-.223,5.389-.837,10.661-2.956,14.934l-.044.083Z"/>
  <path class="c" d="M469.28,224.711c-4.525,8.299-16.863,10.334-25.509,13.587-50.032,15.779-140.51,46.279-192.112,61.778-4.186.988-7.562,1.381-11.125,1.151-5.334-.416-10.828-1.989-16.57-3.76-44.027-13.873-141.576-45.228-186.028-59.362-7.583-2.676-16.303-4.57-21.172-10.651-3.097-4.099-4.031-10.357-4.385-20.284-.423-14.072-.158-26.409-.276-42.734.088-20.721-.385-41.977.181-62.221.458-20.474,6.911-22.69,25.682-28.79,45.06-14.63,93.366-30.231,138.405-44.833,23.841-7.408,40.249-13.82,59.199-18.443,6.581-1.248,11.464-.604,18.067,1.142,50.813,15.53,145.809,46.44,197.677,62.919,8.329,3.067,14.097,4.44,17.932,11.405,3.655,8.493,2.87,19.028,3.182,28.556-.123,30.269.601,65.355-.147,95.522-.223,5.389-.837,10.661-2.956,14.934l-.044.083Z"/>
  <g>
    <path class="d" d="M106.186,159.47c-7.401,0-14.161-3.121-19.035-8.789-6.528-7.592-9.192-19.074-7.31-31.501,3.355-23.601,18.529-38.3,39.593-38.3,11.514,0,18.72,4.267,21.989,6.81,3.719,2.88,8.81,9.398.998,20.608-.17.236-.341.466-.512.692,1.873.51,3.638,1.443,5.052,3.122,3.035,3.605,2.221,8.308,1.873,10.316-.124.791-.29,1.793-.47,2.884-.891,5.388-2.11,12.767-2.329,18.892-.001.037-.003.075-.005.112-.651,12.374-8.409,14.222-12.975,14.222h-5.411c-3.992,0-6.598-1.366-8.234-2.8-3.364,2.211-7.717,3.733-13.225,3.733Z"/>
    <path class="d" d="M86.407,120.175c2.613-18.38,13.715-32.655,33.028-32.655,10.449,0,16.234,4.105,17.913,5.411,2.892,2.239,3.918,5.411-.373,11.569-2.892,4.012-6.158,6.064-6.158,6.064,0,0-3.639-3.358-11.01-3.358s-11.755,6.531-12.035,14.928c-.187,7.557,3.172,11.289,8.21,11.289,5.411,0,5.785-5.598,5.785-5.598l-5.691.373c-2.052,0-2.706-1.586-2.519-3.638l.653-6.345c.28-1.866,1.959-3.172,4.385-3.172h17.913c5.691,0,6.624,1.4,5.784,6.251-.84,5.318-2.612,14.834-2.892,22.671-.28,5.318-1.866,7.931-6.345,7.931h-5.411c-3.918,0-5.691-2.052-5.131-6.251.187-1.493.56-3.265.653-4.478h-.84s-2.706,11.662-16.141,11.662c-13.808,0-22.578-14.182-19.779-32.655Z"/>
    <path class="d" d="M169.445,159.563c-8.808,0-16.211-2.873-21.408-8.309-5.366-5.612-8.104-13.682-7.713-22.73.601-21.908,14.151-35.515,35.373-35.515,8.819,0,16.26,2.846,21.52,8.229,5.348,5.473,8.18,13.314,7.976,22.077-.815,22.392-14.512,36.248-35.747,36.248ZM170.633,122.499s0,0,0,0Z"/>
    <path class="d" d="M175.696,99.649c16.42,0,23.138,11.476,22.858,23.512-.653,17.913-11.009,29.762-29.109,29.762-16.421,0-23.045-11.662-22.485-24.164.467-17.726,10.543-29.109,28.736-29.109ZM177.282,124c.186-3.079-.467-5.878-3.639-5.878-4.292,0-5.878,3.732-6.065,9.983-.093,3.358.653,6.344,3.825,6.344,4.292,0,5.691-3.918,5.878-10.449Z"/>
    <path class="d" d="M208.166,158.537c-4.762,0-8.44-1.488-10.932-4.423-2.559-3.014-3.439-7.073-2.618-12.065,1.185-6.835,3.869-24.931,4.637-30.602.132-.957-.28-2.807-.598-3.426-1.267-2.027-1.292-4.487-.153-6.588,1.704-3.146,6.158-8.423,16.848-8.423,5.181,0,9.291,1.451,12.235,4.317,3.356-2.625,7.502-4.317,12.116-4.317,6.752,0,10.506,2.821,12.467,5.188,3.148,3.801,4.099,9.132,2.827,15.844-2.154,10.894-9.974,18.466-19.026,18.466-1.293,0-2.43-.107-3.435-.29-.189,1.953-.346,3.796-.491,5.5-.199,2.338-.372,4.356-.579,6.167-1.035,9.84-5.912,14.653-14.9,14.653h-8.397Z"/>
    <path class="d" d="M205.833,112.338c.373-2.706-.56-6.251-1.493-7.744,1.213-2.239,4.198-4.945,11.009-4.945,9.517,0,10.636,6.438,9.89,12.316h.466c1.213-6.065,7.091-12.316,13.995-12.316,7.184,0,10.45,4.292,8.77,13.155-1.679,8.49-7.277,13.062-12.502,13.062-3.638,0-4.851-1.213-5.505-1.679.56-2.612.093-5.971-1.679-5.971-.28,0-.653,0-1.12.093-1.773,10.169-2.146,19.126-2.799,24.817-.746,7.091-3.265,8.77-8.303,8.77h-8.397c-3.919,0-8.21-1.4-6.998-8.77,1.213-6.997,3.919-25.284,4.665-30.788Z"/>
    <path class="d" d="M272.917,159.47c-10.468,0-18.609-3.075-24.198-9.14-5.572-6.047-8.075-14.661-7.237-24.911,1.6-19.687,15.257-32.41,34.794-32.41,11.507,0,17.767,4.201,20.995,7.726,4.07,4.446,5.906,10.439,5.313,17.336-.313,4.585-2.284,9.231-5.623,13.051,2.091,3.137,3.081,6.78,2.828,10.578-.003.057-.008.113-.013.169-1.194,12.977-14.657,17.601-26.858,17.601Z"/>
    <path class="d" d="M276.275,99.649c14.276,0,20.62,7.371,19.687,17.913-.653,10.17-10.916,15.675-19.127,15.675-7.65,0-9.236-4.851-9.236-4.851l-.466.093c-.186,3.265,2.706,7.464,10.636,7.464,6.437,0,11.849-3.265,11.849-3.265,2.892,2.706,3.731,5.785,3.545,8.583-.653,7.091-8.023,11.569-20.246,11.569-19.22,0-26.03-12.036-24.818-26.87,1.213-14.928,11.009-26.311,28.176-26.311ZM269.931,122.601c3.733,0,7.278-1.586,7.558-4.292.093-1.773-1.12-3.079-3.639-3.079-4.105,0-5.691,3.919-5.691,6.437v.84c.56.093,1.12.093,1.772.093Z"/>
    <path class="d" d="M315.184,159.47c-6.62,0-11.742-1.902-15.224-5.653-3.678-3.963-5.201-9.574-4.653-17.15.131-2.712.803-7.11,1.514-11.762.142-.922.283-1.853.419-2.757-.92-.518-1.619-1.133-2.136-1.7-1.192-1.311-2.543-3.617-2.205-7.155,0,0,.953-8.96.961-9.019.825-6.169,6.233-8.263,8.01-8.951.066-.026.133-.05.2-.074,4.529-1.588,5.527-3.807,6.122-5.133,1.323-2.908,4.067-6.343,9.696-6.343h7.557c3.248,0,6.274,1.279,8.303,3.507,1.655,1.816,2.57,4.15,2.647,6.684,2.581.167,4.854,1.276,6.454,3.167,1.676,1.979,2.434,4.697,2.043,7.297l-1.376,10.27c-.672,6.386-5.282,8.665-9.395,8.665h-1.293c-.215,1.469-.427,2.85-.617,4.095-.091.6-.189,1.24-.283,1.868,4.572.806,8.94,4.881,8.644,12.34-.113,4.369-1.007,8.253-1.11,8.683-.558,2.351-2.348,4.214-4.675,4.863-.78.217-1.705.508-2.736.829-4.633,1.446-10.979,3.427-16.868,3.427Z"/>
    <path class="d" d="M304.642,116.723h-2.426c-1.865,0-2.892-.84-2.705-2.799l.933-8.77c.187-1.4.934-2.519,3.826-3.638,7.184-2.519,9.143-6.811,9.982-8.677.934-2.053,2.146-2.426,3.64-2.426h7.557c2.332,0,4.572,1.399,4.292,4.385-.28,2.706-.56,4.572-.747,5.785h6.718c2.239,0,2.799,1.773,2.612,2.892l-1.4,10.45c-.186,1.959-.839,2.799-2.799,2.799h-7.09c-.934,7.557-2.239,14.461-2.239,16.327,0,1.959.746,2.519,2.146,2.613,1.026.093,2.425,0,3.731.186,1.307.186,3.452,1.306,3.266,5.598-.093,3.825-.934,7.371-.934,7.371-4.012,1.12-11.661,4.012-17.819,4.012-11.568,0-13.902-6.998-13.248-15.768.186-4.292,2.332-15.768,2.705-20.339Z"/>
    <path class="d" d="M356.516,159.47c-6.62,0-11.742-1.902-15.224-5.652-3.678-3.963-5.201-9.574-4.654-17.151.131-2.709.803-7.105,1.514-11.755.142-.925.284-1.858.42-2.764-.92-.518-1.619-1.133-2.136-1.7-1.192-1.311-2.543-3.617-2.205-7.155,0,0,.953-8.96.961-9.019.825-6.171,6.234-8.264,8.012-8.952.066-.025.132-.05.199-.073,4.528-1.588,5.528-3.809,6.125-5.136,1.32-2.905,4.063-6.341,9.693-6.341h7.558c3.248,0,6.274,1.279,8.303,3.507,1.655,1.816,2.57,4.15,2.647,6.684,2.581.167,4.854,1.276,6.454,3.167,1.676,1.979,2.434,4.697,2.043,7.297l-1.376,10.27c-.672,6.386-5.281,8.665-9.394,8.665h-1.294c-.215,1.469-.427,2.85-.617,4.095-.091.6-.189,1.24-.283,1.868,4.574.806,8.941,4.882,8.644,12.341-.113,4.368-1.006,8.25-1.108,8.68-.558,2.352-2.348,4.215-4.676,4.866-.779.217-1.705.508-2.735.829-4.634,1.446-10.98,3.427-16.87,3.427Z"/>
    <path class="d" d="M345.974,116.723h-2.426c-1.865,0-2.892-.84-2.705-2.799l.933-8.77c.187-1.4.933-2.519,3.826-3.638,7.184-2.519,9.143-6.811,9.983-8.677.933-2.053,2.145-2.426,3.638-2.426h7.558c2.332,0,4.572,1.399,4.292,4.385-.28,2.706-.56,4.572-.746,5.785h6.717c2.239,0,2.799,1.773,2.612,2.892l-1.4,10.45c-.186,1.959-.84,2.799-2.798,2.799h-7.091c-.934,7.557-2.239,14.461-2.239,16.327,0,1.959.746,2.519,2.145,2.613,1.027.093,2.426,0,3.732.186,1.307.186,3.453,1.306,3.266,5.598-.093,3.825-.933,7.371-.933,7.371-4.012,1.12-11.662,4.012-17.82,4.012-11.569,0-13.902-6.998-13.249-15.768.187-4.292,2.333-15.768,2.706-20.339Z"/>
    <path class="d" d="M393.837,159.47c-6.248,0-11.001-1.691-14.129-5.027-4.526-4.829-4.106-11.331-3.88-14.824.255-4.916,1.165-10.372,2.045-15.649.754-4.52,1.467-8.789,1.585-11.802.023-.941-.337-1.824-.34-1.829-1.379-1.916-1.637-4.42-.68-6.576.244-.547,1.633-3.411,5.064-5.906-1.471-2.391-2.072-5.376-1.79-8.906.003-.053.009-.105.014-.158,1.443-13.884,13.531-13.884,18.081-13.884,3.293,0,9.423,0,13.355,4.306,2.439,2.671,3.467,6.327,3.054,10.866-.504,4.727-2.238,7.832-4.482,9.872,3.439,4.45,3.354,10.004,3.295,13.792-.184,5.85-1.455,13.438-2.476,19.535-.533,3.184-1.138,6.793-1.164,7.863-.028,1.114.292,1.901.42,2.171,1.491,1.939,1.498,4.171.466,6.413-.458.997-4.874,9.742-18.44,9.742Z"/>
    <path class="d" d="M386.093,112.431c.093-3.638-1.587-5.971-1.587-5.971,0,0,2.612-5.878,12.409-5.878,11.568,0,11.568,6.997,11.475,13.062-.28,8.863-3.545,23.511-3.639,27.336-.093,3.639,1.493,5.971,1.493,5.971,0,0-2.705,5.878-12.408,5.878-11.756,0-11.756-6.998-11.382-12.782.466-8.957,3.359-20.526,3.639-27.617ZM388.331,89.48c.747-7.184,5.318-7.931,11.476-7.931,5.971,0,10.45.746,9.796,7.931-.746,6.997-5.317,7.744-11.288,7.744-6.158,0-10.543-.746-9.984-7.744Z"/>
    <path class="d" d="M162.354,232.401c-4.017,0-13.358-1.365-13.358-14.011,0-1.223.109-2.334.206-3.314.034-.346.068-.686.093-1.018.015-.193.038-.386.07-.577,2.037-12.313,5.288-35.841,5.637-39.244.07-.66.091-1.47.113-2.327.117-4.44.426-16.232,15.262-16.232h26.684c4.491,0,7.995,1.355,10.414,4.028,1.614,1.784,3.429,4.997,2.911,10.177l-.461,4.99c-.52,5.82-3.781,10.078-8.701,11.777.148.147.285.293.413.436,1.467,1.647,3.106,4.565,2.581,9.115l-.758,5.874c-1.022,8.59-6.639,10.408-11.17,10.408-.514,0-1.067-.021-1.664-.063-1.157-.082-2.74-.148-4.584-.193-.025.659-.042,1.272-.059,1.861-.061,2.192-.118,4.261-.569,6.911-1.839,11.403-10.041,11.403-13.543,11.403h-9.517Z"/>
    <path class="d" d="M155.916,214.566c2.053-12.408,5.318-36.014,5.691-39.651.56-5.318-1.306-12.596,8.77-12.596h26.684c5.784,0,7.091,3.172,6.717,6.904l-.466,5.039c-.467,5.224-4.012,6.811-8.024,6.53-2.892-.093-7.277-.093-11.475-.093l-1.587,9.517c4.199.093,8.117-.187,10.17-.187,4.851,0,5.505,2.986,5.225,5.411l-.747,5.784c-.466,3.919-1.772,4.853-5.784,4.572-2.613-.186-6.904-.279-11.196-.279-.84,7.557-.28,9.982-1.026,14.367-.933,5.784-3.452,5.877-6.997,5.877h-9.517c-5.878,0-6.718-3.452-6.718-7.371,0-1.306.187-2.611.28-3.825Z"/>
    <path class="d" d="M226.919,233.335c-10.468,0-18.609-3.075-24.198-9.14-5.573-6.047-8.075-14.66-7.237-24.911,1.6-19.687,15.257-32.409,34.794-32.409,11.506,0,17.767,4.201,20.994,7.725,4.07,4.446,5.906,10.44,5.313,17.337-.314,4.585-2.284,9.232-5.623,13.05,2.092,3.137,3.082,6.781,2.829,10.579-.004.056-.008.112-.014.169-1.195,12.977-14.658,17.6-26.858,17.6Z"/>
    <path class="d" d="M230.277,173.515c14.275,0,20.619,7.37,19.686,17.913-.653,10.17-10.916,15.674-19.126,15.674-7.651,0-9.237-4.851-9.237-4.851l-.466.093c-.186,3.266,2.706,7.464,10.636,7.464,6.437,0,11.849-3.265,11.849-3.265,2.892,2.705,3.732,5.784,3.545,8.583-.653,7.091-8.023,11.569-20.246,11.569-19.22,0-26.03-12.035-24.818-26.869,1.213-14.928,11.009-26.311,28.176-26.311ZM223.933,196.467c3.732,0,7.277-1.587,7.557-4.293.093-1.772-1.12-3.078-3.639-3.078-4.105,0-5.691,3.919-5.691,6.437v.84c.56.094,1.12.094,1.773.094Z"/>
    <path class="d" d="M271.611,233.335c-12.009,0-19.027-1.899-22.756-6.158-1.542-1.762-3.255-4.791-2.68-9.233.692-5.798,4.76-11.163,6.555-13.281-3.08-3.249-4.542-7.317-4.362-12.175.698-16.054,12.735-25.614,32.2-25.614,9.623,0,25.766,1.796,25.766,13.824,0,.105-.002.21-.008.314-.24,5.05-3.551,10.1-6.099,13.144,4.023,4,5.519,9.059,5.356,13.558-.455,15.784-13.473,25.62-33.972,25.62Z"/>
    <path class="d" d="M258.268,208.409s5.411,2.518,12.875,2.518c1.772,0,3.359-.56,3.359-1.679.093-1.398-1.494-2.239-5.038-3.359l-3.265-1.026c-8.957-2.799-11.382-7.091-11.196-12.129.56-12.875,10.263-19.219,25.564-19.219,14.274,0,19.126,3.545,19.126,7.184-.186,3.919-4.292,9.236-6.158,10.916,0,0-5.317-2.425-11.101-2.425-2.053,0-3.733.56-3.733,1.772-.093,1.213.84,1.865,3.733,2.519l4.198.933c9.517,2.146,12.502,7.931,12.316,13.062-.374,12.969-11.663,19.22-27.336,19.22-16.421,0-19.407-3.733-18.847-7.931.56-4.851,5.318-10.17,5.505-10.356Z"/>
    <path class="d" d="M318.915,233.335c-6.62,0-11.741-1.902-15.222-5.652-3.679-3.962-5.202-9.573-4.655-17.15.131-2.714.804-7.115,1.516-11.771.14-.919.282-1.847.417-2.748-.92-.518-1.62-1.133-2.137-1.701-1.192-1.312-2.542-3.619-2.203-7.157,0,0,.952-8.959.961-9.02.829-6.169,6.235-8.26,8.012-8.947.065-.025.131-.049.197-.072,4.529-1.589,5.529-3.81,6.126-5.137,1.32-2.905,4.063-6.341,9.694-6.341h7.557c3.248,0,6.274,1.278,8.303,3.506,1.655,1.816,2.57,4.15,2.647,6.685,2.58.166,4.851,1.275,6.452,3.163,1.677,1.979,2.437,4.698,2.046,7.299l-1.376,10.272c-.674,6.385-5.284,8.664-9.395,8.664h-1.294c-.216,1.474-.428,2.861-.618,4.111-.092.594-.188,1.23-.282,1.852,4.574.805,8.941,4.882,8.644,12.342-.113,4.367-1.006,8.249-1.108,8.679-.558,2.352-2.348,4.216-4.676,4.866-.779.217-1.705.508-2.734.829-4.634,1.446-10.981,3.427-16.872,3.427Z"/>
    <path class="d" d="M308.373,190.588h-2.426c-1.866,0-2.893-.84-2.705-2.799l.932-8.77c.188-1.4.934-2.519,3.826-3.638,7.185-2.52,9.143-6.811,9.983-8.677.933-2.053,2.145-2.426,3.639-2.426h7.557c2.333,0,4.572,1.399,4.293,4.385-.281,2.706-.56,4.572-.747,5.785h6.718c2.239,0,2.798,1.772,2.612,2.892l-1.4,10.45c-.187,1.959-.84,2.799-2.799,2.799h-7.091c-.933,7.558-2.239,14.461-2.239,16.327,0,1.959.747,2.519,2.146,2.613,1.027.093,2.425,0,3.732.186s3.452,1.306,3.265,5.598c-.093,3.825-.933,7.371-.933,7.371-4.012,1.12-11.662,4.012-17.82,4.012-11.568,0-13.901-6.998-13.248-15.768.186-4.292,2.332-15.767,2.706-20.339Z"/>
  </g>
  <g>
    <path class="b" d="M86.407,120.175c2.613-18.38,13.715-32.655,33.028-32.655,10.449,0,16.234,4.105,17.913,5.411,2.892,2.239,3.918,5.411-.373,11.569-2.892,4.012-6.158,6.064-6.158,6.064,0,0-3.639-3.358-11.01-3.358s-11.755,6.531-12.035,14.928c-.187,7.557,3.172,11.289,8.21,11.289,5.411,0,5.785-5.598,5.785-5.598l-5.691.373c-2.052,0-2.706-1.586-2.519-3.638l.653-6.345c.28-1.866,1.959-3.172,4.385-3.172h17.913c5.691,0,6.624,1.4,5.784,6.251-.84,5.318-2.612,14.834-2.892,22.671-.28,5.318-1.866,7.931-6.345,7.931h-5.411c-3.918,0-5.691-2.052-5.131-6.251.187-1.493.56-3.265.653-4.478h-.84s-2.706,11.662-16.141,11.662c-13.808,0-22.578-14.182-19.779-32.655Z"/>
    <path class="b" d="M175.696,99.649c16.42,0,23.138,11.476,22.858,23.512-.653,17.913-11.009,29.762-29.109,29.762-16.421,0-23.045-11.662-22.485-24.164.467-17.726,10.543-29.109,28.736-29.109ZM177.282,124c.186-3.079-.467-5.878-3.639-5.878-4.292,0-5.878,3.732-6.065,9.983-.093,3.358.653,6.344,3.825,6.344,4.292,0,5.691-3.918,5.878-10.449Z"/>
    <path class="b" d="M205.833,112.338c.373-2.706-.56-6.251-1.493-7.744,1.213-2.239,4.198-4.945,11.009-4.945,9.517,0,10.636,6.438,9.89,12.316h.466c1.213-6.065,7.091-12.316,13.995-12.316,7.184,0,10.45,4.292,8.77,13.155-1.679,8.49-7.277,13.062-12.502,13.062-3.638,0-4.851-1.213-5.505-1.679.56-2.612.093-5.971-1.679-5.971-.28,0-.653,0-1.12.093-1.773,10.169-2.146,19.126-2.799,24.817-.746,7.091-3.265,8.77-8.303,8.77h-8.397c-3.919,0-8.21-1.4-6.998-8.77,1.213-6.997,3.919-25.284,4.665-30.788Z"/>
    <path class="b" d="M276.275,99.649c14.276,0,20.62,7.371,19.687,17.913-.653,10.17-10.916,15.675-19.127,15.675-7.65,0-9.236-4.851-9.236-4.851l-.466.093c-.186,3.265,2.706,7.464,10.636,7.464,6.437,0,11.849-3.265,11.849-3.265,2.892,2.706,3.731,5.785,3.545,8.583-.653,7.091-8.023,11.569-20.246,11.569-19.22,0-26.03-12.036-24.818-26.87,1.213-14.928,11.009-26.311,28.176-26.311ZM269.931,122.601c3.733,0,7.278-1.586,7.558-4.292.093-1.773-1.12-3.079-3.639-3.079-4.105,0-5.691,3.919-5.691,6.437v.84c.56.093,1.12.093,1.772.093Z"/>
    <path class="b" d="M304.642,116.723h-2.426c-1.865,0-2.892-.84-2.705-2.799l.933-8.77c.187-1.4.934-2.519,3.826-3.638,7.184-2.519,9.143-6.811,9.982-8.677.934-2.053,2.146-2.426,3.64-2.426h7.557c2.332,0,4.572,1.399,4.292,4.385-.28,2.706-.56,4.572-.747,5.785h6.718c2.239,0,2.799,1.773,2.612,2.892l-1.4,10.45c-.186,1.959-.839,2.799-2.799,2.799h-7.09c-.934,7.557-2.239,14.461-2.239,16.327,0,1.959.746,2.519,2.146,2.613,1.026.093,2.425,0,3.731.186,1.307.186,3.452,1.306,3.266,5.598-.093,3.825-.934,7.371-.934,7.371-4.012,1.12-11.661,4.012-17.819,4.012-11.568,0-13.902-6.998-13.248-15.768.186-4.292,2.332-15.768,2.705-20.339Z"/>
    <path class="b" d="M345.974,116.723h-2.426c-1.865,0-2.892-.84-2.705-2.799l.933-8.77c.187-1.4.933-2.519,3.826-3.638,7.184-2.519,9.143-6.811,9.983-8.677.933-2.053,2.145-2.426,3.638-2.426h7.558c2.332,0,4.572,1.399,4.292,4.385-.28,2.706-.56,4.572-.746,5.785h6.717c2.239,0,2.799,1.773,2.612,2.892l-1.4,10.45c-.186,1.959-.84,2.799-2.798,2.799h-7.091c-.934,7.557-2.239,14.461-2.239,16.327,0,1.959.746,2.519,2.145,2.613,1.027.093,2.426,0,3.732.186,1.307.186,3.453,1.306,3.266,5.598-.093,3.825-.933,7.371-.933,7.371-4.012,1.12-11.662,4.012-17.82,4.012-11.569,0-13.902-6.998-13.249-15.768.187-4.292,2.333-15.768,2.706-20.339Z"/>
    <path class="b" d="M386.093,112.431c.093-3.638-1.587-5.971-1.587-5.971,0,0,2.612-5.878,12.409-5.878,11.568,0,11.568,6.997,11.475,13.062-.28,8.863-3.545,23.511-3.639,27.336-.093,3.639,1.493,5.971,1.493,5.971,0,0-2.705,5.878-12.408,5.878-11.756,0-11.756-6.998-11.382-12.782.466-8.957,3.359-20.526,3.639-27.617ZM388.331,89.48c.747-7.184,5.318-7.931,11.476-7.931,5.971,0,10.45.746,9.796,7.931-.746,6.997-5.317,7.744-11.288,7.744-6.158,0-10.543-.746-9.984-7.744Z"/>
    <path class="b" d="M155.916,214.566c2.053-12.408,5.318-36.014,5.691-39.651.56-5.318-1.306-12.596,8.77-12.596h26.684c5.784,0,7.091,3.172,6.717,6.904l-.466,5.039c-.467,5.224-4.012,6.811-8.024,6.53-2.892-.093-7.277-.093-11.475-.093l-1.587,9.517c4.199.093,8.117-.187,10.17-.187,4.851,0,5.505,2.986,5.225,5.411l-.747,5.784c-.466,3.919-1.772,4.853-5.784,4.572-2.613-.186-6.904-.279-11.196-.279-.84,7.557-.28,9.982-1.026,14.367-.933,5.784-3.452,5.877-6.997,5.877h-9.517c-5.878,0-6.718-3.452-6.718-7.371,0-1.306.187-2.611.28-3.825Z"/>
    <path class="b" d="M230.277,173.515c14.275,0,20.619,7.37,19.686,17.913-.653,10.17-10.916,15.674-19.126,15.674-7.651,0-9.237-4.851-9.237-4.851l-.466.093c-.186,3.266,2.706,7.464,10.636,7.464,6.437,0,11.849-3.265,11.849-3.265,2.892,2.705,3.732,5.784,3.545,8.583-.653,7.091-8.023,11.569-20.246,11.569-19.22,0-26.03-12.035-24.818-26.869,1.213-14.928,11.009-26.311,28.176-26.311ZM223.933,196.467c3.732,0,7.277-1.587,7.557-4.293.093-1.772-1.12-3.078-3.639-3.078-4.105,0-5.691,3.919-5.691,6.437v.84c.56.094,1.12.094,1.773.094Z"/>
    <path class="b" d="M258.268,208.409s5.411,2.518,12.875,2.518c1.772,0,3.359-.56,3.359-1.679.093-1.398-1.494-2.239-5.038-3.359l-3.265-1.026c-8.957-2.799-11.382-7.091-11.196-12.129.56-12.875,10.263-19.219,25.564-19.219,14.274,0,19.126,3.545,19.126,7.184-.186,3.919-4.292,9.236-6.158,10.916,0,0-5.317-2.425-11.101-2.425-2.053,0-3.733.56-3.733,1.772-.093,1.213.84,1.865,3.733,2.519l4.198.933c9.517,2.146,12.502,7.931,12.316,13.062-.374,12.969-11.663,19.22-27.336,19.22-16.421,0-19.407-3.733-18.847-7.931.56-4.851,5.318-10.17,5.505-10.356Z"/>
    <path class="b" d="M308.373,190.588h-2.426c-1.866,0-2.893-.84-2.705-2.799l.932-8.77c.188-1.4.934-2.519,3.826-3.638,7.185-2.52,9.143-6.811,9.983-8.677.933-2.053,2.145-2.426,3.639-2.426h7.557c2.333,0,4.572,1.399,4.293,4.385-.281,2.706-.56,4.572-.747,5.785h6.718c2.239,0,2.798,1.772,2.612,2.892l-1.4,10.45c-.187,1.959-.84,2.799-2.799,2.799h-7.091c-.933,7.558-2.239,14.461-2.239,16.327,0,1.959.747,2.519,2.146,2.613,1.027.093,2.425,0,3.732.186s3.452,1.306,3.265,5.598c-.093,3.825-.933,7.371-.933,7.371-4.012,1.12-11.662,4.012-17.82,4.012-11.568,0-13.901-6.998-13.248-15.768.186-4.292,2.332-15.767,2.706-20.339Z"/>
  </g>
</svg>