<svg xmlns="http://www.w3.org/2000/svg" viewBox="331 161 45 41" fill="currentColor">
  <path fill-rule="nonzero" fill="currentColor" fill-opacity="1" d="M 373.347656 182.574219 L 372.589844 182.574219 C 371.957031 182.574219 371.441406 182.058594 371.441406 181.425781 C 371.441406 180.789062 371.957031 180.273438 372.589844 180.273438 L 373.347656 180.273438 C 373.671875 180.273438 373.933594 180.011719 373.933594 179.6875 L 373.933594 176.167969 C 373.933594 175.84375 373.671875 175.582031 373.347656 175.582031 L 372.589844 175.582031 C 371.957031 175.582031 371.441406 175.0625 371.441406 174.429688 L 371.441406 174.214844 L 372.300781 173.429688 C 372.53125 173.214844 372.554688 172.855469 372.347656 172.613281 L 370.058594 169.941406 C 369.957031 169.824219 369.816406 169.75 369.660156 169.738281 C 369.503906 169.726562 369.351562 169.777344 369.234375 169.878906 L 368.65625 170.371094 C 368.175781 170.785156 367.445312 170.726562 367.035156 170.246094 C 366.832031 170.011719 366.738281 169.714844 366.761719 169.40625 C 366.785156 169.101562 366.925781 168.824219 367.160156 168.621094 L 367.734375 168.128906 C 367.980469 167.917969 368.007812 167.546875 367.796875 167.300781 L 365.507812 164.628906 C 365.296875 164.386719 364.929688 164.355469 364.683594 164.566406 L 364.105469 165.058594 C 363.871094 165.261719 363.574219 165.355469 363.269531 165.332031 C 362.960938 165.308594 362.683594 165.167969 362.484375 164.933594 L 361.714844 164.039062 C 361.613281 163.921875 361.46875 163.847656 361.316406 163.835938 C 361.160156 163.824219 361.003906 163.875 360.886719 163.976562 L 350.75 172.664062 L 349.074219 172.664062 C 348.75 172.664062 348.488281 172.925781 348.488281 173.25 C 348.488281 173.574219 348.75 173.835938 349.074219 173.835938 L 370.265625 173.835938 L 370.265625 174.429688 C 370.265625 175.710938 371.308594 176.753906 372.589844 176.753906 L 372.761719 176.753906 L 372.761719 179.097656 L 372.589844 179.097656 C 371.308594 179.097656 370.265625 180.140625 370.265625 181.425781 C 370.265625 182.707031 371.308594 183.75 372.589844 183.75 L 372.761719 183.75 L 372.761719 186.09375 L 372.589844 186.09375 C 371.308594 186.09375 370.265625 187.136719 370.265625 188.417969 L 370.265625 189.75 L 366.210938 189.75 C 365.886719 189.75 365.625 190.011719 365.625 190.335938 C 365.625 190.65625 365.886719 190.921875 366.210938 190.921875 L 370.851562 190.921875 C 371.175781 190.921875 371.441406 190.65625 371.441406 190.335938 L 371.441406 188.417969 C 371.441406 187.78125 371.957031 187.265625 372.589844 187.265625 L 373.347656 187.265625 C 373.671875 187.265625 373.933594 187.003906 373.933594 186.679688 L 373.933594 183.160156 C 373.933594 182.835938 373.671875 182.574219 373.347656 182.574219 M 352.550781 172.664062 L 361.207031 165.246094 L 361.59375 165.699219 C 361.996094 166.167969 362.558594 166.457031 363.179688 166.503906 C 363.796875 166.550781 364.398438 166.355469 364.871094 165.953125 L 365 165.839844 L 366.527344 167.621094 L 366.394531 167.730469 C 365.421875 168.566406 365.308594 170.035156 366.144531 171.007812 C 366.976562 171.980469 368.445312 172.097656 369.421875 171.261719 L 369.550781 171.148438 L 370.847656 172.664062 Z M 352.550781 172.664062 "/>
  <path fill-rule="nonzero" fill="currentColor" fill-opacity="1" d="M 361.0625 189.746094 L 337.980469 189.746094 L 337.980469 189.152344 C 337.980469 187.871094 336.9375 186.828125 335.660156 186.828125 L 335.484375 186.828125 L 335.484375 184.484375 L 335.660156 184.484375 C 336.9375 184.484375 337.980469 183.441406 337.980469 182.160156 C 337.980469 180.878906 336.9375 179.835938 335.660156 179.835938 L 335.484375 179.835938 L 335.484375 177.488281 L 335.660156 177.488281 C 336.9375 177.488281 337.980469 176.445312 337.980469 175.164062 L 337.980469 173.835938 L 344.675781 173.835938 C 345 173.835938 345.261719 173.574219 345.261719 173.25 C 345.261719 172.925781 345 172.664062 344.675781 172.664062 L 337.394531 172.664062 C 337.074219 172.664062 336.808594 172.925781 336.808594 173.25 L 336.808594 175.164062 C 336.808594 175.800781 336.292969 176.316406 335.660156 176.316406 L 334.898438 176.316406 C 334.578125 176.316406 334.3125 176.578125 334.3125 176.902344 L 334.3125 180.421875 C 334.3125 180.746094 334.578125 181.007812 334.898438 181.007812 L 335.660156 181.007812 C 336.292969 181.007812 336.808594 181.523438 336.808594 182.160156 C 336.808594 182.792969 336.292969 183.3125 335.660156 183.3125 L 334.898438 183.3125 C 334.578125 183.3125 334.3125 183.574219 334.3125 183.898438 L 334.3125 187.417969 C 334.3125 187.742188 334.578125 188.003906 334.898438 188.003906 L 335.660156 188.003906 C 336.292969 188.003906 336.808594 188.519531 336.808594 189.152344 L 336.808594 189.472656 L 335.980469 190.128906 C 335.855469 190.226562 335.777344 190.371094 335.761719 190.53125 C 335.746094 190.691406 335.796875 190.847656 335.898438 190.96875 L 338.1875 193.640625 C 338.289062 193.757812 338.433594 193.832031 338.589844 193.84375 C 338.746094 193.859375 338.898438 193.808594 339.015625 193.707031 L 339.59375 193.210938 C 339.824219 193.011719 340.125 192.914062 340.429688 192.9375 C 340.734375 192.960938 341.015625 193.105469 341.214844 193.335938 C 341.628906 193.820312 341.574219 194.546875 341.089844 194.960938 L 340.515625 195.453125 C 340.269531 195.664062 340.242188 196.035156 340.449219 196.28125 L 342.742188 198.953125 C 342.953125 199.199219 343.320312 199.226562 343.566406 199.015625 L 344.140625 198.523438 C 344.375 198.324219 344.675781 198.226562 344.980469 198.25 C 345.289062 198.273438 345.566406 198.414062 345.765625 198.648438 L 346.535156 199.542969 C 346.648438 199.679688 346.8125 199.75 346.980469 199.75 C 347.113281 199.75 347.25 199.703125 347.359375 199.609375 L 357.480469 190.9375 C 357.488281 190.933594 357.492188 190.925781 357.5 190.921875 L 361.0625 190.921875 C 361.386719 190.921875 361.648438 190.660156 361.648438 190.335938 C 361.648438 190.011719 361.386719 189.746094 361.0625 189.746094 M 347.042969 198.335938 L 346.65625 197.886719 C 346.253906 197.414062 345.6875 197.128906 345.070312 197.082031 C 344.453125 197.03125 343.851562 197.230469 343.378906 197.632812 L 343.25 197.742188 L 341.722656 195.960938 L 341.851562 195.851562 C 342.324219 195.449219 342.609375 194.882812 342.660156 194.265625 C 342.707031 193.644531 342.511719 193.046875 342.105469 192.574219 C 341.703125 192.101562 341.140625 191.816406 340.519531 191.769531 C 339.902344 191.722656 339.300781 191.917969 338.828125 192.320312 L 338.699219 192.433594 L 337.402344 190.921875 L 355.699219 190.921875 Z M 347.042969 198.335938 "/>
  <path fill-rule="nonzero" fill="currentColor" fill-opacity="1" d="M 367.425781 175.414062 L 350.71875 175.414062 C 350.394531 175.414062 350.132812 175.675781 350.132812 176 C 350.132812 176.324219 350.394531 176.585938 350.71875 176.585938 L 366.839844 176.585938 L 366.839844 187 L 341.410156 187 L 341.410156 176.585938 L 346.238281 176.585938 C 346.5625 176.585938 346.824219 176.324219 346.824219 176 C 346.824219 175.675781 346.5625 175.414062 346.238281 175.414062 L 340.820312 175.414062 C 340.496094 175.414062 340.234375 175.675781 340.234375 176 L 340.234375 187.585938 C 340.234375 187.910156 340.496094 188.171875 340.820312 188.171875 L 367.425781 188.171875 C 367.75 188.171875 368.015625 187.910156 368.015625 187.585938 L 368.015625 176 C 368.011719 175.675781 367.75 175.414062 367.425781 175.414062 "/>
  <path fill-rule="nonzero" fill="currentColor" fill-opacity="1" d="M 346.4375 179.222656 L 343.199219 179.222656 C 342.984375 179.222656 342.886719 179.453125 342.886719 179.667969 C 342.886719 179.914062 343 180.121094 343.199219 180.121094 L 344.324219 180.121094 L 344.324219 184.507812 C 344.324219 184.714844 344.570312 184.820312 344.820312 184.820312 C 345.066406 184.820312 345.320312 184.714844 345.320312 184.507812 L 345.320312 180.121094 L 346.4375 180.121094 C 346.636719 180.121094 346.753906 179.90625 346.753906 179.667969 C 346.753906 179.453125 346.652344 179.222656 346.4375 179.222656 "/>
  <path fill-rule="nonzero" fill="currentColor" fill-opacity="1" d="M 347.792969 179.222656 C 347.539062 179.222656 347.296875 179.316406 347.296875 179.53125 L 347.296875 184.507812 C 347.296875 184.714844 347.539062 184.820312 347.792969 184.820312 C 348.039062 184.820312 348.292969 184.714844 348.292969 184.507812 L 348.292969 179.53125 C 348.292969 179.316406 348.039062 179.222656 347.792969 179.222656 "/>
  <path fill-rule="nonzero" fill="currentColor" fill-opacity="1" d="M 352.242188 182.863281 C 351.980469 182.863281 351.765625 182.9375 351.753906 183.175781 C 351.730469 183.496094 351.667969 183.996094 350.972656 183.996094 C 350.441406 183.996094 350.152344 183.710938 350.152344 183.113281 L 350.152344 180.976562 C 350.152344 180.378906 350.441406 180.097656 350.957031 180.097656 C 351.683594 180.097656 351.738281 180.617188 351.753906 180.855469 C 351.761719 181.085938 351.964844 181.167969 352.25 181.167969 C 352.585938 181.167969 352.746094 181.078125 352.746094 180.679688 C 352.746094 179.789062 351.988281 179.226562 350.925781 179.226562 C 349.960938 179.226562 349.15625 179.699219 349.15625 180.976562 L 349.15625 183.113281 C 349.15625 184.394531 349.953125 184.867188 350.917969 184.867188 C 351.988281 184.867188 352.746094 184.277344 352.746094 183.351562 C 352.746094 182.960938 352.585938 182.863281 352.242188 182.863281 "/>
  <path fill-rule="nonzero" fill="currentColor" fill-opacity="1" d="M 357.15625 184.1875 L 355.488281 181.644531 L 356.859375 179.929688 C 356.914062 179.859375 356.917969 179.792969 356.917969 179.738281 C 356.917969 179.484375 356.597656 179.222656 356.34375 179.222656 C 356.238281 179.222656 356.148438 179.261719 356.070312 179.371094 L 354.417969 181.621094 L 354.417969 179.53125 C 354.417969 179.316406 354.164062 179.222656 353.917969 179.222656 C 353.664062 179.222656 353.421875 179.316406 353.421875 179.53125 L 353.421875 184.507812 C 353.421875 184.714844 353.664062 184.820312 353.917969 184.820312 C 354.164062 184.820312 354.417969 184.714844 354.417969 184.507812 L 354.417969 183.007812 L 354.828125 182.488281 L 356.269531 184.667969 C 356.355469 184.804688 356.484375 184.859375 356.613281 184.859375 C 356.90625 184.859375 357.210938 184.605469 357.210938 184.363281 C 357.210938 184.300781 357.195312 184.242188 357.15625 184.1875 "/>
  <path fill-rule="nonzero" fill="currentColor" fill-opacity="1" d="M 360.808594 183.949219 L 358.644531 183.949219 L 358.644531 182.410156 L 359.808594 182.410156 C 360.019531 182.410156 360.121094 182.203125 360.121094 182.027344 C 360.121094 181.820312 360.003906 181.628906 359.808594 181.628906 L 358.644531 181.628906 L 358.644531 180.097656 L 360.808594 180.097656 C 361.007812 180.097656 361.125 179.890625 361.125 179.652344 C 361.125 179.445312 361.023438 179.222656 360.808594 179.222656 L 358.082031 179.222656 C 357.863281 179.222656 357.648438 179.332031 357.648438 179.539062 L 357.648438 184.507812 C 357.648438 184.714844 357.863281 184.820312 358.082031 184.820312 L 360.808594 184.820312 C 361.023438 184.820312 361.125 184.601562 361.125 184.394531 C 361.125 184.15625 361.007812 183.949219 360.808594 183.949219 "/>
  <path fill-rule="nonzero" fill="currentColor" fill-opacity="1" d="M 364.890625 179.222656 L 361.652344 179.222656 C 361.4375 179.222656 361.339844 179.453125 361.339844 179.667969 C 361.339844 179.914062 361.453125 180.121094 361.652344 180.121094 L 362.777344 180.121094 L 362.777344 184.507812 C 362.777344 184.714844 363.023438 184.820312 363.273438 184.820312 C 363.519531 184.820312 363.773438 184.714844 363.773438 184.507812 L 363.773438 180.121094 L 364.890625 180.121094 C 365.089844 180.121094 365.203125 179.90625 365.203125 179.667969 C 365.203125 179.453125 365.105469 179.222656 364.890625 179.222656 "/>
</svg>
