<svg id="Layer_1" data-name="Layer 1" xmlns="http://www.w3.org/2000/svg" viewBox="0 0 600 119.56"><defs><style>.cls-1{fill:#fff;}.cls-2{fill:#a7a7a7;}.cls-3{fill:#231f20;}</style></defs><title>MarqueeLogo</title><path class="cls-1" d="M23.42,119.56H160.49C121.76,74,129.82,8.46,129.82,8.46S107.3,84.77,23.42,119.56" transform="translate(-5.49)"/><path class="cls-2" d="M142.56,119.56H5.49C44.22,74,36.16,8.46,36.16,8.46s22.52,76.31,106.4,111.1" transform="translate(-5.49)"/><path class="cls-1" d="M412.76,72.64a53.53,53.53,0,0,1,4.72,3.25c.75.53,1.7,1.17,2.81,1.91s2,1.33,2.82,1.78c3.74,2.32,7.7,4.65,11.81,7a130.2,130.2,0,0,0,12.5,6.15,94.36,94.36,0,0,0,12.83,4.41A46.4,46.4,0,0,0,488,96.21,51.15,51.15,0,0,0,501.27,89l-.45-.86a54.76,54.76,0,0,1-10.28,4,49.38,49.38,0,0,1-28.12-1,98.78,98.78,0,0,1-16.06-6.8,144.36,144.36,0,0,1-15.47-9.52c-5-3.5-9.81-7.07-14.4-10.61l-8.07,6Q410.46,71.23,412.76,72.64Z" transform="translate(-5.49)"/><path class="cls-1" d="M228.56,77.34V73.49c-.05-1-.05-2.54-.05-4.74,0-4.77-.13-8.28-.21-10.51l-.62-14.64-.13-3.11c0-1.67-.09-3.73-.22-6.18l-.13-2.59c-.66,1.4-1.23,2.54-1.71,3.46-.57,1.14-1.23,2.5-2,4l-.79,1.71c-.4.75-.79,1.58-1.23,2.55l-2,4.12-15,33.3h-6.7L181.66,42.41c-1.18-2.67-2-4.64-2.54-6-.83-1.93-1.53-3.59-2.15-4.95l-.22,4.38c-.08,1.18-.17,2.94-.3,5.17l-.66,21.21c0,3.12-.09,5.35-.09,6.8v6c0,2.15,0,3.55.05,4.25v1.62h-6.66l.13-1c.13-1.22.3-3.59.52-7.14,0-.66.09-1.14.09-1.53.31-3.69.48-6.75.57-9.25l.26-5.52L171.23,41c.13-4.07.22-8.68.22-13.89,0-1.62,0-3.86-.09-6.71h13.06c.31,1.84,1.58,5.57,3.73,11.22s4.56,11.84,7.19,18.15q2,5.05,4.2,10.25l4.17,10.22,12.8-28.84c2.41-5.66,4.33-10.43,5.87-14.33l1.93-4.83a10.09,10.09,0,0,0,.65-1.84h12.5c-.14,2-.22,4.78-.22,8.42V31.5c0,3.42,0,6.62.17,9.56l.83,20.55c.18,4.51.44,8.9.79,13.24.22,2.58.4,4.6.57,6H228.51l.05-1Z" transform="translate(-5.49)"/><path class="cls-1" d="M281.52,20.41l16.4,40.1q2.43,6,6.44,14.47,1.51,3.22,2.89,5.91h-12.8a5.68,5.68,0,0,0-.35-1.22c-.83-2.63-1.75-5.31-2.67-8l-1.93-5.52c-.44,0-1.67-.18-3.72-.31-1.76-.08-4.3-.13-7.63-.13h-8.5c-2.81,0-5,0-6.58.13l-2,.13-1.36.09-3.85,9.29-1.49,3.51-.79,2h-6.75l.52-1,3.42-7c1.62-3.24,3.2-6.62,4.82-10.17l2.24-5,16.26-37.26ZM261.58,61.17c1.54.09,2.94.13,4.12.13h12.49q7.83,0,9.6-.13l-12.8-32Z" transform="translate(-5.49)"/><path class="cls-1" d="M369.9,80.72a11.52,11.52,0,0,1-1.71.53,11.06,11.06,0,0,1-2.41.26,7.74,7.74,0,0,1-1,0,14.9,14.9,0,0,1-2.46-.36c-3.29-1-6.27-4-9.38-8.5-1.31-2-2.63-4.16-4-6.57l-3.72-6.8a14.1,14.1,0,0,0-3.73-4.07,12.69,12.69,0,0,0-5.13-1.67c-1.88.13-4,.18-6.48.18l-3.64,0v8c0,4.43.13,8.86.4,13.2.13,2.58.3,4.6.43,6H315.86a13.3,13.3,0,0,0,.17-2c.18-3.46.31-7.54.44-12.14,0-3.46.09-6.05.09-7.8V40.35c0-4-.13-8.5-.44-13.58l-.39-6.36q6.9,0,12.49-.22c3.63-.13,6.75-.22,9.24-.22,8.2,0,14.25,1.67,18.19,5,3.51,3,5.26,7.14,5.26,12.44a12.51,12.51,0,0,1-4.07,9.43A23.28,23.28,0,0,1,346,52.14a12.4,12.4,0,0,1,5.87,2,15.36,15.36,0,0,1,5.08,6.53,97.93,97.93,0,0,0,5.57,10.74,31.19,31.19,0,0,0,4.16,5.65,7.87,7.87,0,0,0,3.47,2.54Zm-38.62-56.1c-2.19.22-3.9.31-5.08.31v25c1.05.09,2.37.13,3.95.13a50.25,50.25,0,0,0,5.43-.26q6.65-.6,10.52-3.16a10.12,10.12,0,0,0,5-9.11c0-4.43-1.35-7.72-4-9.95s-6.31-3.16-11-3.16C335,24.4,333.39,24.49,331.28,24.62Z" transform="translate(-5.49)"/><path class="cls-1" d="M422.49,79.25c-7.19,3.44-12.36,4-16.39,4-9.47,0-17.75-3.07-23.67-8.63S373,61.08,373,51.66A31,31,0,0,1,378,34.13a30,30,0,0,1,12.32-10.61A36.53,36.53,0,0,1,406,20c9.46,0,17.75,3.07,23.66,8.64s9.34,13.67,9.34,23a33.19,33.19,0,0,1-4.3,17.05c-2.58,4.38-7.45,8-12.18,10.58ZM406.1,24.79a21.64,21.64,0,0,0-10,2.77A23.94,23.94,0,0,0,387,36.28a28.58,28.58,0,0,0-4,15.29A30.33,30.33,0,0,0,389,70.51a20.44,20.44,0,0,0,16.34,8H406a22.15,22.15,0,0,0,10.38-2.67,22.67,22.67,0,0,0,8.9-8.59,30.19,30.19,0,0,0,3.81-15.52c0-7.31-2.19-14.06-6.09-19a20.68,20.68,0,0,0-16.26-7.94Z" transform="translate(-5.49)"/><path class="cls-1" d="M458.51,51.14c0,9,1.58,15.69,4.78,20s8,6.35,14.63,6.35c6.36,0,11.27-1.88,14.73-5.7,4-4.34,6-11.17,6-20.42V40.18c0-3.9-.13-8.37-.35-13.46-.09-1.31-.18-3.41-.31-6.31h6.75c-.3,5.44-.48,9.64-.57,12.67s-.09,5.48-.09,7.1V51.49q0,16-7.31,23.66c-4.61,4.78-11.31,7.19-20.21,7.19-10.56,0-17.53-2.85-21.87-8.15-4-4.87-5.61-11.75-5.61-20.64v-13c0-4-.13-8.59-.35-13.72,0-1.27-.17-3.37-.31-6.4h10.74c-.22,4.25-.39,8.51-.52,12.85-.05,3.19-.09,5.65-.09,7.27Z" transform="translate(-5.49)"/><path class="cls-1" d="M518.57,39.7c0-3.9-.13-8.33-.44-13.24l-.39-6.05h37.65V26.2q-7-.46-15.91-.79c-3.33-.13-7.06-.22-11.14-.26v21.6c4.08,0,7.1-.13,9.12-.17l2.58-.09,12.15-.39v5.78c-2.15,0-4.56-.13-7.15-.26l-7.58-.22c-3.81-.13-6.84-.18-9.12-.22l.09,25.07c8.68-.13,15.08-.35,19.24-.61,2.24-.14,5-.27,8.07-.49v5.74H517.91c.13-2.84.27-4.86.31-6,.22-4.91.35-9.34.35-13.28Z" transform="translate(-5.49)"/><path class="cls-1" d="M568.33,39.7c0-3.9-.13-8.33-.44-13.24l-.39-6.05h37.64V26.2q-7-.46-15.91-.79c-3.33-.13-7.05-.22-11.13-.26v21.6c4.08,0,7.1-.13,9.12-.17l2.58-.09,12.14-.39v5.78c-2.14,0-4.56-.13-7.14-.26l-7.58-.22c-3.82-.13-6.84-.18-9.12-.22l.09,25.07c8.68-.13,15.08-.35,19.24-.61,2.23-.14,5-.27,8.06-.49v5.74H567.67c.13-2.84.26-4.86.31-6,.22-4.91.35-9.34.35-13.28Z" transform="translate(-5.49)"/><rect class="cls-3" x="303.03" width="0.05" height="0.04"/><path class="cls-2" d="M169.22,103.52c0-1.47,0-3.14-.16-5l-.15-2.27h14.17v2.18c-1.75-.12-3.74-.22-6-.3-1.25,0-2.65-.08-4.19-.1v8.14c1.54,0,2.68-.05,3.44-.07l1,0,4.57-.15v2.18c-.81,0-1.72,0-2.69-.1l-2.85-.09c-1.44,0-2.58-.06-3.44-.08l0,9.44q4.89-.07,7.24-.23c.84,0,1.86-.1,3-.18V119H169c.05-1.07.1-1.83.11-2.28.09-1.85.13-3.51.13-5Z" transform="translate(-5.49)"/><path class="cls-2" d="M198.05,119.05l-2.78,0-6.17-15.1c-.7-1.71-1.51-3.53-2.42-5.44-.26-.55-.62-1.29-1.1-2.23h4.84s0,.13.09.39c.12.43.4,1.31.85,2.64s.84,2.55,1.38,4c.17.48.43,1.16.78,2.06l4.2,10.38,5.22-12.19c.62-1.52,1.27-3.15,1.95-4.92l.89-2.34h2.54l-.2.39-1.29,2.64c-.52,1.11-1.12,2.38-1.78,3.83-.31.66-.59,1.29-.84,1.88Z" transform="translate(-5.49)"/><path class="cls-2" d="M211.51,103.52c0-1.47,0-3.14-.17-5l-.15-2.27h14.18v2.18q-2.62-.18-6-.3c-1.26,0-2.66-.08-4.19-.1v8.14c1.53,0,2.67-.05,3.43-.07l1,0,4.57-.15v2.18c-.8,0-1.71,0-2.69-.1l-2.85-.09c-1.44,0-2.57-.06-3.43-.08l0,9.44c3.27,0,5.67-.13,7.24-.23.85,0,1.87-.1,3-.18V119H211.26c.05-1.07.1-1.83.12-2.28.08-1.85.13-3.51.13-5Z" transform="translate(-5.49)"/><path class="cls-2" d="M247.9,119c-2.38-2.69-4.78-5.36-7.17-8-1.89-2.11-3.66-4-5.29-5.76-.86-.89-1.54-1.58-2-2.06a11.55,11.55,0,0,0-1.21-1.06l.12,8.17c.05,1.24.14,3.07.29,5.5,0,.15,0,.36,0,.64l.11,1.9.05.69h-2.64c0-.59,0-1.09,0-1.49l.06-4.11c0-.51,0-1.26,0-2.27v-7.64c0-1.87,0-3.65-.1-5.31l-.08-1.95h1.73q4.74,5.37,7.1,8l1.85,2c1,1.09,2.12,2.36,3.46,3.83,1.17,1.28,2.05,2.21,2.61,2.77a8.39,8.39,0,0,0,.74.74l-.13-8.66c-.08-2.51-.18-4.62-.32-6.34-.08-1-.14-1.8-.21-2.39h2.66c0,.87,0,2-.05,3.4-.05,1.85-.07,3.33-.07,4.45v7.64c0,1.88,0,3.67.1,5.33l.1,2Z" transform="translate(-5.49)"/><path class="cls-2" d="M259.6,97.93c-1.59.06-3.15.16-4.72.29l-2.2.2V96.26h17.49v2.16c-1.23-.13-2.65-.25-4.25-.36-1.09-.07-2-.12-2.66-.13v13.85c0,1.72,0,3.37.12,5,.05,1,.08,1.77.11,2.28h-4.12c.08-1.91.15-3.45.2-4.61s0-2,0-2.64Z" transform="translate(-5.49)"/><path class="cls-2" d="M303.3,119a3.18,3.18,0,0,1-.65.2,3.79,3.79,0,0,1-.91.1,2.18,2.18,0,0,1-.39,0,4.94,4.94,0,0,1-.92-.13c-1.24-.39-2.36-1.5-3.53-3.2-.5-.74-1-1.57-1.51-2.48l-1.4-2.55a5.47,5.47,0,0,0-1.4-1.54,4.72,4.72,0,0,0-1.93-.62c-.71,0-1.52.06-2.45.06h-1.37v3c0,1.67.06,3.34.15,5,.05,1,.12,1.73.17,2.28H283a5.31,5.31,0,0,0,.07-.74c.06-1.31.11-2.84.16-4.57,0-1.31,0-2.28,0-2.94v-7c0-1.5,0-3.2-.16-5.12l-.15-2.39c1.73,0,3.3,0,4.71-.08s2.54-.09,3.48-.09c3.08,0,5.36.63,6.85,1.87a5.88,5.88,0,0,1,2,4.68,4.7,4.7,0,0,1-1.54,3.55,8.79,8.79,0,0,1-4.09,2,4.63,4.63,0,0,1,2.21.76,5.7,5.7,0,0,1,1.91,2.45,36.63,36.63,0,0,0,2.1,4,11.5,11.5,0,0,0,1.57,2.12,2.91,2.91,0,0,0,1.3,1ZM288.76,97.84a18.25,18.25,0,0,1-1.92.12v9.4c.4,0,.9,0,1.49,0a17.55,17.55,0,0,0,2.05-.1,8.59,8.59,0,0,0,4-1.18,3.83,3.83,0,0,0,1.88-3.44A4.58,4.58,0,0,0,294.7,99a6.5,6.5,0,0,0-4.14-1.19C290.15,97.76,289.55,97.79,288.76,97.84Z" transform="translate(-5.49)"/><path class="cls-2" d="M306.68,103.52c0-1.47-.05-3.14-.16-5l-.15-2.27h14.18v2.18q-2.62-.18-6-.3c-1.26,0-2.66-.08-4.2-.1v8.14c1.54,0,2.68-.05,3.43-.07l1,0,4.57-.15v2.18c-.81,0-1.71,0-2.69-.1l-2.86-.09c-1.43,0-2.57-.06-3.43-.08l0,9.44q4.89-.07,7.24-.23c.84,0,1.86-.1,3-.18V119H306.44c.05-1.07.09-1.83.11-2.28.08-1.85.13-3.51.13-5Z" transform="translate(-5.49)"/><path class="cls-2" d="M343.07,119c-2.37-2.69-4.77-5.36-7.16-8-1.9-2.11-3.66-4-5.3-5.76-.85-.89-1.53-1.58-2-2.06a11.55,11.55,0,0,0-1.21-1.06l.11,8.17c.06,1.24.15,3.07.3,5.5,0,.15,0,.36,0,.64l.12,1.9.05.69h-2.64c0-.59,0-1.09,0-1.49l.06-4.11c0-.51,0-1.26,0-2.27v-7.64c0-1.87,0-3.65-.1-5.31l-.08-1.95H327c3.15,3.58,5.53,6.24,7.1,8l1.84,2,3.47,3.83c1.17,1.28,2,2.21,2.61,2.77a8.39,8.39,0,0,0,.74.74l-.13-8.66c-.08-2.51-.18-4.62-.32-6.34-.08-1-.15-1.8-.21-2.39h2.66c0,.87,0,2-.05,3.4,0,1.85-.07,3.33-.07,4.45v7.64c0,1.88,0,3.67.1,5.33l.1,2Z" transform="translate(-5.49)"/><path class="cls-2" d="M354.78,97.93c-1.59.06-3.16.16-4.72.29l-2.2.2V96.26h17.49v2.16c-1.23-.13-2.65-.25-4.25-.36-1.09-.07-2-.12-2.66-.13v13.85c0,1.72,0,3.37.11,5,.06,1,.09,1.77.12,2.28h-4.12c.08-1.91.14-3.45.19-4.61s0-2,0-2.64Z" transform="translate(-5.49)"/><path class="cls-2" d="M376.73,96.26l6.17,15.1c.61,1.5,1.41,3.31,2.42,5.44.38.81.75,1.55,1.09,2.23h-4.82a1.79,1.79,0,0,0-.13-.46c-.31-1-.66-2-1-3l-.72-2.07c-.16,0-.63-.07-1.41-.12s-1.61-.05-2.86-.05h-3.21c-1.05,0-1.88,0-2.47.05l-.74,0-.51,0-1.46,3.5-.56,1.32-.3.76h-2.54l.2-.4,1.29-2.64c.61-1.22,1.2-2.49,1.81-3.82l.85-1.89,6.12-14Zm-7.51,15.35c.58,0,1.1,0,1.55,0h4.7c2,0,3.17,0,3.62,0l-4.82-12Z" transform="translate(-5.49)"/><path class="cls-2" d="M389.85,103.75c0-1.5-.05-3.2-.13-5.11,0-.47-.07-1.26-.12-2.38l1.67,0,2.5,0c-.08,1.6-.14,3.18-.19,4.78,0,1.19,0,2.1,0,2.71v8c0,.81,0,1.85,0,3.15l.05,1.8v.63q4.71-.08,7.08-.23c.91,0,1.95-.1,3.14-.18V119H389.6c0-1.07.1-1.83.12-2.28.08-1.85.13-3.51.13-5Z" transform="translate(-5.49)"/><path class="cls-2" d="M406.76,114.71a10.73,10.73,0,0,0,3.85,2.34,11.09,11.09,0,0,0,3.55.71,7.28,7.28,0,0,0,4.42-1.24,3.6,3.6,0,0,0,1.53-2.87,4.13,4.13,0,0,0-2-3.22,15.3,15.3,0,0,0-1.82-1.15c-.66-.37-1.55-.83-2.67-1.39a22.8,22.8,0,0,1-4.47-2.7,5,5,0,0,1-.18-7.91c1.33-1,3.38-1.55,6.14-1.55a14.34,14.34,0,0,1,7.17,1.85l-.92,2.08a8.77,8.77,0,0,0-2.9-1.44,12.3,12.3,0,0,0-3.39-.66,5.81,5.81,0,0,0-3.13.71,2.82,2.82,0,0,0-1.37,2.53c0,.92.71,1.68,2,2.52a16.36,16.36,0,0,0,2.08,1.12q2.91,1.36,4.76,2.44a9.08,9.08,0,0,1,3.55,3.45,4.9,4.9,0,0,1,.56,2.36,5.88,5.88,0,0,1-2.64,5,11.1,11.1,0,0,1-6.5,1.87,14.48,14.48,0,0,1-4.19-.58,13.51,13.51,0,0,1-4.32-2.21Z" transform="translate(-5.49)"/></svg>