<svg width="110" height="30" viewBox="0 0 110 30" fill="none" xmlns="http://www.w3.org/2000/svg">
<path d="M10.6362 0C12.7008 0 14.5214 0.391456 16.098 1.17437C17.6243 1.90874 18.9002 3.0769 19.766 4.5327C20.6282 5.9895 21.0593 7.67961 21.0593 9.60303C21.0593 11.5264 20.6265 13.2091 19.761 14.6511C18.8936 16.0966 17.6225 17.257 16.1042 17.9896C14.5235 18.7725 12.7029 19.1639 10.6424 19.1639H6.18523V28.85H0V0H10.6362ZM6.18523 14.0131H10.0601C11.5161 14.0131 12.6698 13.6146 13.5213 12.8177C14.3728 12.0207 14.7989 10.9492 14.7997 9.60303C14.7997 8.22963 14.3736 7.14405 13.5213 6.34627C12.669 5.5485 11.5153 5.15003 10.0601 5.15085H6.18523V14.0131Z" fill="#E6A400"/>
<path d="M43.4517 12.5661H40.7065V7.66547H43.4517V1.73047H49.2628V7.66547H54.0854V12.5661H49.2628V21.2871C49.2628 22.0304 49.3867 22.8083 49.8946 23.2047C51.0095 24.0719 54.0903 23.2853 54.0903 23.2853V28.1475C54.0903 28.1475 52.5332 28.8499 49.5068 28.8499C45.7905 28.8499 43.448 26.8306 43.448 22.791L43.4517 12.5661Z" fill="#E6A400"/>
<path d="M21.3069 12.5485C22.1653 10.9495 23.468 9.63301 25.0579 8.75784C26.665 7.86509 28.5265 7.41831 30.6423 7.41748C32.7854 7.41748 34.6746 7.8366 36.3098 8.67484C37.8969 9.46992 39.2259 10.6989 40.1426 12.219C41.0634 13.7435 41.537 15.5364 41.5634 17.5978C41.5704 18.2621 41.5156 18.9256 41.3999 19.5798H26.0266V19.7446C26.1629 21.2848 26.6584 22.4939 27.5132 23.3717C28.3679 24.2496 29.5357 24.6894 31.0165 24.691C32.1983 24.691 33.1806 24.4367 33.9635 23.9279C34.7464 23.4192 35.2618 22.6706 35.5095 21.682H41.2376C41.0264 23.0608 40.4727 24.3645 39.6272 25.4739C38.7402 26.6282 37.5785 27.5421 36.2478 28.1324C34.8439 28.7782 33.2364 29.1007 31.4253 29.0999C29.0617 29.0999 27.0214 28.6605 25.3044 27.7818C23.6372 26.9506 22.2589 25.6366 21.349 24.0109C20.4274 22.3758 19.9669 20.473 19.9678 18.3026C19.9678 16.1017 20.4141 14.1837 21.3069 12.5485ZM35.7523 15.7867C35.5599 14.4959 35.0309 13.4999 34.1654 12.7987C33.2999 12.0976 32.2082 11.7474 30.8901 11.7483C29.6249 11.7483 28.56 12.112 27.6953 12.8396C26.8306 13.5672 26.3153 14.5496 26.1493 15.7867H35.7523Z" fill="#E6A400"/>
<path d="M59.6524 10.1492C59.6524 12.0371 61.0423 12.7754 62.7592 12.7754C64.6471 12.7754 65.3508 11.8488 65.3508 10.9172C65.3508 9.98567 64.8354 9.59546 64.3387 9.40716C63.4802 9.08136 62.3641 8.85715 60.6818 8.39384C58.587 7.82772 57.9689 6.55673 57.9689 5.28698C57.9689 2.83171 60.2358 1.68213 62.4495 1.68213C65.0076 1.68213 67.1569 3.03859 67.1569 5.59544H65.0113C64.9085 4.01599 63.8444 3.43252 62.3678 3.43252C61.3768 3.43252 60.1194 3.79301 60.1194 5.02931C60.1194 5.88779 60.7029 6.36843 61.5787 6.60876C61.767 6.66079 64.4787 7.36441 65.1142 7.55271C65.799 7.74042 66.4034 8.14773 66.8344 8.71212C67.2654 9.27651 67.4993 9.96677 67.5 10.6769C67.5 13.4245 65.0634 14.5171 62.6254 14.5171C59.827 14.5171 57.5613 13.178 57.5093 10.1405L59.6524 10.1492Z" fill="#9F5D03"/>
<path d="M76.3486 14.2347H74.426V12.996H74.3913C73.9107 13.8891 72.8466 14.4726 71.8679 14.4726C69.5502 14.4726 68.5542 13.3044 68.5542 10.9879V5.35889H70.5115V10.8008C70.5115 12.363 71.147 12.9303 72.2111 12.9303C73.8426 12.9303 74.3913 11.8823 74.3913 10.5097V5.35889H76.3486V14.2347Z" fill="#9F5D03"/>
<path d="M77.8425 5.35898H79.7007V6.56059H79.7341C80.2842 5.54851 81.3446 5.11865 82.4805 5.11865C85.2789 5.11865 86.6354 7.24811 86.6354 9.83964C86.6354 12.2255 85.4338 14.4752 82.8076 14.4752C81.6741 14.4752 80.4539 14.0626 79.8345 13.084H79.7998V17.3144H77.8425V5.35898ZM82.2204 6.66465C80.5716 6.66465 79.7304 7.91706 79.7304 9.8062C79.7304 11.5913 80.6409 12.9304 82.2204 12.9304C84.0055 12.9304 84.6744 11.351 84.6744 9.8062C84.6744 8.19207 83.8333 6.66465 82.2204 6.66465Z" fill="#9F5D03"/>
<path d="M89.2331 10.3029C89.2331 11.6941 89.9887 12.9304 91.619 12.9304C92.7525 12.9304 93.4388 12.4349 93.7819 11.4538H95.6401C95.2102 13.3937 93.5626 14.4752 91.6227 14.4752C88.8416 14.4752 87.2795 12.5352 87.2795 9.8062C87.2795 7.28156 88.9271 5.11865 91.5707 5.11865C94.3691 5.11865 96.086 7.64205 95.7602 10.3029H89.2331ZM93.7992 9.01586C93.7311 7.77707 92.89 6.66217 91.5694 6.66217C90.2142 6.66217 89.2864 7.6916 89.2356 9.01586H93.7992Z" fill="#9F5D03"/>
<path d="M96.6917 5.35927H98.5288V7.07622H98.5634C98.7864 6.13227 99.9546 5.11895 101.156 5.11895C101.405 5.11612 101.654 5.13352 101.899 5.17097V7.05888C101.621 7.0138 101.34 6.98526 101.058 6.9734C99.7192 6.9734 98.6551 8.05486 98.6551 10.0121V14.2351H96.6978L96.6917 5.35927Z" fill="#9F5D03"/>
<path d="M57.9749 19.9742H59.833V21.213H59.8851C60.4685 20.3371 61.2068 19.7363 62.6104 19.7363C63.6918 19.7363 64.7051 20.2009 65.0991 21.213C65.7519 20.3037 66.593 19.7363 67.8801 19.7363C69.7519 19.7363 70.8532 20.5614 70.8532 22.7243V28.8525H68.8959V23.6657C68.8959 22.2585 68.8105 21.2799 67.2855 21.2799C65.9638 21.2799 65.3976 22.1544 65.3976 23.6484V28.8513H63.4255V23.1529C63.4255 21.9339 63.0539 21.2823 61.8634 21.2823C60.8513 21.2823 59.9235 22.1061 59.9235 23.5827V28.8525H57.9749V19.9742Z" fill="#9F5D03"/>
<path d="M79.7576 26.8756C79.7576 27.3563 79.8604 27.5458 80.2209 27.5458C80.3818 27.5487 80.5427 27.5371 80.7016 27.5111V28.8738C80.2999 29.0009 79.8836 29.0759 79.4628 29.0967C78.6724 29.0967 78.1001 28.8217 77.9515 28.0153C77.1785 28.771 75.9261 29.0967 74.8793 29.0967C73.2825 29.0967 71.8406 28.2383 71.8406 26.504C71.8406 24.2903 73.6083 23.9298 75.2559 23.7403C76.6644 23.4826 77.9168 23.6374 77.9168 22.4879C77.9168 21.4745 76.87 21.2862 76.0809 21.2862C74.9821 21.2862 74.2091 21.7322 74.1236 22.6935H72.1664C72.3039 20.4104 74.2438 19.7402 76.2011 19.7402C77.9354 19.7402 79.7539 20.4451 79.7539 22.3157L79.7576 26.8756ZM77.8003 24.3981C77.2008 24.792 76.2556 24.7759 75.3971 24.9295C74.5386 25.0831 73.8003 25.3767 73.8003 26.4061C73.8003 27.2819 74.9152 27.5396 75.604 27.5396C76.4612 27.5396 77.8003 27.0924 77.8003 25.8573V24.3981Z" fill="#9F5D03"/>
<path d="M81.3879 19.974H83.225V21.6909H83.2597C83.4827 20.747 84.6497 19.7337 85.8513 19.7337C86.1 19.731 86.3486 19.7484 86.5945 19.7857V21.6736C86.3161 21.6286 86.0352 21.6 85.7534 21.5881C84.4143 21.5881 83.3502 22.6696 83.3502 24.6268V28.8499H81.3879V19.974Z" fill="#9F5D03"/>
<path d="M87.0664 17.3145H89.0237V23.5629L92.5604 19.9704H94.9636L91.5644 23.2321L95.2894 28.8463H92.9085L90.1956 24.5378L89.0286 25.67V28.8463H87.0714L87.0664 17.3145Z" fill="#9F5D03"/>
<path d="M96.7338 24.9182C96.7338 26.3093 97.4883 27.5456 99.1197 27.5456C100.252 27.5456 100.939 27.0501 101.283 26.069H103.141C102.711 28.0089 101.063 29.0904 99.1234 29.0904C96.3424 29.0904 94.7803 27.1505 94.7803 24.4214C94.7803 21.898 96.4279 19.7339 99.0714 19.7339C101.87 19.7339 103.587 22.2585 103.26 24.9182H96.7338ZM101.3 23.6311C101.231 22.3923 100.389 21.2774 99.0702 21.2774C97.7149 21.2774 96.7871 22.3068 96.7363 23.6311H101.3Z" fill="#9F5D03"/>
<path d="M103.245 19.9741H104.722V17.3145H106.679V19.9741H108.447V21.4334H106.679V26.1717C106.679 26.9782 106.747 27.3907 107.623 27.3907C107.899 27.4019 108.176 27.379 108.447 27.3226V28.8326C108.018 28.8673 107.605 28.9355 107.176 28.9355C105.133 28.9355 104.756 28.1463 104.722 26.6697V21.4334H103.245V19.9741Z" fill="#9F5D03"/>
<path d="M108.101 16.8054H107.799V16.5923H108.66V16.8054H108.354V17.7134H108.101V16.8054Z" fill="#9F5D03"/>
<path d="M109.736 17.2847C109.736 17.1497 109.726 16.9886 109.726 16.8239C109.69 16.9663 109.643 17.1261 109.602 17.2574L109.466 17.6947H109.26L109.137 17.2612C109.099 17.1298 109.063 16.9713 109.035 16.8239C109.035 16.975 109.024 17.1484 109.018 17.2884L108.995 17.7133H108.765L108.837 16.5984H109.174L109.283 16.97C109.32 17.1001 109.353 17.2401 109.378 17.3714C109.408 17.2475 109.447 17.0939 109.485 16.9688L109.609 16.5972H109.94L110 17.7121H109.752L109.736 17.2847Z" fill="#9F5D03"/>
</svg>
