<?xml version="1.0" encoding="UTF-8"?>
<svg xmlns="http://www.w3.org/2000/svg" version="1.1" viewBox="0 0 1175.705 433">
  <defs>
    <style>
      .cls-1 {
        fill: #fff;
      }
    </style>
  </defs>
  <!-- Generator: Adobe Illustrator 28.7.1, SVG Export Plug-In . SVG Version: 1.2.0 Build 142)  -->
  <g>
    <g id="Layer_1">
      <g>
        <path class="cls-1" d="M223.197,182.902v-83.232h-29.726v-16.947h79.61v16.947h-29.657v83.232h-20.228Z"/>
        <path class="cls-1" d="M305.132,82.723v36.833c6.194-7.243,13.599-10.865,22.209-10.865,4.418,0,8.405.82,11.958,2.46,3.554,1.64,6.229,3.736,8.029,6.287,1.8,2.552,3.029,5.376,3.69,8.474.66,3.099.991,7.904.991,14.418v42.573h-19.202v-38.336c0-7.607-.365-12.438-1.094-14.487-.729-2.05-2.016-3.678-3.861-4.886-1.845-1.207-4.157-1.811-6.936-1.811-3.189,0-6.037.774-8.542,2.323-2.506,1.549-4.339,3.884-5.501,7.004-1.162,3.121-1.742,7.733-1.742,13.838v36.354h-19.202v-100.179h19.202Z"/>
        <path class="cls-1" d="M413.511,159.804l19.134,3.212c-2.46,7.017-6.344,12.358-11.65,16.024-5.309,3.668-11.948,5.501-19.92,5.501-12.62,0-21.959-4.122-28.018-12.368-4.783-6.605-7.175-14.942-7.175-25.011,0-12.027,3.143-21.445,9.43-28.257,6.287-6.81,14.236-10.216,23.85-10.216,10.797,0,19.314,3.565,25.557,10.694,6.241,7.131,9.226,18.053,8.952,32.767h-48.108c.137,5.695,1.686,10.126,4.647,13.291,2.961,3.167,6.65,4.75,11.07,4.75,3.007,0,5.535-.82,7.585-2.46,2.05-1.641,3.599-4.282,4.646-7.928ZM414.604,140.397c-.137-5.557-1.572-9.782-4.306-12.676-2.733-2.893-6.059-4.339-9.977-4.339-4.191,0-7.653,1.526-10.387,4.578-2.733,3.053-4.078,7.198-4.032,12.437h28.701Z"/>
        <path class="cls-1" d="M483.213,150.306l19.681-1.913c1.184,6.605,3.587,11.457,7.209,14.555,3.622,3.099,8.508,4.647,14.658,4.647,6.514,0,11.423-1.378,14.726-4.135,3.303-2.756,4.955-5.979,4.955-9.669,0-2.368-.695-4.385-2.085-6.048s-3.815-3.109-7.277-4.34c-2.369-.819-7.768-2.277-16.195-4.373-10.843-2.688-18.45-5.99-22.824-9.908-6.15-5.512-9.225-12.232-9.225-20.159,0-5.102,1.445-9.875,4.339-14.316,2.893-4.441,7.061-7.824,12.505-10.147,5.443-2.324,12.016-3.485,19.715-3.485,12.574,0,22.038,2.757,28.394,8.269,6.355,5.513,9.691,12.87,10.011,22.072l-20.227.889c-.866-5.147-2.723-8.85-5.569-11.104-2.848-2.255-7.119-3.383-12.813-3.383-5.876,0-10.479,1.208-13.804,3.622-2.142,1.549-3.211,3.621-3.211,6.218,0,2.37,1.001,4.397,3.006,6.082,2.552,2.142,8.747,4.374,18.588,6.697,9.84,2.323,17.117,4.727,21.833,7.209,4.715,2.483,8.405,5.877,11.07,10.182,2.665,4.306,3.997,9.625,3.997,15.957,0,5.74-1.595,11.116-4.783,16.127-3.189,5.012-7.699,8.736-13.53,11.173-5.832,2.437-13.098,3.655-21.799,3.655-12.666,0-22.392-2.927-29.18-8.78s-10.843-14.385-12.163-25.592Z"/>
        <path class="cls-1" d="M600.681,82.723v36.833c6.195-7.243,13.599-10.865,22.209-10.865,4.418,0,8.405.82,11.959,2.46,3.553,1.64,6.229,3.736,8.029,6.287,1.799,2.552,3.029,5.376,3.689,8.474.66,3.099.991,7.904.991,14.418v42.573h-19.202v-38.336c0-7.607-.365-12.438-1.094-14.487s-2.016-3.678-3.86-4.886c-1.845-1.207-4.158-1.811-6.937-1.811-3.188,0-6.036.774-8.541,2.323-2.507,1.549-4.34,3.884-5.501,7.004-1.162,3.121-1.743,7.733-1.743,13.838v36.354h-19.202v-100.179h19.202Z"/>
        <path class="cls-1" d="M709.061,159.804l19.134,3.212c-2.46,7.017-6.345,12.358-11.651,16.024-5.308,3.668-11.948,5.501-19.92,5.501-12.619,0-21.959-4.122-28.017-12.368-4.784-6.605-7.176-14.942-7.176-25.011,0-12.027,3.144-21.445,9.431-28.257,6.286-6.81,14.235-10.216,23.849-10.216,10.797,0,19.315,3.565,25.558,10.694,6.24,7.131,9.225,18.053,8.951,32.767h-48.107c.137,5.695,1.685,10.126,4.646,13.291,2.961,3.167,6.651,4.75,11.07,4.75,3.007,0,5.535-.82,7.586-2.46,2.05-1.641,3.598-4.282,4.646-7.928ZM710.153,140.397c-.137-5.557-1.571-9.782-4.305-12.676-2.733-2.893-6.06-4.339-9.977-4.339-4.192,0-7.654,1.526-10.388,4.578-2.733,3.053-4.077,7.198-4.031,12.437h28.7Z"/>
        <path class="cls-1" d="M744.868,182.902v-100.179h19.202v100.179h-19.202Z"/>
        <path class="cls-1" d="M817.029,110.33v15.308h-13.12v29.247c0,5.923.125,9.374.376,10.353.25.98.82,1.789,1.709,2.427.888.638,1.97.956,3.245.956,1.777,0,4.351-.615,7.723-1.845l1.64,14.896c-4.466,1.914-9.522,2.87-15.171,2.87-3.462,0-6.583-.58-9.361-1.742-2.779-1.162-4.817-2.665-6.116-4.51-1.298-1.846-2.198-4.34-2.699-7.483-.41-2.231-.615-6.741-.615-13.53v-31.639h-8.815v-15.308h8.815v-14.418l19.271-11.208v25.625h13.12Z"/>
        <path class="cls-1" d="M825.913,145.591c0-6.378,1.572-12.551,4.715-18.52,3.144-5.967,7.597-10.523,13.36-13.667,5.763-3.144,12.197-4.715,19.305-4.715,10.979,0,19.976,3.565,26.992,10.694,7.015,7.131,10.523,16.139,10.523,27.026,0,10.979-3.543,20.08-10.626,27.3-7.085,7.222-16.002,10.831-26.753,10.831-6.652,0-12.996-1.503-19.032-4.51s-10.626-7.414-13.77-13.223c-3.143-5.809-4.715-12.881-4.715-21.218ZM845.594,146.616c0,7.199,1.708,12.711,5.125,16.537,3.417,3.827,7.63,5.74,12.643,5.74s9.213-1.913,12.607-5.74c3.394-3.826,5.091-9.384,5.091-16.674,0-7.106-1.697-12.573-5.091-16.4-3.395-3.826-7.597-5.74-12.607-5.74s-9.226,1.914-12.643,5.74c-3.417,3.827-5.125,9.34-5.125,16.537Z"/>
        <path class="cls-1" d="M981.854,182.902h-19.202v-37.038c0-7.835-.41-12.903-1.23-15.204-.82-2.3-2.152-4.088-3.998-5.364-1.845-1.275-4.065-1.913-6.662-1.913-3.326,0-6.311.911-8.952,2.733-2.643,1.822-4.453,4.236-5.433,7.243-.98,3.007-1.469,8.565-1.469,16.674v32.869h-19.202v-72.572h17.835v10.661c6.332-8.201,14.305-12.301,23.917-12.301,4.237,0,8.108.764,11.617,2.289,3.508,1.527,6.161,3.475,7.961,5.843,1.8,2.369,3.052,5.057,3.759,8.063.706,3.007,1.06,7.312,1.06,12.915v45.102Z"/>
      </g>
      <g>
        <path class="cls-1" d="M379.514,323.092v-100.18h68.678v16.947h-48.45v23.713h41.821v16.946h-41.821v42.573h-20.228Z"/>
        <path class="cls-1" d="M479.078,272.66l-17.425-3.144c1.958-7.015,5.33-12.208,10.113-15.58,4.783-3.371,11.891-5.057,21.32-5.057,8.564,0,14.942,1.015,19.134,3.041,4.191,2.027,7.142,4.602,8.85,7.722,1.708,3.121,2.562,8.85,2.562,17.187l-.205,22.414c0,6.378.308,11.082.923,14.111.615,3.03,1.765,6.275,3.451,9.737h-18.997c-.502-1.274-1.117-3.166-1.846-5.672-.319-1.138-.547-1.89-.684-2.255-3.279,3.189-6.788,5.581-10.523,7.175-3.735,1.595-7.722,2.392-11.958,2.392-7.473,0-13.359-2.026-17.665-6.081-4.305-4.055-6.458-9.18-6.458-15.376,0-4.1.979-7.756,2.938-10.968s4.704-5.672,8.234-7.38,8.621-3.2,15.273-4.476c8.975-1.686,15.192-3.257,18.655-4.716v-1.913c0-3.69-.912-6.321-2.733-7.893-1.822-1.572-5.262-2.357-10.318-2.357-3.417,0-6.082.672-7.995,2.016-1.914,1.344-3.463,3.702-4.647,7.072ZM504.772,288.241c-2.46.819-6.355,1.8-11.686,2.938s-8.815,2.255-10.455,3.348c-2.506,1.777-3.759,4.032-3.759,6.766,0,2.688,1.002,5.012,3.007,6.97,2.005,1.96,4.556,2.938,7.654,2.938,3.461,0,6.765-1.138,9.908-3.416,2.323-1.731,3.85-3.85,4.578-6.355.501-1.641.752-4.76.752-9.362v-3.826Z"/>
        <path class="cls-1" d="M541.127,250.52h17.698v9.909c6.332-7.698,13.872-11.549,22.619-11.549,4.646,0,8.679.957,12.096,2.87,3.416,1.913,6.218,4.807,8.405,8.679,3.188-3.872,6.628-6.766,10.318-8.679,3.689-1.913,7.63-2.87,11.821-2.87,5.331,0,9.841,1.083,13.531,3.246,3.689,2.164,6.445,5.342,8.269,9.532,1.32,3.099,1.981,8.109,1.981,15.034v46.399h-19.202v-41.479c0-7.197-.661-11.845-1.981-13.94-1.777-2.733-4.511-4.1-8.201-4.1-2.688,0-5.217.819-7.585,2.46-2.369,1.64-4.077,4.043-5.125,7.209-1.049,3.167-1.571,8.166-1.571,15v34.851h-19.202v-39.771c0-7.061-.342-11.616-1.025-13.667-.684-2.05-1.742-3.575-3.178-4.578-1.435-1.001-3.383-1.503-5.843-1.503-2.962,0-5.627.797-7.995,2.392-2.369,1.595-4.065,3.895-5.091,6.901s-1.537,7.995-1.537,14.966v35.261h-19.202v-72.572Z"/>
        <path class="cls-1" d="M667,240.68v-17.768h19.202v17.768h-19.202ZM667,323.092v-72.572h19.202v72.572h-19.202Z"/>
        <path class="cls-1" d="M705.883,323.092v-100.18h19.202v100.18h-19.202Z"/>
        <path class="cls-1" d="M735.677,250.52h20.432l17.357,51.525,16.947-51.525h19.886l-25.626,69.839-4.578,12.642c-1.687,4.237-3.292,7.472-4.817,9.704-1.527,2.231-3.28,4.042-5.263,5.433-1.981,1.389-4.419,2.471-7.312,3.246-2.894.773-6.162,1.161-9.806,1.161-3.69,0-7.312-.388-10.865-1.161l-1.709-15.034c3.007.592,5.717.889,8.132.889,4.465,0,7.767-1.311,9.909-3.93,2.141-2.62,3.78-5.957,4.92-10.011l-27.607-72.777Z"/>
      </g>
    </g>
  </g>
</svg>